ply
format ascii 1.0
comment made by @arthurmuchir
element vertex 922
property float x
property float y
property float z
end_header
-143.66112 -115.72701 569.0
-139.42508 -115.523636 568.0
-135.4415 -115.523636 568.0
-151.9088 -119.928 570.0
-147.39221 -119.5072 568.0
-142.6512 -118.876 565.0
-138.19774 -118.4552 563.0
-134.72614 -118.876 565.0
-131.45793 -119.5072 568.0
-160.18454 -124.14301 571.0
-155.35936 -123.49076 568.0
-151.1093 -123.27335 567.0
-146.09474 -122.40371 563.0
-141.38881 -121.75146 560.0
-137.21587 -121.53405 559.0
-133.77232 -121.96888 561.0
-130.99504 -123.05594 566.0
-127.69878 -123.70819 569.0
-168.48831 -128.37204 572.0
-164.18915 -128.14763 571.0
-160.18454 -128.14763 571.0
-154.81233 -127.02548 566.0
-151.1093 -127.249916 567.0
-143.7593 -124.33237 554.0
-139.36896 -123.883514 552.0
-135.74307 -124.10794 553.0
-132.58006 -124.78123 556.0
-129.83784 -125.90335 561.0
-167.97636 -128.91206 557.0
-168.78288 -132.61511 573.0
-164.76425 -132.61511 573.0
-156.25706 -128.91206 557.0
-153.44473 -129.83783 561.0
-150.30978 -130.53215 564.0
-142.46184 -127.060555 549.0
-138.61151 -127.060555 549.0
-135.25214 -127.52344 551.0
-132.10316 -128.21776 554.0
-129.37497 -129.37495 559.0
-123.05595 -130.99504 566.0
-119.5072 -131.4579 568.0
-115.72703 -131.68935 569.0
-176.79211 -130.67244 548.0
-173.8956 -131.3878 551.0
-170.64842 -131.8647 553.0
-167.07164 -132.10315 554.0
-163.18623 -132.10315 554.0
-159.30086 -132.10315 554.0
-155.696 -132.34161 555.0
-151.8036 -132.34161 555.0
-143.9136 -128.76482 540.0
-140.3859 -129.00327 541.0
-137.09663 -129.48018 543.0
-133.77934 -129.95708 545.0
-131.14934 -131.14934 550.0
-128.9121 -132.81851 557.0
-125.454506 -133.29543 559.0
-122.186295 -134.01079 562.0
-118.87601 -134.72614 565.0
-115.320244 -135.20305 567.0
-111.736435 -135.67996 569.0
-184.47874 -134.51575 548.0
-180.30579 -134.27026 547.0
-176.79211 -134.51575 548.0
-173.58 -135.00667 550.0
-170.03127 -135.25214 551.0
-166.16692 -135.25214 551.0
-162.59712 -135.49762 552.0
-159.01332 -135.74307 553.0
-155.41547 -135.98854 554.0
-151.53009 -135.98854 554.0
-143.3806 -132.06107 538.0
-139.86691 -132.30655 539.0
-136.3392 -132.55202 540.0
-133.53387 -133.53387 544.0
-131.14934 -135.00667 550.0
-127.986336 -135.74307 553.0
-124.55679 -136.23401 555.0
-121.09923 -136.72495 557.0
-117.824005 -137.46135 560.0
-114.50671 -138.19774 563.0
-111.54007 -139.42506 568.0
-108.12456 -140.16147 571.0
-187.29108 -137.6016 545.0
-183.46881 -137.6016 545.0
-179.97617 -137.85408 546.0
-176.14688 -137.85408 546.0
-172.63321 -138.10657 547.0
-169.4141 -138.61153 549.0
-165.86534 -138.864 550.0
-162.00801 -138.864 550.0
-158.4382 -139.11649 551.0
-155.13493 -139.62144 553.0
-151.53009 -139.87393 554.0
-142.31458 -134.82433 534.0
-139.08842 -135.32928 536.0
-135.83424 -135.83424 538.0
-132.552 -136.3392 540.0
-130.67244 -138.35905 548.0
-127.292015 -138.864 550.0
-123.659096 -139.11649 551.0
-120.229576 -139.62144 553.0
-116.98241 -140.37888 556.0
-114.09992 -141.64128 561.0
-110.75457 -142.39873 564.0
-107.74584 -143.66113 569.0
-190.412 -140.90488 543.0
-186.60376 -140.90488 543.0
-182.79553 -140.90488 543.0
-178.98727 -140.90488 543.0
-175.50165 -141.16438 544.0
-172.31761 -141.68336 546.0
-168.79692 -141.94286 547.0
-164.96063 -141.94286 547.0
-162.00801 -142.72133 550.0
-158.4382 -142.98082 551.0
-155.41547 -143.75931 554.0
-151.53009 -143.75931 554.0
-141.51505 -137.79097 531.0
-138.05045 -138.05046 532.0
-134.82433 -138.56944 534.0
-132.552 -140.1264 540.0
-129.95708 -141.42387 545.0
-126.36625 -141.68336 546.0
-122.76138 -141.94286 547.0
-119.79475 -142.98082 551.0
-116.56161 -143.75931 554.0
-113.89654 -145.31627 560.0
-110.558205 -146.09476 563.0
-194.22025 -144.71312 543.0
-189.36 -143.9136 540.0
-185.5728 -143.9136 540.0
-181.78561 -143.9136 540.0
-178.32803 -144.1801 541.0
-174.85643 -144.44661 542.0
-171.6864 -144.97963 544.0
-168.48834 -145.51263 546.0
-164.96063 -145.77914 547.0
-162.00801 -146.57867 550.0
-158.4382 -146.84518 551.0
-155.41547 -147.6447 554.0
-144.9656 -141.24854 530.0
-141.24855 -141.24854 530.0
-137.79095 -141.51503 531.0
-134.31937 -141.78154 532.0
-132.552 -143.9136 540.0
-128.7648 -143.9136 540.0
-125.44049 -144.44661 542.0
-122.536964 -145.51263 546.0
-119.14251 -146.04564 548.0
-116.1408 -147.11168 552.0
-112.67622 -147.6447 554.0
-110.95094 -150.57628 565.0
-192.43185 -147.15375 538.0
-188.30801 -146.88023 537.0
-184.54185 -146.88023 537.0
-181.11234 -147.15375 538.0
-177.66876 -147.42728 539.0
-174.21121 -147.7008 540.0
-171.3708 -148.52135 543.0
-168.48834 -149.34192 546.0
-165.2622 -149.88895 548.0
-162.30257 -150.70952 551.0
-158.4382 -150.70952 551.0
-156.53761 -152.62415 558.0
-144.6921 -144.69206 529.0
-141.24855 -144.9656 530.0
-137.79095 -145.23912 531.0
-134.82433 -146.05968 534.0
-132.06107 -147.15375 538.0
-128.52635 -147.42728 539.0
-124.977615 -147.7008 540.0
-122.088104 -148.79488 544.0
-118.70768 -149.34192 546.0
-115.72 -150.436 550.0
-112.8796 -151.8036 555.0
-110.361824 -153.71823 562.0
-196.20502 -150.92693 538.0
-191.71648 -150.36586 536.0
-187.95734 -150.36586 536.0
-184.1982 -150.36586 536.0
-180.43906 -150.36586 536.0
-177.00952 -150.6464 537.0
-174.21121 -151.48799 540.0
-171.0552 -152.04906 542.0
-168.17973 -152.89066 545.0
-165.2622 -153.73225 548.0
-162.89168 -155.13493 553.0
-159.58841 -155.69598 555.0
-158.22081 -158.2208 564.0
-155.08585 -159.0624 567.0
-151.37581 -159.34293 568.0
-138.56944 -149.8048 534.0
-134.82433 -149.8048 534.0
-131.57014 -150.36586 536.0
-128.2879 -150.92693 538.0
-124.977615 -151.48799 540.0
-121.63925 -152.04906 542.0
-118.49027 -152.89066 545.0
-115.088806 -153.45174 547.0
-111.86267 -154.29333 550.0
-108.98721 -155.69598 555.0
-106.23096 -157.37918 561.0
-84.72107 -169.44212 604.0
-81.28454 -171.12534 610.0
-77.51137 -172.24745 614.0
-199.60649 -154.41255 537.0
-195.11095 -153.83746 535.0
-191.00111 -153.54991 534.0
-187.25601 -153.54991 534.0
-183.5109 -153.54991 534.0
-180.1024 -153.83746 535.0
-176.6799 -154.125 536.0
-173.56598 -154.70009 538.0
-170.42401 -155.27519 540.0
-167.56256 -156.13782 543.0
-164.65904 -157.00047 546.0
-161.71342 -157.8631 549.0
-159.30086 -159.30084 554.0
-158.50134 -162.46385 565.0
-155.08585 -163.03896 567.0
-151.64232 -163.61403 569.0
-138.05045 -152.97481 532.0
-134.57184 -153.26236 533.0
-131.07921 -153.54991 534.0
-128.04945 -154.41255 537.0
-124.977615 -155.27519 540.0
-121.1904 -155.27519 540.0
-116.75096 -154.41255 537.0
-114.036804 -155.85028 542.0
-111.049126 -157.00047 546.0
-108.00535 -158.15067 550.0
-92.730286 -172.81552 601.0
-88.80984 -173.39062 603.0
-84.72107 -173.67818 604.0
-81.018036 -174.82837 608.0
-76.880165 -175.1159 609.0
-198.49138 -157.29504 534.0
-194.38155 -157.00049 533.0
-190.28577 -156.70593 532.0
-186.55467 -156.70593 532.0
-183.16724 -157.00049 533.0
-179.76578 -157.29504 534.0
-176.02063 -157.29504 534.0
-173.56598 -158.4733 538.0
-170.42401 -159.06241 540.0
-167.56256 -159.94609 543.0
-164.65904 -160.82976 546.0
-162.00801 -162.00801 550.0
-162.46387 -166.4264 565.0
-158.50134 -166.4264 565.0
-155.08585 -167.01553 567.0
-151.64232 -167.60464 569.0
-137.53146 -156.1168 530.0
-133.8144 -156.1168 530.0
-130.83374 -157.00049 533.0
-127.095634 -157.00049 533.0
-121.968895 -155.23312 527.0
-118.27285 -155.23312 527.0
-116.31614 -157.58961 535.0
-113.195206 -158.4733 538.0
-110.43897 -159.94609 543.0
-107.41622 -161.12433 547.0
-104.148 -174.96864 594.0
-100.150406 -175.26321 595.0
-96.30009 -175.85233 597.0
-92.576 -176.73601 600.0
-88.51528 -177.03058 601.0
-84.5808 -177.61969 603.0
-80.751526 -178.50337 606.0
-76.75394 -179.0925 608.0
-206.75307 -161.64333 536.0
-202.2365 -161.04016 534.0
-197.74796 -160.43703 532.0
-193.28748 -159.83388 530.0
-189.5704 -159.83388 530.0
-185.85333 -159.83388 530.0
-182.82358 -160.43703 532.0
-179.0925 -160.43703 532.0
-176.02063 -161.04016 534.0
-173.56598 -162.24646 538.0
-170.42401 -162.84961 540.0
-167.56256 -163.75433 543.0
-164.96063 -164.96062 547.0
-165.54272 -169.48422 562.0
-161.88878 -169.78578 563.0
-158.50134 -170.38895 565.0
-155.35936 -171.29366 568.0
-151.37581 -171.29366 568.0
-137.27197 -159.53229 529.0
-133.56192 -159.53229 529.0
-130.83374 -160.73859 533.0
-124.23419 -157.11972 521.0
-120.81169 -157.42128 522.0
-117.824 -158.32602 525.0
-115.01165 -159.53229 529.0
-112.564 -161.34174 535.0
-109.828804 -162.84961 540.0
-107.94923 -178.53142 592.0
-103.97267 -178.833 593.0
-99.98209 -179.13457 594.0
-96.30009 -180.03928 597.0
-92.2674 -180.34087 598.0
-88.368004 -180.94402 600.0
-84.44054 -181.54715 602.0
-80.751526 -182.75345 606.0
-206.75307 -165.40247 536.0
-201.47905 -164.1681 532.0
-197.00455 -163.55095 530.0
-192.92276 -163.24236 529.0
-189.21272 -163.24236 529.0
-185.50267 -163.24236 529.0
-182.13628 -163.55095 530.0
-179.0925 -164.1681 532.0
-176.02063 -164.78528 534.0
-172.92075 -165.40247 536.0
-170.42401 -166.6368 540.0
-167.87115 -167.87115 544.0
-164.96063 -168.7969 547.0
-165.24817 -173.11711 561.0
-161.60123 -173.4257 562.0
-158.50134 -174.35147 565.0
-155.08585 -174.96864 567.0
-151.37581 -175.27724 568.0
-147.39221 -175.27724 568.0
-143.15616 -174.96864 567.0
-139.17961 -174.96864 567.0
-124.23419 -160.77367 521.0
-120.580246 -160.77367 521.0
-117.15072 -161.08224 522.0
-115.01165 -163.24236 529.0
-112.1432 -164.4767 533.0
-110.7756 -180.5232 585.0
-107.21984 -181.44896 588.0
-103.622 -182.37473 591.0
-99.64545 -182.6833 592.0
-95.97748 -183.60907 595.0
-92.11311 -184.22624 597.0
-88.22072 -184.84341 599.0
-84.30027 -185.46059 601.0
-209.72672 -168.5304 534.0
-205.98161 -168.5304 534.0
-200.7216 -167.268 530.0
-196.63284 -166.9524 529.0
-192.55807 -166.6368 528.0
-189.21272 -166.9524 529.0
-185.50267 -166.9524 529.0
-181.79263 -166.9524 529.0
-178.75584 -167.5836 531.0
-176.02063 -168.5304 534.0
-172.92075 -169.1616 536.0
-170.42401 -170.424 540.0
-167.87115 -171.6864 544.0
-164.96063 -172.6332 547.0
-164.95361 -176.73601 560.0
-161.60123 -177.3672 562.0
-158.50134 -178.314 565.0
-154.5388 -178.314 565.0
-150.84279 -178.6296 566.0
-146.87323 -178.6296 566.0
-143.15616 -178.9452 567.0
-139.17961 -178.9452 567.0
-124.23419 -164.4276 521.0
-120.580246 -164.4276 521.0
-117.15072 -164.7432 522.0
-115.01165 -166.9524 529.0
-111.512 -167.268 530.0
-117.96427 -183.048 580.0
-114.28929 -183.6792 582.0
-110.7756 -184.626 585.0
-107.03749 -185.2572 587.0
-103.27134 -185.8884 589.0
-99.64545 -186.8352 592.0
-95.81617 -187.4664 594.0
-91.95882 -188.0976 596.0
-88.22072 -189.0444 599.0
-214.67113 -173.24335 537.0
-209.72672 -172.27551 534.0
-205.59587 -171.95291 533.0
-200.3429 -170.66245 529.0
-196.26114 -170.33983 528.0
-192.55807 -170.33983 528.0
-188.85506 -170.33983 528.0
-185.50267 -170.66245 529.0
-181.79263 -170.66245 529.0
-178.75584 -171.30768 531.0
-176.02063 -172.27551 534.0
-173.24336 -173.24335 537.0
-170.42401 -174.2112 540.0
-168.17973 -175.82426 545.0
-167.3732 -179.0504 555.0
-164.36447 -180.01823 558.0
-161.31367 -180.98608 561.0
-157.65974 -181.3087 562.0
-153.99176 -181.6313 563.0
-150.30978 -181.95392 564.0
-146.61374 -182.27654 565.0
-142.6512 -182.27654 565.0
-138.68867 -182.27654 565.0
-134.72614 -182.27654 565.0
-131.68938 -183.56699 569.0
-127.923195 -183.8896 570.0
-124.36043 -184.53482 572.0
-121.611206 -186.4705 578.0
-117.760895 -186.79312 579.0
-114.092926 -187.43834 581.0
-110.58624 -188.40619 584.0
-107.03749 -189.37402 587.0
-103.27134 -190.01924 589.0
-99.64545 -190.98709 592.0
-219.25085 -177.66876 539.0
-213.47183 -176.02063 534.0
-209.33398 -175.69101 533.0
-204.8244 -175.03175 531.0
-200.3429 -174.37251 529.0
-196.26114 -174.04288 528.0
-192.55807 -174.04288 528.0
-188.85506 -174.04288 528.0
-185.15201 -174.04288 528.0
-181.79263 -174.37251 529.0
-178.75584 -175.03175 531.0
-176.02063 -176.02063 534.0
-173.56598 -177.33914 538.0
-171.0552 -178.65765 542.0
-168.79692 -180.30577 547.0
-166.77007 -182.28354 553.0
-163.4808 -182.9428 555.0
-160.1635 -183.60205 557.0
-157.09868 -184.59093 560.0
-153.44473 -184.92055 561.0
-149.51025 -184.92055 561.0
-145.83525 -185.25018 562.0
-142.39871 -185.90944 564.0
-138.68867 -186.23906 565.0
-134.72614 -186.23906 565.0
-131.22649 -186.89832 567.0
-127.69878 -187.55757 569.0
-124.36043 -188.54645 572.0
-120.98 -189.53532 575.0
-117.760895 -190.85384 579.0
-114.28929 -191.84271 582.0
-110.58624 -192.50197 584.0
-107.21984 -193.82047 588.0
-249.89911 -176.39935 524.0
-246.69402 -176.736 525.0
-243.47488 -177.07263 526.0
-240.24174 -177.40927 527.0
-236.54572 -177.40927 527.0
-233.0671 -180.43904 536.0
-230.59138 -181.44896 539.0
-221.78967 -180.43904 536.0
-217.21698 -179.76575 534.0
-213.07208 -179.42911 533.0
-208.94124 -179.09247 532.0
-204.43867 -178.41919 530.0
-200.3429 -178.08255 529.0
-195.88943 -177.40927 527.0
-192.19339 -177.40927 527.0
-188.49736 -177.40927 527.0
-185.15201 -177.74591 528.0
-181.79263 -178.08255 529.0
-179.0925 -179.09247 532.0
-176.02063 -179.76575 534.0
-173.56598 -181.1123 538.0
-171.3708 -182.7955 543.0
-169.4141 -184.81535 549.0
-166.77007 -186.16191 553.0
-163.18623 -186.49855 554.0
-159.58841 -186.83519 555.0
-156.53761 -187.84511 558.0
-152.62416 -187.84511 558.0
-148.97725 -188.18175 559.0
-145.57576 -188.85504 561.0
-141.89377 -189.19167 562.0
-138.4432 -189.86496 564.0
-134.72614 -190.20158 565.0
-131.22649 -190.87486 567.0
-127.47434 -191.2115 568.0
-124.36043 -192.55807 572.0
-120.98 -193.568 575.0
-117.760895 -194.91455 579.0
-264.59903 -180.07436 524.0
-260.42612 -179.73071 523.0
-255.77628 -179.0434 521.0
-252.12234 -179.0434 521.0
-248.46838 -179.0434 521.0
-244.81444 -179.0434 521.0
-241.62337 -179.38705 522.0
-239.33 -180.41801 525.0
-236.54572 -181.10532 527.0
-236.82625 -184.1982 536.0
-233.0671 -184.1982 536.0
-229.30794 -184.1982 536.0
-225.54881 -184.1982 536.0
-220.9621 -183.5109 534.0
-216.40343 -182.8236 532.0
-212.27257 -182.47993 531.0
-208.54848 -182.47993 531.0
-204.43867 -182.13629 530.0
-200.3429 -181.79262 529.0
-196.26114 -181.44897 528.0
-192.19339 -181.10532 527.0
-188.49736 -181.10532 527.0
-185.50267 -181.79262 529.0
-182.13628 -182.13629 530.0
-179.42914 -183.16724 533.0
-176.35027 -183.85454 535.0
-174.21121 -185.57281 540.0
-172.31761 -187.63474 546.0
-169.1055 -188.32204 548.0
-166.16692 -189.353 551.0
-162.59712 -189.69666 552.0
-159.30086 -190.38396 554.0
-155.41547 -190.38396 554.0
-151.8036 -190.72762 555.0
-148.44423 -191.41492 557.0
-144.79727 -191.75858 558.0
-141.64128 -192.78954 561.0
-138.19774 -193.47684 563.0
-134.72614 -194.16414 565.0
-130.99504 -194.5078 566.0
-127.69878 -195.53877 569.0
-124.36043 -196.56972 572.0
-120.98 -197.60068 575.0
-277.202 -184.80135 527.0
-273.50598 -184.80135 527.0
-270.83392 -185.50267 529.0
-262.57922 -182.34666 520.0
-258.93228 -182.34666 520.0
-254.7944 -181.99602 519.0
-250.67056 -181.64534 518.0
-247.03767 -181.64534 518.0
-242.93486 -181.29468 517.0
-239.30896 -181.29468 517.0
-237.9624 -183.04802 522.0
-236.54572 -184.80135 527.0
-235.94258 -187.25601 534.0
-232.19743 -187.25601 534.0
-228.45232 -187.25601 534.0
-224.2864 -186.90533 533.0
-219.72073 -186.20401 531.0
-215.58987 -185.85335 530.0
-211.8728 -185.85335 530.0
-208.15575 -185.85335 530.0
-204.05295 -185.50267 529.0
-200.3429 -185.50267 529.0
-196.26114 -185.15201 528.0
-192.55807 -185.15201 528.0
-188.85506 -185.15201 528.0
-185.50267 -185.50267 529.0
-182.47993 -186.20401 531.0
-179.42914 -186.90533 533.0
-177.00952 -188.30801 537.0
-174.53381 -189.71068 541.0
-172.31761 -191.46402 546.0
-168.79692 -191.81467 547.0
-165.2622 -192.16534 548.0
-162.00801 -192.86667 550.0
-158.4382 -193.21735 551.0
-155.41547 -194.26935 554.0
-151.53009 -194.26935 554.0
-147.64471 -194.26935 554.0
-144.27829 -194.97067 556.0
-140.88383 -195.67201 558.0
-137.95227 -197.07468 562.0
-134.48769 -197.77602 564.0
-130.76361 -198.12668 565.0
-127.69878 -199.52934 569.0
-275.5679 -184.92056 517.0
-272.46802 -185.27824 518.0
-268.31613 -184.92056 517.0
-264.69022 -184.92056 517.0
-261.06433 -184.92056 517.0
-257.43845 -184.92056 517.0
-253.32161 -184.56288 516.0
-248.25096 -183.48985 513.0
-243.69933 -182.77449 511.0
-240.58539 -183.13217 512.0
-237.92032 -183.84753 514.0
-234.31548 -183.84753 514.0
-238.78998 -190.28577 532.0
-235.0589 -190.28577 532.0
-231.76262 -190.64345 533.0
-227.16888 -189.92809 531.0
-222.60321 -189.21274 529.0
-218.89316 -189.21274 529.0
-215.18312 -189.21274 529.0
-211.47304 -189.21274 529.0
-207.76299 -189.21274 529.0
-204.05295 -189.21274 529.0
-199.58545 -188.49736 527.0
-195.88943 -188.49736 527.0
-192.55807 -188.85504 528.0
-189.21272 -189.21274 529.0
-185.50267 -189.21274 529.0
-182.47993 -189.92809 531.0
-179.76578 -191.00113 534.0
-177.00952 -192.07416 537.0
-174.53381 -193.50488 541.0
-171.6864 -194.57793 544.0
-168.48834 -195.29329 546.0
-164.65904 -195.29329 546.0
-161.41887 -196.00865 548.0
-158.15067 -196.724 550.0
-154.57387 -197.08168 551.0
-150.98305 -197.43936 552.0
-147.64471 -198.15472 554.0
-144.0188 -198.5124 555.0
-140.63136 -199.22777 557.0
-137.46133 -200.3008 560.0
-134.24924 -201.37384 563.0
-282.27264 -188.18176 516.0
-277.5737 -187.45238 514.0
-273.96884 -187.45238 514.0
-270.89 -187.81708 515.0
-267.79715 -188.18176 516.0
-263.15433 -187.45238 514.0
-259.54944 -187.45238 514.0
-255.9446 -187.45238 514.0
-249.88507 -185.6289 509.0
-246.79921 -185.9936 510.0
-243.22241 -185.9936 510.0
-239.1757 -185.6289 509.0
-236.53168 -186.35829 511.0
-232.94788 -186.35829 511.0
-237.44344 -192.92278 529.0
-233.73338 -192.92278 529.0
-230.45815 -193.28748 530.0
-226.31325 -192.92278 529.0
-222.60321 -192.92278 529.0
-218.89316 -192.92278 529.0
-214.77634 -192.55809 528.0
-210.67352 -192.19339 527.0
-206.9775 -192.19339 527.0
-203.28148 -192.19339 527.0
-199.58545 -192.19339 527.0
-195.51772 -191.82869 526.0
-192.19339 -192.19339 527.0
-189.21272 -192.92278 529.0
-185.50267 -192.92278 529.0
-182.47993 -193.65216 531.0
-179.76578 -194.74625 534.0
-177.00952 -195.84032 537.0
-174.21121 -196.9344 540.0
-171.3708 -198.02849 543.0
-167.87115 -198.39317 544.0
-164.35747 -198.75787 545.0
-160.82976 -199.12256 546.0
-157.57558 -199.85196 548.0
-154.29333 -200.58133 550.0
-150.70953 -200.94603 551.0
-147.1117 -201.31071 552.0
-144.0188 -202.4048 555.0
-140.88383 -203.49889 558.0
-137.46133 -204.22827 560.0
-278.4434 -189.1987 509.0
-275.95364 -189.94211 511.0
-272.3698 -189.94211 511.0
-268.786 -189.94211 511.0
-265.2022 -189.94211 511.0
-258.03458 -187.34015 504.0
-254.49983 -187.34015 504.0
-251.46307 -187.71187 505.0
-248.41228 -188.08357 506.0
-244.86354 -188.08357 506.0
-241.7917 -188.45528 507.0
-238.23592 -188.45528 507.0
-235.60593 -189.1987 509.0
-232.94788 -189.94211 511.0
-237.44344 -196.63283 529.0
-233.73338 -196.63283 529.0
-229.58849 -196.26112 528.0
-225.45763 -195.8894 527.0
-221.76161 -195.8894 527.0
-218.06558 -195.8894 527.0
-214.36957 -195.8894 527.0
-210.27376 -195.5177 526.0
-206.58475 -195.5177 526.0
-202.89574 -195.5177 526.0
-199.20674 -195.5177 526.0
-195.88943 -195.8894 527.0
-192.19339 -195.8894 527.0
-189.21272 -196.63283 529.0
-185.85333 -197.00453 530.0
-183.16724 -198.11964 533.0
-179.76578 -198.49135 534.0
-177.00952 -199.60648 537.0
-174.21121 -200.7216 540.0
-170.73961 -201.0933 541.0
-167.56256 -201.83672 543.0
-164.05591 -202.20842 544.0
-160.82976 -202.95183 546.0
-157.00047 -202.95183 546.0
-154.0128 -204.06696 549.0
-150.436 -204.43867 550.0
-147.1117 -205.18208 552.0
-144.0188 -206.2972 555.0
-140.88383 -207.41232 558.0
-277.3493 -192.01103 507.0
-273.79352 -192.01103 507.0
-268.63873 -190.87486 504.0
-265.104 -190.87486 504.0
-261.5693 -190.87486 504.0
-258.03458 -190.87486 504.0
-254.49983 -190.87486 504.0
-250.96512 -190.87486 504.0
-247.92134 -191.2536 505.0
-244.37961 -191.2536 505.0
-240.83788 -191.2536 505.0
-238.23592 -192.01103 507.0
-235.60593 -192.76846 509.0
-232.94788 -193.52592 511.0
-229.36407 -193.52592 511.0
-232.40785 -199.20671 526.0
-228.71883 -199.20671 526.0
-225.02982 -199.20671 526.0
-220.92001 -198.828 525.0
-217.238 -198.828 525.0
-213.55602 -198.828 525.0
-209.87401 -198.828 525.0
-206.58475 -199.20671 526.0
-202.89574 -199.20671 526.0
-199.20674 -199.20671 526.0
-195.88943 -199.58543 527.0
-192.55807 -199.96416 528.0
-189.21272 -200.34286 529.0
-186.20401 -201.10031 531.0
-183.16724 -201.85776 533.0
-179.76578 -202.23647 534.0
-177.00952 -203.37263 537.0
-173.88858 -204.13007 539.0
-170.42401 -204.5088 540.0
-167.25398 -205.26624 542.0
-163.75433 -205.64496 543.0
-160.5352 -206.4024 545.0
-157.00047 -206.78111 546.0
-153.45174 -207.15984 547.0
-150.436 -208.296 550.0
-147.1117 -209.05344 552.0
-144.53778 -210.94704 557.0
-273.52002 -192.86665 500.0
-271.09338 -193.63812 502.0
-267.03967 -193.25238 501.0
-263.526 -193.25238 501.0
-260.5313 -193.63812 502.0
-257.01062 -193.63812 502.0
-253.48993 -193.63812 502.0
-250.46718 -194.02386 503.0
-247.4304 -194.40959 504.0
-243.41176 -194.02386 503.0
-239.40717 -193.63812 502.0
-235.88646 -193.63812 502.0
-232.36577 -193.63812 502.0
-231.1244 -195.56679 507.0
-228.46635 -196.33826 509.0
-230.64049 -201.35278 522.0
-227.41434 -201.73853 523.0
-223.74638 -201.73853 523.0
-220.07841 -201.73853 523.0
-216.82423 -202.12425 524.0
-213.55602 -202.51 525.0
-209.87401 -202.51 525.0
-206.9775 -203.28146 527.0
-203.28148 -203.28146 527.0
-199.96416 -203.66719 528.0
-196.63284 -204.05293 529.0
-193.28748 -204.43866 530.0
-189.92807 -204.82439 531.0
-186.90533 -205.59586 533.0
-183.5109 -205.98158 534.0
-179.76578 -205.98158 534.0
-176.6799 -206.75305 536.0
-173.56598 -207.52454 538.0
-170.42401 -208.29599 540.0
-166.63681 -208.29599 540.0
-163.45276 -209.06746 542.0
-160.24063 -209.83893 544.0
-157.00047 -210.61038 546.0
-153.45174 -210.99612 547.0
-271.33185 -194.80234 496.0
-268.9333 -195.58783 498.0
-265.97366 -195.98058 499.0
-262.474 -195.98058 499.0
-259.49335 -196.37332 500.0
-257.01062 -197.15881 502.0
-253.48993 -197.15881 502.0
-248.97334 -196.37332 500.0
-244.97574 -195.98058 499.0
-241.47609 -195.98058 499.0
-237.97646 -195.98058 499.0
-234.47676 -195.98058 499.0
-231.44 -196.37332 500.0
-228.84508 -197.15881 502.0
-233.8526 -204.621 521.0
-230.19865 -204.621 521.0
-226.5447 -204.621 521.0
-223.31856 -205.01375 522.0
-220.07841 -205.4065 523.0
-216.82423 -205.79924 524.0
-213.55602 -206.19199 525.0
-210.27376 -206.58475 526.0
-207.37025 -207.37022 528.0
-204.05295 -207.76297 529.0
-200.3429 -207.76297 529.0
-197.37625 -208.54848 531.0
-194.01686 -208.94121 532.0
-190.28577 -208.94121 532.0
-186.90533 -209.33397 533.0
-183.5109 -209.7267 534.0
-179.76578 -209.7267 534.0
-176.6799 -210.51219 536.0
-173.56598 -211.2977 538.0
-170.42401 -212.08319 540.0
-166.63681 -212.08319 540.0
-163.75433 -213.26143 543.0
-160.24063 -213.65417 544.0
-157.00047 -214.43967 546.0
-270.78482 -197.88121 495.0
-267.85324 -198.28096 496.0
-265.44064 -199.08049 498.0
-261.422 -198.68073 497.0
-257.9364 -198.68073 497.0
-253.93878 -198.28096 496.0
-250.46016 -198.28096 496.0
-246.98155 -198.28096 496.0
-243.50294 -198.28096 496.0
-240.02434 -198.28096 496.0
-237.02263 -198.68073 497.0
-233.53699 -198.68073 497.0
-230.97713 -199.48026 499.0
-227.93333 -199.88002 500.0
-233.40375 -207.87521 520.0
-229.7568 -207.87521 520.0
-226.5447 -208.27496 521.0
-223.74638 -209.0745 523.0
-220.4992 -209.47424 524.0
-217.238 -209.87401 525.0
-214.36957 -210.67352 527.0
-211.07327 -211.0733 528.0
-207.76299 -211.47305 529.0
-204.43867 -211.87282 530.0
-201.47905 -212.67233 532.0
-198.11967 -213.0721 533.0
-194.38155 -213.0721 533.0
-190.64345 -213.0721 533.0
-187.25601 -213.47185 534.0
-183.5109 -213.47185 534.0
-180.1024 -213.87161 535.0
-176.6799 -214.27136 536.0
-173.56598 -215.07089 538.0
-170.42401 -215.8704 540.0
-167.25398 -216.66994 542.0
-163.75433 -217.0697 543.0
-160.82976 -218.26897 546.0
-269.69073 -200.53926 493.0
-266.23315 -200.53926 493.0
-263.3086 -200.94603 494.0
-259.31802 -200.53926 493.0
-256.37943 -200.94603 494.0
-252.91486 -200.94603 494.0
-249.45024 -200.94603 494.0
-245.98566 -200.94603 494.0
-243.50294 -201.75958 496.0
-240.02434 -201.75958 496.0
-236.54572 -201.75958 496.0
-233.0671 -201.75958 496.0
-229.58849 -201.75958 496.0
-227.0216 -202.57314 498.0
-223.97783 -202.97989 499.0
-230.64049 -212.33568 522.0
-227.41434 -212.74246 523.0
-224.1742 -213.14923 524.0
-221.3408 -213.96278 526.0
-218.06558 -214.36955 527.0
-214.77634 -214.77634 528.0
-211.47304 -215.18309 529.0
-208.15575 -215.58989 530.0
-205.21014 -216.40341 532.0
-201.85776 -216.8102 533.0
-198.11967 -216.8102 533.0
-194.74623 -217.21696 534.0
-191.00111 -217.21696 534.0
-187.25601 -217.21696 534.0
-183.5109 -217.21696 534.0
-180.1024 -217.62375 535.0
-177.00952 -218.4373 537.0
-173.88858 -219.25082 539.0
-170.73961 -220.06438 541.0
-167.56256 -220.87793 543.0
-267.5026 -202.34169 489.0
-264.07303 -202.34169 489.0
-260.64352 -202.34169 489.0
-257.21402 -202.34169 489.0
-254.82248 -203.16927 491.0
-251.37892 -203.16927 491.0
-248.44032 -203.58305 492.0
-245.98566 -204.41061 494.0
-242.52107 -204.41061 494.0
-239.5404 -204.8244 495.0
-236.0688 -204.8244 495.0
-233.0671 -205.23819 496.0
-229.58849 -205.23819 496.0
-226.10988 -205.23819 496.0
-223.97783 -206.47955 499.0
-230.19865 -215.58284 521.0
-227.41434 -216.41043 523.0
-224.1742 -216.82422 524.0
-221.3408 -217.6518 526.0
-217.65181 -217.6518 526.0
-214.77634 -218.47937 528.0
-211.8728 -219.30695 530.0
-208.54848 -219.72073 531.0
-205.59587 -220.54831 533.0
-202.2365 -220.9621 534.0
-198.49138 -220.9621 534.0
-194.74623 -220.9621 534.0
-191.00111 -220.9621 534.0
-187.25601 -220.9621 534.0
-183.85454 -221.37585 535.0
-180.43906 -221.78964 536.0
-177.33914 -222.61722 538.0
-174.21121 -223.4448 540.0

