ply
format ascii 1.0
comment made by @arthurmuchir
element vertex 37
property float x
property float y
property float z
end_header
-283.36673 -214.43967 546.0
-280.04944 -214.83241 547.0
-276.71808 -215.22516 548.0
-272.8748 -215.22516 548.0
-269.5224 -215.6179 549.0
-266.156 -216.01067 550.0
-289.99432 -214.67113 537.0
-287.2942 -215.47066 539.0
-284.04 -215.8704 540.0
-280.77182 -216.27017 541.0
-278.00153 -217.0697 543.0
-275.20322 -217.8692 545.0
-271.87888 -218.26897 546.0
-268.54056 -218.66873 547.0
-265.18817 -219.0685 548.0
-262.29868 -219.868 550.0
-292.1194 -217.21696 534.0
-288.91428 -217.62375 535.0
-285.69516 -218.03052 536.0
-282.988 -218.84407 538.0
-280.2528 -219.6576 540.0
-276.4656 -219.6576 540.0
-273.68832 -220.47116 542.0
-270.38504 -220.87793 543.0
-267.5587 -221.69148 545.0
-264.70425 -222.505 547.0
-260.86795 -222.505 547.0
-289.9312 -219.30695 530.0
-287.83423 -220.54831 533.0
-284.62912 -220.9621 534.0
-281.41 -221.37585 535.0
-278.17688 -221.78964 536.0
-274.9297 -222.20343 537.0
-272.6784 -223.4448 540.0
-269.38916 -223.85858 541.0
-266.5768 -224.68617 543.0
-264.22034 -225.92754 546.0

