ply
format ascii 1.0
comment made by @arthurmuchir
element vertex 38
property float x
property float y
property float z
end_header
-254.72427 -324.77347 908.0
-248.90321 -325.4888 910.0
-243.3206 -326.56186 913.0
-237.43639 -327.2772 915.0
-253.32161 -329.31808 903.0
-246.98859 -329.31808 903.0
-237.45746 -324.94177 891.0
-259.07956 -334.90768 901.0
-251.35788 -333.04916 896.0
-243.70634 -331.19064 891.0
-296.00473 -340.09055 898.0
-289.70676 -340.09055 898.0
-285.93362 -343.1203 906.0
-280.19672 -343.87775 908.0
-258.2169 -340.09055 898.0
-250.79681 -338.57568 894.0
-296.00473 -346.38852 898.0
-289.06155 -345.61707 896.0
-282.14642 -344.84558 894.0
-273.22546 -349.47437 906.0
-258.93228 -356.03186 923.0
-251.09138 -354.10318 918.0
-296.00473 -352.6865 898.0
-289.06155 -351.901 896.0
-275.93964 -359.3632 915.0
-270.40607 -360.5414 918.0
-258.93228 -362.50516 923.0
-251.63841 -361.3269 920.0
-275.4136 -373.77563 935.0
-266.8433 -370.9773 928.0
-262.29868 -373.77563 935.0
-255.19418 -372.9761 933.0
-279.2429 -385.62112 948.0
-271.1565 -383.58728 943.0
-263.1403 -381.55338 938.0
-270.29388 -388.95947 940.0
-267.6288 -394.7525 954.0
-266.682 -403.442 975.0

