ply
format ascii 1.0
comment made by @arthurmuchir
element vertex 965
property float x
property float y
property float z
end_header
-130.76361 -118.876 565.0
-151.37581 -123.49076 568.0
-146.61374 -122.83853 565.0
-142.6512 -122.83853 565.0
-138.19774 -122.40371 563.0
-134.01079 -122.186295 562.0
-130.30074 -122.40371 563.0
-126.80106 -122.83853 565.0
-123.05595 -123.05594 566.0
-70.2245 -128.05644 589.0
-155.9064 -127.92319 570.0
-150.84279 -127.02548 566.0
-146.61374 -126.801056 565.0
-142.14624 -126.35221 563.0
-135.74307 -124.10794 553.0
-132.10316 -124.33237 554.0
-128.9121 -125.005646 557.0
-126.35221 -126.35221 563.0
-122.83854 -126.801056 565.0
-74.22913 -131.96288 588.0
-70.10528 -131.96288 588.0
-66.09365 -132.18729 589.0
-62.173203 -132.63615 591.0
-168.78288 -132.61511 573.0
-163.90161 -131.92079 570.0
-159.62347 -131.68935 569.0
-155.35936 -131.4579 568.0
-150.84279 -130.99504 566.0
-146.61374 -130.76358 565.0
-139.11649 -127.52344 551.0
-135.4976 -127.75487 552.0
-132.10316 -128.21776 554.0
-128.21777 -128.21776 554.0
-125.23007 -129.14351 558.0
-122.83854 -130.76358 565.0
-119.29681 -131.22647 567.0
-82.196266 -135.62383 586.0
-78.08646 -135.62383 586.0
-74.10289 -135.85527 587.0
-69.986046 -135.85527 587.0
-65.98144 -136.0867 588.0
-61.962803 -136.31815 589.0
-168.48831 -136.39532 572.0
-163.90161 -135.91841 570.0
-159.34294 -135.44151 568.0
-152.62416 -133.05698 558.0
-148.44423 -132.81851 557.0
-142.46184 -130.91089 549.0
-137.34912 -129.71863 544.0
-133.2884 -129.48018 543.0
-129.95708 -129.95708 545.0
-127.523445 -131.3878 551.0
-124.55679 -132.34161 555.0
-121.53405 -133.29543 559.0
-118.45521 -134.24924 563.0
-114.50671 -134.24924 563.0
-110.95094 -134.72614 565.0
-107.935196 -135.91841 570.0
-90.10731 -139.25676 584.0
-86.158806 -139.49521 585.0
-82.056 -139.49521 585.0
-77.9532 -139.49521 585.0
-73.85041 -139.49521 585.0
-69.86682 -139.73367 586.0
-65.869225 -139.97212 587.0
-61.962803 -140.44902 589.0
-181.29468 -135.00667 550.0
-177.43735 -135.00667 550.0
-174.21121 -135.49762 552.0
-170.33984 -135.49762 552.0
-166.16692 -135.25214 551.0
-162.59712 -135.49762 552.0
-159.01332 -135.74307 553.0
-155.41547 -135.98854 554.0
-151.53009 -135.98854 554.0
-147.64471 -135.98854 554.0
-144.0188 -136.23401 555.0
-135.83424 -132.06107 538.0
-132.552 -132.55202 540.0
-129.71863 -133.53387 544.0
-127.06057 -134.76122 549.0
-123.883514 -135.49762 552.0
-120.44698 -135.98854 554.0
-116.351204 -135.74307 553.0
-113.48977 -136.97041 558.0
-110.361824 -137.95227 562.0
-106.988396 -138.68867 565.0
-94.2031 -143.35254 584.0
-90.10731 -143.35254 584.0
-86.01151 -143.35254 584.0
-81.77547 -143.10707 583.0
-77.819954 -143.35254 584.0
-73.85041 -143.598 585.0
-69.86682 -143.84348 586.0
-65.869225 -144.08894 587.0
-183.80545 -137.85408 546.0
-180.30579 -138.10657 547.0
-176.4695 -138.10657 547.0
-172.9488 -138.35905 548.0
-169.1055 -138.35905 548.0
-165.56378 -138.61153 549.0
-162.00801 -138.864 550.0
-158.15067 -138.864 550.0
-154.57387 -139.11649 551.0
-150.70953 -139.11649 551.0
-147.1117 -139.36897 552.0
-138.05045 -134.31937 532.0
-134.82433 -134.82433 534.0
-132.06107 -135.83424 538.0
-129.00327 -136.59169 541.0
-125.903366 -137.34914 544.0
-123.210236 -138.61153 549.0
-119.14251 -138.35905 548.0
-115.509605 -138.61153 549.0
-111.86267 -138.864 550.0
-110.558205 -142.14624 563.0
-106.60967 -142.14624 563.0
-102.39467 -147.44833 584.0
-98.29889 -147.44833 584.0
-94.0418 -147.19585 583.0
-89.953 -147.19585 583.0
-85.71696 -146.94336 582.0
-81.77547 -147.19585 583.0
-77.819954 -147.44833 584.0
-73.976654 -147.95328 586.0
-70.10528 -148.45825 588.0
-187.63474 -141.68336 546.0
-183.46881 -141.42387 545.0
-179.64655 -141.42387 545.0
-175.82428 -141.42387 545.0
-172.31761 -141.68336 546.0
-168.48834 -141.68336 546.0
-164.96063 -141.94286 547.0
-161.41887 -142.20235 548.0
-158.15067 -142.72133 550.0
-154.29333 -142.72133 550.0
-150.436 -142.72133 550.0
-146.84518 -142.98082 551.0
-137.27197 -137.27197 529.0
-134.06688 -137.79097 531.0
-131.32468 -138.82893 535.0
-128.7648 -140.1264 540.0
-125.671936 -140.90488 543.0
-121.63925 -140.64539 542.0
-117.62061 -140.3859 541.0
-114.4576 -141.16438 544.0
-111.25252 -141.94286 547.0
-108.20171 -142.98082 551.0
-106.308105 -151.2846 583.0
-102.21934 -151.2846 583.0
-97.96225 -151.02512 582.0
-93.88049 -151.02512 582.0
-89.79871 -151.02512 582.0
-85.71696 -151.02512 582.0
-81.77547 -151.2846 583.0
-77.819954 -151.54411 584.0
-186.26012 -144.44661 542.0
-182.4589 -144.44661 542.0
-178.65765 -144.44661 542.0
-175.17905 -144.71312 543.0
-171.6864 -144.97963 544.0
-168.48834 -145.51263 546.0
-164.65904 -145.51263 546.0
-161.12431 -145.77914 547.0
-157.57558 -146.04564 548.0
-154.29333 -146.57867 550.0
-150.436 -146.57867 550.0
-140.18251 -140.18251 526.0
-136.4935 -140.18251 526.0
-133.56192 -140.98203 529.0
-130.83374 -142.04805 533.0
-119.84384 -142.31456 534.0
-116.53355 -142.84758 536.0
-113.616005 -143.9136 540.0
-111.049126 -145.51263 546.0
-107.41622 -145.77914 547.0
-110.01815 -154.84038 581.0
-105.94341 -154.84038 581.0
-101.86867 -154.84038 581.0
-97.96225 -155.10689 582.0
-93.88049 -155.10689 582.0
-89.79871 -155.10689 582.0
-85.864235 -155.37338 583.0
-81.91573 -155.6399 584.0
-189.71068 -147.97432 541.0
-185.5728 -147.7008 540.0
-181.78561 -147.7008 540.0
-177.99841 -147.7008 540.0
-174.21121 -147.7008 540.0
-171.0552 -148.24783 542.0
-168.17973 -149.0684 545.0
-164.65904 -149.34192 546.0
-160.82976 -149.34192 546.0
-157.28802 -149.61543 547.0
-154.0128 -150.16248 549.0
-150.70953 -150.70952 551.0
-139.91602 -143.598 525.0
-136.234 -143.598 525.0
-132.80449 -143.87152 526.0
-130.83374 -145.78615 533.0
-122.43177 -144.69206 529.0
-119.39498 -145.51263 532.0
-116.09872 -146.05968 534.0
-112.9848 -146.88023 537.0
-111.049126 -149.34192 546.0
-107.21985 -149.34192 546.0
-109.26072 -157.82103 577.0
-105.57872 -158.36807 579.0
-101.69334 -158.6416 580.0
-97.96225 -159.18863 582.0
-94.0418 -159.46216 583.0
-89.953 -159.46216 583.0
-192.43185 -150.92693 538.0
-189.00934 -151.20746 539.0
-184.8855 -150.92693 538.0
-180.7757 -150.6464 537.0
-177.33914 -150.92693 538.0
-174.21121 -151.48799 540.0
-170.42401 -151.48799 540.0
-167.56256 -152.32959 543.0
-164.65904 -153.17119 546.0
-161.12431 -153.45174 547.0
-157.57558 -153.73225 548.0
-154.8544 -154.85439 552.0
-151.25656 -155.13493 553.0
-150.57628 -158.50133 565.0
-136.234 -147.27998 525.0
-132.80449 -147.56053 526.0
-125.188 -147.27998 525.0
-121.73745 -147.56053 526.0
-118.49728 -148.12158 528.0
-115.663895 -149.24373 532.0
-112.35361 -149.8048 534.0
-113.30743 -161.86774 577.0
-109.45007 -162.14825 578.0
-105.76107 -162.70934 580.0
-101.86867 -162.98985 581.0
-98.13057 -163.55093 583.0
-195.84032 -154.41255 537.0
-191.71648 -154.125 536.0
-187.95734 -154.125 536.0
-183.5109 -153.54991 534.0
-180.1024 -153.83746 535.0
-176.6799 -154.125 536.0
-173.56598 -154.70009 538.0
-170.42401 -155.27519 540.0
-167.25398 -155.85028 542.0
-164.05591 -156.42537 544.0
-160.82976 -157.00047 546.0
-158.4382 -158.4382 551.0
-155.13493 -159.01329 553.0
-154.5388 -162.46385 565.0
-150.57628 -162.46385 565.0
-147.6517 -163.61403 569.0
-143.66112 -163.61403 569.0
-139.67053 -163.61403 569.0
-124.711105 -150.38689 523.0
-121.04314 -150.38689 523.0
-117.59957 -150.67445 524.0
-115.22907 -152.39972 530.0
-112.1432 -153.26236 533.0
-113.30743 -165.91441 577.0
-109.8288 -166.77705 580.0
-105.94341 -167.0646 581.0
-102.04401 -167.35216 582.0
-199.23479 -157.88417 536.0
-195.47563 -157.88417 536.0
-191.00111 -157.29504 534.0
-187.25601 -157.29504 534.0
-183.5109 -157.29504 534.0
-179.76578 -157.29504 534.0
-176.35027 -157.58961 535.0
-173.24336 -158.17873 537.0
-170.10841 -158.76785 539.0
-166.63681 -159.06241 540.0
-164.05591 -160.24065 544.0
-160.82976 -160.82976 546.0
-157.86311 -161.71346 549.0
-157.94028 -165.8373 563.0
-154.5388 -166.4264 565.0
-150.84279 -166.72096 566.0
-147.39221 -167.31009 568.0
-143.66112 -167.60464 569.0
-139.67053 -167.60464 569.0
-124.949554 -154.34944 524.0
-120.81169 -153.76033 522.0
-117.59957 -154.34944 524.0
-124.79525 -169.07745 574.0
-117.96427 -170.84482 580.0
-113.896545 -170.84482 580.0
-110.01815 -171.13937 581.0
-203.37265 -161.94489 537.0
-199.23479 -161.64333 536.0
-194.74623 -161.04016 534.0
-190.64345 -160.73859 533.0
-186.90533 -160.73859 533.0
-183.16724 -160.73859 533.0
-179.42914 -160.73859 533.0
-176.02063 -161.04016 534.0
-172.92075 -161.64333 536.0
-170.10841 -162.54803 539.0
-166.9454 -163.15118 541.0
-164.05591 -164.05591 544.0
-161.12431 -164.96062 547.0
-157.86311 -165.56377 549.0
-157.65974 -169.48422 562.0
-154.5388 -170.38895 565.0
-151.1093 -170.99208 567.0
-147.39221 -171.29366 568.0
-143.66112 -171.59523 569.0
-139.67053 -171.59523 569.0
-136.39531 -172.49995 572.0
-132.3837 -172.49995 572.0
-128.59648 -172.80153 573.0
-124.79525 -173.1031 574.0
-121.4008 -174.00783 577.0
-117.96427 -174.91254 580.0
-114.28929 -175.51569 582.0
-202.6152 -165.09387 535.0
-198.49138 -164.78528 534.0
-194.01686 -164.1681 532.0
-189.92807 -163.85951 531.0
-185.85333 -163.55095 530.0
-182.13628 -163.55095 530.0
-178.75584 -163.85951 531.0
-175.69101 -164.4767 533.0
-172.59814 -165.09387 535.0
-170.10841 -166.32822 539.0
-166.9454 -166.94539 541.0
-164.35747 -168.17975 545.0
-161.12431 -168.7969 547.0
-160.45105 -172.19136 558.0
-158.22081 -174.04288 564.0
-154.5388 -174.35147 565.0
-151.1093 -174.96864 567.0
-147.39221 -175.27724 568.0
-143.66112 -175.58582 569.0
-139.67053 -175.58582 569.0
-136.15686 -176.20299 571.0
-132.15225 -176.20299 571.0
-128.59648 -176.82016 573.0
-125.01267 -177.43735 575.0
-121.4008 -178.0545 577.0
-117.760895 -178.67168 579.0
-101.66529 -186.38635 604.0
-90.28264 -189.16364 613.0
-86.12373 -189.47221 614.0
-82.61707 -191.32375 620.0
-78.64753 -192.2495 623.0
-206.75307 -169.1616 536.0
-201.85776 -168.2148 533.0
-197.37625 -167.5836 531.0
-193.28748 -167.268 530.0
-189.21272 -166.9524 529.0
-185.50267 -166.9524 529.0
-181.79263 -166.9524 529.0
-178.4192 -167.268 530.0
-175.69101 -168.2148 533.0
-172.59814 -168.846 535.0
-169.7928 -169.7928 538.0
-166.9454 -170.7396 541.0
-164.65904 -172.3176 546.0
-161.12431 -172.6332 547.0
-160.73859 -176.4204 559.0
-158.22081 -177.9984 564.0
-154.5388 -178.314 565.0
-150.57628 -178.314 565.0
-146.87323 -178.6296 566.0
-143.40865 -179.2608 568.0
-139.67053 -179.5764 569.0
-135.91841 -179.892 570.0
-132.15225 -180.2076 571.0
-128.59648 -180.8388 573.0
-124.79525 -181.1544 574.0
-121.4008 -182.1012 577.0
-117.96427 -183.048 580.0
-115.07479 -184.9416 586.0
-112.10112 -186.8352 592.0
-107.94923 -186.8352 592.0
-105.02467 -189.0444 599.0
-101.160324 -189.6756 601.0
-97.42924 -190.6224 604.0
-93.65605 -191.5692 607.0
-89.98808 -192.8316 611.0
-85.98347 -193.4628 613.0
-82.35057 -195.0408 618.0
-78.521286 -196.3032 622.0
-205.98161 -172.27551 534.0
-201.47905 -171.6303 532.0
-197.00455 -170.98506 530.0
-192.92276 -170.66245 529.0
-189.21272 -170.66245 529.0
-185.50267 -170.66245 529.0
-181.79263 -170.66245 529.0
-178.4192 -170.98506 530.0
-175.69101 -171.95291 533.0
-172.92075 -172.92075 536.0
-170.10841 -173.8886 539.0
-167.25398 -174.85643 542.0
-164.35747 -175.82426 545.0
-164.06992 -179.69562 557.0
-160.73859 -180.34085 559.0
-157.65974 -181.3087 562.0
-154.26529 -181.95392 564.0
-150.57628 -182.27654 565.0
-146.61374 -182.27654 565.0
-142.90369 -182.59914 566.0
-139.17961 -182.92175 567.0
-135.4415 -183.24437 568.0
-131.68938 -183.56699 569.0
-128.37206 -184.53482 572.0
-124.79525 -185.18005 574.0
-121.4008 -186.14789 577.0
-117.96427 -187.11572 580.0
-114.87841 -188.7288 585.0
-111.34367 -189.69664 588.0
-107.94923 -190.98709 592.0
-104.32333 -191.95493 595.0
-100.655365 -192.92276 598.0
-96.94532 -193.89061 601.0
-93.501755 -195.50368 606.0
-89.54624 -196.14891 608.0
-85.8432 -197.43935 612.0
-81.950806 -198.4072 615.0
-78.521286 -200.6655 622.0
-215.47063 -177.66876 539.0
-210.5122 -176.67989 536.0
-205.98161 -176.02063 534.0
-201.47905 -175.36137 532.0
-197.00455 -174.70213 530.0
-192.92276 -174.37251 529.0
-189.21272 -174.37251 529.0
-185.50267 -174.37251 529.0
-181.79263 -174.37251 529.0
-178.4192 -174.70213 530.0
-175.36139 -175.36137 532.0
-172.92075 -176.67989 536.0
-170.42401 -177.99838 540.0
-167.87115 -179.3169 544.0
-165.56378 -180.96504 549.0
-163.77536 -183.27243 556.0
-160.45105 -183.93167 558.0
-157.09868 -184.59093 560.0
-153.44473 -184.92055 561.0
-149.77676 -185.25018 562.0
-146.09474 -185.57982 563.0
-142.6512 -186.23906 565.0
-138.68867 -186.23906 565.0
-135.20305 -186.89832 567.0
-131.45793 -187.22794 568.0
-128.14763 -188.21683 571.0
-124.57784 -188.87607 573.0
-121.19041 -189.86496 576.0
-117.760895 -190.85384 579.0
-114.68204 -192.50197 584.0
-111.15432 -193.49084 587.0
-107.58453 -194.47974 590.0
-103.97267 -195.46861 593.0
-100.318726 -196.45749 596.0
-96.78401 -197.77599 600.0
-93.19317 -199.0945 604.0
-89.39896 -200.08337 607.0
-252.28365 -178.08255 529.0
-247.63379 -177.40927 527.0
-243.93776 -177.40927 527.0
-240.6976 -177.74591 528.0
-236.99457 -177.74591 528.0
-237.41536 -183.80544 546.0
-218.4373 -180.77567 537.0
-214.27136 -180.43904 536.0
-210.11948 -180.10239 535.0
-205.98161 -179.76575 534.0
-201.47905 -179.09247 532.0
-196.63284 -178.08255 529.0
-192.92276 -178.08255 529.0
-189.21272 -178.08255 529.0
-185.50267 -178.08255 529.0
-181.79263 -178.08255 529.0
-178.75584 -178.75583 531.0
-175.69101 -179.42911 533.0
-172.92075 -180.43904 536.0
-170.42401 -181.78558 540.0
-168.48834 -183.80544 546.0
-166.46849 -185.82527 552.0
-163.18623 -186.49855 554.0
-159.87595 -187.17183 556.0
-156.53761 -187.84511 558.0
-152.89769 -188.18175 559.0
-149.24374 -188.51839 560.0
-145.57576 -188.85504 561.0
-142.14624 -189.5283 563.0
-138.4432 -189.86496 564.0
-134.72614 -190.20158 565.0
-131.22649 -190.87486 567.0
-127.69878 -191.54816 569.0
-124.36043 -192.55807 572.0
-120.559204 -192.8947 573.0
-117.760895 -194.91455 579.0
-114.485664 -196.26111 583.0
-110.96495 -197.27103 586.0
-107.40218 -198.28096 589.0
-103.97267 -199.6275 593.0
-100.318726 -200.63742 596.0
-96.6227 -201.64735 599.0
-93.19317 -203.33055 604.0
-257.74002 -180.41801 525.0
-254.05801 -180.41801 525.0
-250.376 -180.41801 525.0
-246.69402 -180.41801 525.0
-243.01201 -180.41801 525.0
-239.33 -180.41801 525.0
-236.99457 -181.44897 528.0
-235.24123 -185.91647 541.0
-230.59138 -185.22916 539.0
-226.8112 -185.22916 539.0
-222.20345 -184.54185 537.0
-217.62375 -183.85454 535.0
-213.47183 -183.5109 534.0
-209.72672 -183.5109 534.0
-205.21014 -182.8236 532.0
-201.10034 -182.47993 531.0
-197.00455 -182.13629 530.0
-192.92276 -181.79262 529.0
-189.21272 -181.79262 529.0
-185.50267 -181.79262 529.0
-182.13628 -182.13629 530.0
-179.0925 -182.8236 532.0
-176.02063 -183.5109 534.0
-173.88858 -185.22916 539.0
-171.3708 -186.60378 543.0
-168.79692 -187.9784 547.0
-165.86534 -189.00934 550.0
-163.18623 -190.38396 554.0
-159.30086 -190.38396 554.0
-155.41547 -190.38396 554.0
-151.8036 -190.72762 555.0
-148.71074 -191.75858 558.0
-145.05676 -192.10222 559.0
-141.64128 -192.78954 561.0
-137.95227 -193.1332 562.0
-134.48769 -193.8205 564.0
-130.76361 -194.16414 565.0
-127.47434 -195.19511 568.0
-124.14301 -196.22607 571.0
-120.76961 -197.25702 574.0
-117.760895 -198.9753 579.0
-114.28929 -200.00624 582.0
-110.96495 -201.38087 586.0
-107.40218 -202.41182 589.0
-103.79734 -203.4428 592.0
-100.318726 -204.8174 596.0
-263.08417 -182.69734 521.0
-259.4302 -182.69734 521.0
-256.2672 -183.04802 522.0
-252.60625 -183.04802 522.0
-248.9453 -183.04802 522.0
-244.81444 -182.69734 521.0
-241.16048 -182.69734 521.0
-237.9624 -183.04802 522.0
-236.09688 -184.45067 526.0
-237.2681 -188.30801 537.0
-233.93675 -188.65868 538.0
-229.73576 -188.30801 537.0
-225.54881 -187.95734 536.0
-220.9621 -187.25601 534.0
-217.21698 -187.25601 534.0
-213.07208 -186.90533 533.0
-209.33398 -186.90533 533.0
-204.8244 -186.20401 531.0
-200.7216 -185.85335 530.0
-197.00455 -185.85335 530.0
-192.92276 -185.50267 529.0
-189.21272 -185.50267 529.0
-185.50267 -185.50267 529.0
-182.13628 -185.85335 530.0
-179.42914 -186.90533 533.0
-176.35027 -187.60667 535.0
-174.21121 -189.36002 540.0
-171.6864 -190.76266 544.0
-168.79692 -191.81467 547.0
-165.2622 -192.16534 548.0
-162.00801 -192.86667 550.0
-158.4382 -193.21735 551.0
-155.13493 -193.91867 553.0
-151.53009 -194.26935 554.0
-147.91121 -194.62001 555.0
-144.27829 -194.97067 556.0
-140.88383 -195.67201 558.0
-137.46133 -196.37334 560.0
-134.01079 -197.07468 562.0
-130.76361 -198.12668 565.0
-127.249916 -198.82802 567.0
-124.14301 -200.23067 571.0
-120.76961 -201.28267 574.0
-117.96427 -203.38667 580.0
-282.49707 -189.5704 530.0
-274.04602 -186.35129 521.0
-270.39206 -186.35129 521.0
-266.22614 -185.9936 520.0
-262.57922 -185.9936 520.0
-258.93228 -185.9936 520.0
-255.28534 -185.9936 520.0
-250.67056 -185.27824 518.0
-247.03767 -185.27824 518.0
-242.93486 -184.92056 517.0
-238.38321 -184.2052 515.0
-235.2272 -184.56288 516.0
-232.05719 -184.92056 517.0
-236.38441 -191.3588 535.0
-233.0671 -191.71648 536.0
-229.30794 -191.71648 536.0
-224.70721 -191.00113 534.0
-220.5483 -190.64345 533.0
-216.40343 -190.28577 532.0
-212.67232 -190.28577 532.0
-208.94124 -190.28577 532.0
-204.8244 -189.92809 531.0
-200.3429 -189.21274 529.0
-196.63284 -189.21274 529.0
-192.92276 -189.21274 529.0
-189.21272 -189.21274 529.0
-185.50267 -189.21274 529.0
-182.47993 -189.92809 531.0
-179.76578 -191.00113 534.0
-176.6799 -191.71648 536.0
-174.21121 -193.1472 540.0
-171.6864 -194.57793 544.0
-168.48834 -195.29329 546.0
-164.96063 -195.65097 547.0
-161.12431 -195.65097 547.0
-157.86311 -196.36633 549.0
-154.57387 -197.08168 551.0
-150.98305 -197.43936 552.0
-147.64471 -198.15472 554.0
-143.7593 -198.15472 554.0
-140.37889 -198.87009 556.0
-136.9704 -199.58545 558.0
-133.53387 -200.3008 560.0
-130.53217 -201.73154 564.0
-127.249916 -202.80457 567.0
-123.70818 -203.51993 569.0
-279.1938 -188.54646 517.0
-275.03488 -188.18176 516.0
-272.99402 -189.27585 519.0
-268.8351 -188.91115 518.0
-265.2022 -188.91115 518.0
-261.56927 -188.91115 518.0
-257.43845 -188.54646 517.0
-250.86694 -186.35829 511.0
-247.76706 -186.72299 512.0
-244.65314 -187.08768 513.0
-240.1155 -186.35829 511.0
-236.99457 -186.72299 512.0
-234.31548 -187.45238 514.0
-231.60834 -188.18176 516.0
-235.50073 -194.38156 533.0
-231.76262 -194.38156 533.0
-227.5967 -194.01686 532.0
-223.8656 -194.01686 532.0
-219.30695 -193.28748 530.0
-215.58987 -193.28748 530.0
-211.47304 -192.92278 529.0
-207.76299 -192.92278 529.0
-204.05295 -192.92278 529.0
-200.3429 -192.92278 529.0
-196.63284 -192.92278 529.0
-192.92276 -192.92278 529.0
-189.21272 -192.92278 529.0
-185.50267 -192.92278 529.0
-182.82358 -194.01686 532.0
-179.76578 -194.74625 534.0
-176.6799 -195.47562 536.0
-174.53381 -197.29909 541.0
-171.3708 -198.02849 543.0
-167.87115 -198.39317 544.0
-164.65904 -199.12256 546.0
-160.82976 -199.12256 546.0
-157.57558 -199.85196 548.0
-154.0128 -200.21664 549.0
-150.436 -200.58133 550.0
-146.84518 -200.94603 551.0
-143.7593 -202.0401 554.0
-140.1264 -202.4048 555.0
-136.9704 -203.49889 558.0
-133.77232 -204.59297 561.0
-130.30074 -205.32236 563.0
-127.249916 -206.78111 567.0
-279.53745 -189.94211 511.0
-277.5737 -191.05722 514.0
-273.96884 -191.05722 514.0
-270.364 -191.05722 514.0
-267.79715 -191.80063 516.0
-260.08246 -188.827 508.0
-256.0147 -188.45528 507.0
-252.95692 -188.827 508.0
-249.88507 -189.1987 509.0
-246.79921 -189.5704 510.0
-243.22241 -189.5704 510.0
-239.64561 -189.5704 510.0
-236.53168 -189.94211 511.0
-233.8596 -190.68552 513.0
-230.71063 -191.05722 514.0
-235.0589 -197.74794 532.0
-230.45815 -197.00453 530.0
-226.74107 -197.00453 530.0
-222.60321 -196.63283 529.0
-218.89316 -196.63283 529.0
-215.18312 -196.63283 529.0
-211.07327 -196.26112 528.0
-207.76299 -196.63283 529.0
-203.6672 -196.26112 528.0
-200.3429 -196.63283 529.0
-196.63284 -196.63283 529.0
-192.92276 -196.63283 529.0
-189.21272 -196.63283 529.0
-185.85333 -197.00453 530.0
-182.82358 -197.74794 532.0
-179.76578 -198.49135 534.0
-177.00952 -199.60648 537.0
-174.21121 -200.7216 540.0
-170.73961 -201.0933 541.0
-167.56256 -201.83672 543.0
-164.05591 -202.20842 544.0
-160.5352 -202.58012 545.0
-157.00047 -202.95183 546.0
-153.45174 -203.32355 547.0
-149.88896 -203.69525 548.0
-146.57867 -204.43867 550.0
-143.4998 -205.55379 553.0
-140.1264 -206.2972 555.0
-137.21587 -207.78403 559.0
-133.77232 -208.52744 561.0
-278.99042 -193.1472 510.0
-275.95364 -193.52592 511.0
-272.3698 -193.52592 511.0
-267.734 -192.76846 509.0
-263.12625 -192.01103 507.0
-259.05853 -191.63232 506.0
-255.50977 -191.63232 506.0
-251.96101 -191.63232 506.0
-248.90321 -192.01103 507.0
-245.34746 -192.01103 507.0
-242.2686 -192.38976 508.0
-239.1757 -192.76846 509.0
-236.0688 -193.1472 510.0
-233.40375 -193.90463 512.0
-230.71063 -194.66206 514.0
-234.61705 -201.10031 531.0
-230.0233 -200.34286 529.0
-226.31325 -200.34286 529.0
-222.60321 -200.34286 529.0
-218.06558 -199.58543 527.0
-214.36957 -199.58543 527.0
-211.07327 -199.96416 528.0
-207.37025 -199.96416 528.0
-203.6672 -199.96416 528.0
-200.3429 -200.34286 529.0
-196.63284 -200.34286 529.0
-192.92276 -200.34286 529.0
-189.5704 -200.7216 530.0
-186.20401 -201.10031 531.0
-183.16724 -201.85776 533.0
-179.76578 -202.23647 534.0
-177.00952 -203.37263 537.0
-174.21121 -204.5088 540.0
-170.42401 -204.5088 540.0
-166.9454 -204.88751 541.0
-163.45276 -205.26624 542.0
-159.94608 -205.64496 543.0
-156.71294 -206.4024 545.0
-153.1712 -206.78111 546.0
-149.88896 -207.53856 548.0
-147.1117 -209.05344 552.0
-143.7593 -209.81087 554.0
-140.63136 -210.94704 557.0
-137.7068 -212.46191 561.0
-274.6141 -193.63812 502.0
-272.71347 -194.79533 505.0
-268.63873 -194.40959 504.0
-265.104 -194.40959 504.0
-261.5693 -194.40959 504.0
-258.03458 -194.40959 504.0
-254.49983 -194.40959 504.0
-251.46307 -194.79533 505.0
-248.41228 -195.18106 506.0
-245.34746 -195.56679 507.0
-241.7917 -195.56679 507.0
-238.23592 -195.56679 507.0
-234.21729 -195.18106 506.0
-230.66855 -195.18106 506.0
-228.46635 -196.33826 509.0
-228.28401 -202.51 525.0
-225.02982 -202.89574 526.0
-220.92001 -202.51 525.0
-217.238 -202.51 525.0
-213.96278 -202.89574 526.0
-210.67352 -203.28146 527.0
-207.37025 -203.66719 528.0
-204.05295 -204.05293 529.0
-200.3429 -204.05293 529.0
-197.00455 -204.43866 530.0
-193.65216 -204.82439 531.0
-190.28577 -205.21013 532.0
-186.90533 -205.59586 533.0
-183.5109 -205.98158 534.0
-179.76578 -205.98158 534.0
-177.00952 -207.1388 537.0
-173.56598 -207.52454 538.0
-170.42401 -208.29599 540.0
-166.63681 -208.29599 540.0
-163.15118 -208.68173 541.0
-159.94608 -209.45319 543.0
-156.71294 -210.22466 545.0
-153.45174 -210.99612 547.0
-149.88896 -211.38185 548.0
-147.64471 -213.69626 554.0
-144.0188 -214.08199 555.0
-272.973 -195.98058 499.0
-269.4733 -195.98058 499.0
-266.50668 -196.37332 500.0
-264.052 -197.15881 502.0
-261.0503 -197.55156 503.0
-258.03458 -197.9443 504.0
-254.49983 -197.9443 504.0
-250.96512 -197.9443 504.0
-247.4304 -197.9443 504.0
-242.92786 -197.15881 502.0
-239.40717 -197.15881 502.0
-236.35634 -197.55156 503.0
-232.82866 -197.55156 503.0
-229.7568 -197.9443 504.0
-226.67094 -198.33705 505.0
-222.68738 -197.9443 504.0
-227.41434 -205.4065 523.0
-224.1742 -205.79924 524.0
-220.92001 -206.19199 525.0
-217.238 -206.19199 525.0
-213.96278 -206.58475 526.0
-211.07327 -207.37022 528.0
-207.76299 -207.76297 529.0
-204.05295 -207.76297 529.0
-200.7216 -208.15572 530.0
-197.37625 -208.54848 531.0
-194.01686 -208.94121 532.0
-190.64345 -209.33397 533.0
-186.90533 -209.33397 533.0
-183.5109 -209.7267 534.0
-180.1024 -210.11946 535.0
-176.6799 -210.51219 536.0
-173.24336 -210.90495 537.0
-170.10841 -211.69044 539.0
-166.63681 -212.08319 540.0
-163.15118 -212.47592 541.0
-159.94608 -213.26143 543.0
-156.71294 -214.04692 545.0
-153.73227 -215.22516 548.0
-150.70953 -216.40341 551.0
-271.33185 -198.28096 496.0
-268.9333 -199.08049 498.0
-265.97366 -199.48026 499.0
-262.474 -199.48026 499.0
-259.49335 -199.88002 500.0
-257.01062 -200.67953 502.0
-252.48001 -199.88002 500.0
-248.47539 -199.48026 499.0
-244.97574 -199.48026 499.0
-241.47609 -199.48026 499.0
-237.97646 -199.48026 499.0
-234.47676 -199.48026 499.0
-231.90288 -200.27977 501.0
-228.84508 -200.67953 502.0
-226.22209 -201.47905 504.0
-230.19865 -208.27496 521.0
-226.97952 -208.67473 522.0
-224.1742 -209.47424 524.0
-220.92001 -209.87401 525.0
-217.65181 -210.27376 526.0
-214.77634 -211.0733 528.0
-211.47304 -211.47305 529.0
-208.15575 -211.87282 530.0
-204.8244 -212.27257 531.0
-201.47905 -212.67233 532.0
-198.11967 -213.0721 533.0
-194.74623 -213.47185 534.0
-191.00111 -213.47185 534.0
-187.25601 -213.47185 534.0
-183.5109 -213.47185 534.0
-180.1024 -213.87161 535.0
-176.6799 -214.27136 536.0
-173.24336 -214.67113 537.0
-170.42401 -215.8704 540.0
-166.63681 -215.8704 540.0
-163.15118 -216.27017 541.0
-160.24063 -217.46947 544.0
-157.00047 -218.26897 546.0
-270.2378 -200.94603 494.0
-267.85324 -201.75958 496.0
-264.90762 -202.16635 497.0
-260.896 -201.75958 496.0
-257.41742 -201.75958 496.0
-253.93878 -201.75958 496.0
-250.46016 -201.75958 496.0
-246.98155 -201.75958 496.0
-244.97574 -202.97989 499.0
-240.99217 -202.57314 498.0
-237.97646 -202.97989 499.0
-234.47676 -202.97989 499.0
-230.97713 -202.97989 499.0
-227.47748 -202.97989 499.0
-224.42668 -203.38667 500.0
-230.19865 -211.92892 521.0
-227.41434 -212.74246 523.0
-224.1742 -213.14923 524.0
-221.3408 -213.96278 526.0
-218.47937 -214.77634 528.0
-215.18312 -215.18309 529.0
-211.8728 -215.58989 530.0
-208.54848 -215.99663 531.0
-205.59587 -216.8102 533.0
-202.2365 -217.21696 534.0
-198.49138 -217.21696 534.0
-194.74623 -217.21696 534.0
-191.00111 -217.21696 534.0
-187.25601 -217.21696 534.0
-183.5109 -217.21696 534.0
-180.1024 -217.62375 535.0
-176.6799 -218.03052 536.0
-173.56598 -218.84407 538.0
-170.42401 -219.6576 540.0
-166.63681 -219.6576 540.0
-163.75433 -220.87793 543.0
-268.59665 -203.16927 491.0
-265.1531 -203.16927 491.0
-261.70953 -203.16927 491.0
-258.26602 -203.16927 491.0
-255.86043 -203.99684 493.0
-252.91486 -204.41061 494.0
-249.45024 -204.41061 494.0
-246.98155 -205.23819 496.0
-243.99388 -205.65198 497.0
-240.02434 -205.23819 496.0
-237.02263 -205.65198 497.0
-234.00688 -206.06577 498.0
-230.51425 -206.06577 498.0
-227.47748 -206.47955 499.0
-224.42668 -206.89334 500.0
-231.08234 -216.41043 523.0
-227.41434 -216.41043 523.0
-224.602 -217.238 525.0
-221.3408 -217.6518 526.0
-218.47937 -218.47937 528.0
-215.18312 -218.89316 529.0
-211.8728 -219.30695 530.0
-209.33398 -220.54831 533.0
-205.98161 -220.9621 534.0
-202.2365 -220.9621 534.0
-198.86307 -221.37585 535.0
-195.11095 -221.37585 535.0
-191.00111 -220.9621 534.0
-187.25601 -220.9621 534.0
-183.85454 -221.37585 535.0
-180.43906 -221.78964 536.0
-177.00952 -222.20343 537.0
-173.88858 -223.031 539.0
-170.42401 -223.4448 540.0

