ply
format ascii 1.0
comment made by @arthurmuchir
element vertex 931
property float x
property float y
property float z
end_header
-142.90369 -115.11686 566.0
-138.93414 -115.11686 566.0
-135.4415 -115.523636 568.0
-132.15225 -116.13379 571.0
-155.63289 -119.7176 569.0
-151.37581 -119.5072 568.0
-146.61374 -118.876 565.0
-141.89377 -118.2448 562.0
-137.95227 -118.2448 562.0
-134.72614 -118.876 565.0
-131.45793 -119.5072 568.0
-164.4767 -124.36042 572.0
-160.18454 -124.14301 571.0
-155.63289 -123.70819 569.0
-150.84279 -123.05594 566.0
-144.53778 -121.09922 557.0
-140.63136 -121.09922 557.0
-137.21587 -121.53405 559.0
-133.77232 -121.96888 561.0
-130.99504 -123.05594 566.0
-127.69878 -123.70819 569.0
-164.18915 -128.14763 571.0
-159.904 -127.92319 570.0
-155.63289 -127.69876 569.0
-147.64471 -124.33237 554.0
-143.7593 -124.33237 554.0
-139.62144 -124.10794 553.0
-135.98854 -124.33237 554.0
-133.05698 -125.23007 558.0
-129.83784 -125.90335 561.0
-127.69878 -127.69876 569.0
-174.8424 -128.21776 554.0
-170.95703 -128.21776 554.0
-167.3732 -128.44919 555.0
-163.4808 -128.44919 555.0
-159.58841 -128.44919 555.0
-155.97653 -128.68063 556.0
-152.35065 -128.91206 557.0
-144.71313 -125.671906 543.0
-141.16437 -125.90335 544.0
-138.35904 -126.8291 548.0
-135.4976 -127.75487 552.0
-132.10316 -128.21776 554.0
-129.60641 -129.60638 560.0
-127.0255 -130.99504 566.0
-123.490776 -131.4579 568.0
-119.5072 -131.4579 568.0
-115.523636 -131.4579 568.0
-178.40518 -131.8647 553.0
-174.52681 -131.8647 553.0
-170.64842 -131.8647 553.0
-167.07164 -132.10315 554.0
-163.18623 -132.10315 554.0
-159.30086 -132.10315 554.0
-155.41547 -132.10315 554.0
-152.07713 -132.58008 556.0
-143.9136 -128.76482 540.0
-140.3859 -129.00327 541.0
-137.34912 -129.71863 544.0
-134.27028 -130.43399 547.0
-131.38779 -131.3878 551.0
-128.9121 -132.81851 557.0
-125.67893 -133.53389 560.0
-122.186295 -134.01079 562.0
-118.87601 -134.72614 565.0
-115.320244 -135.20305 567.0
-111.54007 -135.44151 568.0
-187.97838 -134.27026 547.0
-184.14209 -134.27026 547.0
-180.30579 -134.27026 547.0
-176.79211 -134.51575 548.0
-173.58 -135.00667 550.0
-170.03127 -135.25214 551.0
-166.16692 -135.25214 551.0
-162.59712 -135.49762 552.0
-159.01332 -135.74307 553.0
-155.41547 -135.98854 554.0
-146.3332 -131.32468 535.0
-143.11409 -131.81561 537.0
-139.86691 -132.30655 539.0
-136.59169 -132.79747 541.0
-133.53387 -133.53387 544.0
-131.38779 -135.25214 551.0
-128.21777 -135.98854 554.0
-124.55679 -136.23401 555.0
-121.53405 -137.21587 559.0
-118.244804 -137.95227 562.0
-114.91347 -138.68867 565.0
-111.54007 -139.42506 568.0
-191.464 -137.85408 546.0
-187.29108 -137.6016 545.0
-183.46881 -137.6016 545.0
-179.97617 -137.85408 546.0
-176.14688 -137.85408 546.0
-172.9488 -138.35905 548.0
-169.4141 -138.61153 549.0
-165.86534 -138.864 550.0
-162.30257 -139.11649 551.0
-158.72577 -139.36897 552.0
-155.41547 -139.87393 554.0
-145.78616 -134.57185 533.0
-142.31458 -134.82433 534.0
-139.34792 -135.58177 537.0
-136.08672 -136.08673 539.0
-134.51573 -138.35905 548.0
-130.91089 -138.61153 549.0
-127.292015 -138.864 550.0
-123.659096 -139.11649 551.0
-120.44698 -139.87393 554.0
-117.403206 -140.88385 558.0
-114.50671 -142.14624 563.0
-110.95094 -142.6512 565.0
-193.1472 -140.1264 540.0
-189.36 -140.1264 540.0
-185.91647 -140.3859 541.0
-182.79553 -140.90488 543.0
-179.3169 -141.16438 544.0
-175.82428 -141.42387 545.0
-172.31761 -141.68336 546.0
-168.79692 -141.94286 547.0
-165.56378 -142.46185 549.0
-162.00801 -142.72133 550.0
-159.01332 -143.49982 553.0
-155.41547 -143.75931 554.0
-145.23914 -137.79097 531.0
-141.78156 -138.05046 532.0
-138.56944 -138.56944 534.0
-135.58176 -139.34792 537.0
-133.53387 -141.16438 544.0
-130.19553 -141.68336 546.0
-126.597694 -141.94286 547.0
-123.210236 -142.46185 549.0
-120.229576 -143.49982 553.0
-116.98241 -144.27829 556.0
-114.303314 -145.83527 562.0
-110.95094 -146.61372 565.0
-193.1472 -143.9136 540.0
-189.36 -143.9136 540.0
-185.22916 -143.6471 539.0
-181.78561 -143.9136 540.0
-178.65765 -144.44661 542.0
-175.17905 -144.71312 543.0
-172.002 -145.24612 545.0
-168.79692 -145.77914 547.0
-165.56378 -146.31215 549.0
-162.30257 -146.84518 551.0
-159.01332 -147.37819 553.0
-155.41547 -147.6447 554.0
-144.9656 -141.24854 530.0
-141.24855 -141.24854 530.0
-137.79095 -141.51503 531.0
-136.3392 -143.9136 540.0
-133.04294 -144.44661 542.0
-129.48016 -144.71312 543.0
-126.13481 -145.24612 545.0
-122.98581 -146.04564 548.0
-119.79475 -146.84518 551.0
-116.772 -147.9112 555.0
-114.09992 -149.51024 561.0
-110.95094 -150.57628 565.0
-83.03787 -157.77194 592.0
-79.01923 -158.03845 593.0
-196.20502 -147.15375 538.0
-192.07416 -146.88023 537.0
-187.95734 -146.60672 536.0
-184.54185 -146.88023 537.0
-180.7757 -146.88023 537.0
-177.66876 -147.42728 539.0
-174.53381 -147.97432 541.0
-171.6864 -148.79488 544.0
-168.48834 -149.34192 546.0
-166.16692 -150.70952 551.0
-163.18623 -151.53008 554.0
-159.30086 -151.53008 554.0
-158.50134 -154.5388 565.0
-155.35936 -155.35936 568.0
-142.31458 -146.05968 534.0
-139.6074 -147.15375 538.0
-136.3392 -147.7008 540.0
-132.552 -147.7008 540.0
-129.24171 -148.24783 542.0
-126.13481 -149.0684 545.0
-122.76138 -149.61543 547.0
-120.01216 -150.98303 552.0
-116.772 -151.8036 555.0
-113.48977 -152.62415 558.0
-110.75457 -154.26527 564.0
-106.988396 -154.5388 565.0
-94.848335 -160.82976 588.0
-90.72447 -160.82976 588.0
-86.8952 -161.3768 590.0
-83.03787 -161.92383 592.0
-79.01923 -162.19736 593.0
-199.97821 -150.92693 538.0
-195.84032 -150.6464 537.0
-191.71648 -150.36586 536.0
-187.60667 -150.08533 535.0
-183.85454 -150.08533 535.0
-180.43906 -150.36586 536.0
-177.00952 -150.6464 537.0
-174.21121 -151.48799 540.0
-171.3708 -152.32959 543.0
-168.48834 -153.17119 546.0
-165.86534 -154.29333 550.0
-163.18623 -155.41545 554.0
-161.88878 -157.94026 563.0
-158.50134 -158.50133 565.0
-155.08585 -159.0624 567.0
-143.11409 -150.6464 537.0
-139.34792 -150.6464 537.0
-135.83424 -150.92693 538.0
-132.552 -151.48799 540.0
-129.24171 -152.04906 542.0
-125.903366 -152.61012 544.0
-122.536964 -153.17119 546.0
-119.14251 -153.73225 548.0
-116.56161 -155.41545 554.0
-112.67622 -155.41545 554.0
-110.16545 -157.37918 561.0
-106.988396 -158.50133 565.0
-102.74534 -164.39253 586.0
-98.63553 -164.39253 586.0
-94.68703 -164.67307 587.0
-90.72447 -164.95358 588.0
-86.8952 -165.51466 590.0
-82.897606 -165.79518 591.0
-79.01923 -166.35626 593.0
-203.37265 -154.41255 537.0
-199.23479 -154.125 536.0
-195.11095 -153.83746 535.0
-191.00111 -153.54991 534.0
-186.90533 -153.26236 533.0
-183.5109 -153.54991 534.0
-179.76578 -153.54991 534.0
-177.00952 -154.41255 537.0
-173.88858 -154.98764 539.0
-170.73961 -155.56273 541.0
-168.17973 -156.71292 545.0
-165.56378 -157.8631 549.0
-162.00801 -158.15067 550.0
-162.46387 -162.46385 565.0
-158.78188 -162.7514 566.0
-155.35936 -163.32649 568.0
-142.58109 -153.83746 535.0
-138.82893 -153.83746 535.0
-135.32928 -154.125 536.0
-132.30653 -154.98764 539.0
-128.7648 -155.27519 540.0
-125.671936 -156.13782 543.0
-122.088104 -156.42537 544.0
-118.70768 -157.00047 546.0
-115.72 -158.15067 550.0
-112.67622 -159.30084 554.0
-109.57633 -160.45102 558.0
-106.988396 -162.46385 565.0
-106.672806 -168.21478 585.0
-102.57001 -168.21478 585.0
-98.4672 -168.21478 585.0
-94.52572 -168.50233 586.0
-90.87877 -169.36497 589.0
-86.8952 -169.65251 590.0
-82.897606 -169.94006 591.0
-202.2365 -157.29504 534.0
-198.49138 -157.29504 534.0
-194.38155 -157.00049 533.0
-190.28577 -156.70593 532.0
-186.55467 -156.70593 532.0
-183.16724 -157.00049 533.0
-179.76578 -157.29504 534.0
-176.35027 -157.58961 535.0
-173.88858 -158.76785 539.0
-170.73961 -159.35696 541.0
-167.87115 -160.24065 544.0
-165.2622 -161.4189 548.0
-165.54272 -165.54272 562.0
-162.46387 -166.4264 565.0
-159.06241 -167.01553 567.0
-146.0597 -157.29504 534.0
-142.31458 -157.29504 534.0
-138.56944 -157.29504 534.0
-135.0768 -157.58961 535.0
-131.57014 -157.88417 536.0
-128.04945 -158.17873 537.0
-124.74617 -158.76785 539.0
-121.1904 -159.06241 540.0
-118.27285 -160.24065 544.0
-115.2992 -161.4189 548.0
-112.47284 -162.8917 553.0
-109.18358 -163.77536 556.0
-110.20752 -171.43393 582.0
-106.308105 -171.7285 583.0
-102.39467 -172.02304 584.0
-98.4672 -172.31761 585.0
-94.52572 -172.61218 586.0
-90.87877 -173.49585 589.0
-86.8952 -173.79042 590.0
-205.59587 -160.73859 533.0
-201.85776 -160.73859 533.0
-197.37625 -160.13545 531.0
-193.28748 -159.83388 530.0
-189.5704 -159.83388 530.0
-185.85333 -159.83388 530.0
-182.47993 -160.13545 531.0
-179.0925 -160.43703 532.0
-176.02063 -161.04016 534.0
-173.88858 -162.54803 539.0
-170.73961 -163.15118 541.0
-168.17973 -164.35747 545.0
-164.96063 -164.96062 547.0
-165.54272 -169.48422 562.0
-162.17632 -170.08737 564.0
-158.50134 -170.38895 565.0
-155.35936 -171.29366 568.0
-142.31458 -161.04016 534.0
-138.56944 -161.04016 534.0
-134.57184 -160.73859 533.0
-130.58827 -160.43703 532.0
-126.85718 -160.43703 532.0
-123.82041 -161.34174 535.0
-120.74154 -162.24646 538.0
-117.62061 -163.15118 541.0
-114.8784 -164.65904 546.0
-112.06606 -166.16692 551.0
-114.092926 -175.21411 581.0
-110.01815 -175.21411 581.0
-106.308105 -175.81726 583.0
-102.39467 -176.11884 584.0
-98.29889 -176.11884 584.0
-94.52572 -176.72197 586.0
-205.98161 -164.78528 534.0
-201.10034 -163.85951 531.0
-196.63284 -163.24236 529.0
-192.92276 -163.24236 529.0
-189.21272 -163.24236 529.0
-185.50267 -163.24236 529.0
-182.13628 -163.55095 530.0
-179.0925 -164.1681 532.0
-176.02063 -164.78528 534.0
-173.56598 -166.01964 538.0
-170.73961 -166.94539 541.0
-168.48834 -168.48831 546.0
-164.65904 -168.48831 546.0
-165.24817 -173.11711 561.0
-162.17632 -174.04288 564.0
-158.50134 -174.35147 565.0
-154.81233 -174.66006 566.0
-150.84279 -174.66006 566.0
-147.6517 -175.58582 569.0
-132.552 -162.008 525.0
-129.85187 -163.24236 529.0
-126.61873 -163.85951 531.0
-123.35754 -164.4767 533.0
-120.51712 -165.71104 537.0
-117.403206 -166.6368 540.0
-114.66801 -168.17975 545.0
-117.35411 -178.0545 577.0
-113.70017 -178.67168 579.0
-110.01815 -179.28886 581.0
-106.12576 -179.59744 582.0
-102.39467 -180.21461 584.0
-98.4672 -180.5232 585.0
-209.72672 -168.5304 534.0
-205.59587 -168.2148 533.0
-200.7216 -167.268 530.0
-196.26114 -166.6368 528.0
-192.55807 -166.6368 528.0
-189.21272 -166.9524 529.0
-185.50267 -166.9524 529.0
-182.13628 -167.268 530.0
-178.75584 -167.5836 531.0
-176.02063 -168.5304 534.0
-173.24336 -169.4772 537.0
-170.73961 -170.7396 541.0
-168.48834 -172.3176 546.0
-168.57951 -176.4204 559.0
-165.24817 -177.0516 561.0
-161.88878 -177.6828 563.0
-158.50134 -178.314 565.0
-154.5388 -178.314 565.0
-150.57628 -178.314 565.0
-135.71501 -165.0588 523.0
-132.04704 -165.0588 523.0
-128.62454 -165.3744 524.0
-126.38027 -167.268 530.0
-123.35754 -168.2148 533.0
-120.292694 -169.1616 536.0
-116.968376 -169.7928 538.0
-120.3488 -180.5232 572.0
-117.15073 -181.7856 576.0
-113.5038 -182.4168 578.0
-109.8288 -183.048 580.0
-106.12576 -183.6792 582.0
-244.62508 -175.82426 545.0
-213.87161 -172.59813 535.0
-209.72672 -172.27551 534.0
-204.8244 -171.30768 531.0
-200.3429 -170.66245 529.0
-196.26114 -170.33983 528.0
-192.19339 -170.01723 527.0
-188.85506 -170.33983 528.0
-185.50267 -170.66245 529.0
-182.13628 -170.98506 530.0
-178.75584 -171.30768 531.0
-176.02063 -172.27551 534.0
-173.56598 -173.56596 538.0
-171.0552 -174.85643 542.0
-168.48834 -176.14688 546.0
-167.3732 -179.0504 555.0
-164.36447 -180.01823 558.0
-161.31367 -180.98608 561.0
-157.65974 -181.3087 562.0
-153.99176 -181.6313 563.0
-150.30978 -181.95392 564.0
-135.9745 -169.0494 524.0
-132.29951 -169.0494 524.0
-128.87001 -169.372 525.0
-126.38027 -170.98506 530.0
-123.35754 -171.95291 533.0
-127.249916 -182.92175 567.0
-123.70818 -183.56699 569.0
-120.559204 -184.85744 573.0
-117.15073 -185.82527 576.0
-113.5038 -186.4705 578.0
-109.8288 -187.11572 580.0
-246.62387 -178.32802 541.0
-243.27852 -178.65765 542.0
-222.61723 -177.33914 538.0
-218.03052 -176.67989 536.0
-213.47183 -176.02063 534.0
-209.33398 -175.69101 533.0
-204.43867 -174.70213 530.0
-200.3429 -174.37251 529.0
-196.26114 -174.04288 528.0
-192.19339 -173.71324 527.0
-188.85506 -174.04288 528.0
-185.50267 -174.37251 529.0
-181.79263 -174.37251 529.0
-178.75584 -175.03175 531.0
-176.02063 -176.02063 534.0
-173.56598 -177.33914 538.0
-171.3708 -178.98727 543.0
-169.4141 -180.96504 549.0
-167.07164 -182.61316 554.0
-163.4808 -182.9428 555.0
-160.1635 -183.60205 557.0
-156.81815 -184.26129 559.0
-153.1712 -184.59093 560.0
-149.51025 -184.92055 561.0
-145.57576 -184.92055 561.0
-132.29951 -172.72437 524.0
-129.11548 -173.38362 526.0
-134.48769 -185.90944 564.0
-130.76361 -186.23906 565.0
-127.0255 -186.56868 566.0
-123.70818 -187.55757 569.0
-120.559204 -188.87607 573.0
-117.15073 -189.86496 576.0
-250.376 -176.736 525.0
-247.1639 -177.07263 526.0
-243.93776 -177.40927 527.0
-239.33 -176.736 525.0
-242.82967 -182.12224 541.0
-239.4773 -182.45886 542.0
-234.37157 -181.44896 539.0
-230.16359 -181.1123 538.0
-225.9696 -180.77567 537.0
-221.78967 -180.43904 536.0
-217.21698 -179.76575 534.0
-213.07208 -179.42911 533.0
-208.94124 -179.09247 532.0
-204.43867 -178.41919 530.0
-199.96416 -177.74591 528.0
-195.88943 -177.40927 527.0
-192.19339 -177.40927 527.0
-188.85506 -177.74591 528.0
-185.50267 -178.08255 529.0
-181.79263 -178.08255 529.0
-179.0925 -179.09247 532.0
-176.02063 -179.76575 534.0
-174.21121 -181.78558 540.0
-171.6864 -183.13216 544.0
-169.4141 -184.81535 549.0
-166.46849 -185.82527 552.0
-163.18623 -186.49855 554.0
-159.30086 -186.49855 554.0
-156.25706 -187.50847 557.0
-152.35065 -187.50847 557.0
-148.71074 -187.84511 558.0
-145.05676 -188.18175 559.0
-141.64128 -188.85504 561.0
-138.19774 -189.5283 563.0
-134.48769 -189.86496 564.0
-130.76361 -190.20158 565.0
-127.47434 -191.2115 568.0
-124.14301 -192.22144 571.0
-120.3488 -192.55807 572.0
-264.59903 -180.07436 524.0
-260.42612 -179.73071 523.0
-255.77628 -179.0434 521.0
-251.63841 -178.69974 520.0
-247.99147 -178.69974 520.0
-244.34454 -178.69974 520.0
-241.16048 -179.0434 521.0
-238.87415 -180.07436 524.0
-241.03426 -184.54185 537.0
-237.2681 -184.54185 537.0
-233.0671 -184.1982 536.0
-228.88014 -183.85454 535.0
-224.70721 -183.5109 534.0
-220.5483 -183.16724 533.0
-215.99666 -182.47993 531.0
-212.27257 -182.47993 531.0
-208.54848 -182.47993 531.0
-204.43867 -182.13629 530.0
-200.3429 -181.79262 529.0
-196.26114 -181.44897 528.0
-192.19339 -181.10532 527.0
-188.85506 -181.44897 528.0
-185.50267 -181.79262 529.0
-182.13628 -182.13629 530.0
-179.42914 -183.16724 533.0
-176.35027 -183.85454 535.0
-174.53381 -185.91647 541.0
-172.002 -187.29108 545.0
-169.1055 -188.32204 548.0
-165.86534 -189.00934 550.0
-162.30257 -189.353 551.0
-159.30086 -190.38396 554.0
-155.41547 -190.38396 554.0
-151.53009 -190.38396 554.0
-147.91121 -190.72762 555.0
-144.53778 -191.41492 557.0
-141.38881 -192.44588 560.0
-137.95227 -193.1332 562.0
-134.48769 -193.8205 564.0
-130.76361 -194.16414 565.0
-127.47434 -195.19511 568.0
-124.36043 -196.56972 572.0
-271.43002 -183.39867 523.0
-267.2501 -183.04802 522.0
-263.08417 -182.69734 521.0
-257.9364 -181.64534 518.0
-253.81255 -181.29468 517.0
-250.18665 -181.29468 517.0
-246.56076 -181.29468 517.0
-242.46497 -180.94402 516.0
-239.30896 -181.29468 517.0
-235.2272 -180.94402 516.0
-239.6877 -187.25601 534.0
-235.94258 -187.25601 534.0
-232.19743 -187.25601 534.0
-228.45232 -187.25601 534.0
-223.8656 -186.55467 532.0
-219.30695 -185.85335 530.0
-215.58987 -185.85335 530.0
-211.8728 -185.85335 530.0
-207.76299 -185.50267 529.0
-204.05295 -185.50267 529.0
-200.3429 -185.50267 529.0
-196.26114 -185.15201 528.0
-192.55807 -185.15201 528.0
-188.85506 -185.15201 528.0
-185.50267 -185.50267 529.0
-182.47993 -186.20401 531.0
-179.76578 -187.25601 534.0
-177.00952 -188.30801 537.0
-174.53381 -189.71068 541.0
-172.002 -191.11334 545.0
-168.48834 -191.46402 546.0
-164.96063 -191.81467 547.0
-161.71342 -192.516 549.0
-158.4382 -193.21735 551.0
-155.13493 -193.91867 553.0
-151.25656 -193.91867 553.0
-147.64471 -194.26935 554.0
-144.0188 -194.62001 555.0
-140.88383 -195.67201 558.0
-137.7068 -196.72401 561.0
-134.24924 -197.42534 563.0
-130.76361 -198.12668 565.0
-279.1938 -184.92056 517.0
-274.50186 -184.2052 515.0
-271.94202 -184.92056 517.0
-268.31613 -184.92056 517.0
-264.17825 -184.56288 516.0
-261.06433 -184.92056 517.0
-257.43845 -184.92056 517.0
-250.86694 -182.77449 511.0
-247.28314 -182.77449 511.0
-244.17622 -183.13217 512.0
-240.58539 -183.13217 512.0
-237.92032 -183.84753 514.0
-234.31548 -183.84753 514.0
-238.78998 -190.28577 532.0
-235.0589 -190.28577 532.0
-231.32779 -190.28577 532.0
-226.74107 -189.5704 530.0
-222.60321 -189.21274 529.0
-218.89316 -189.21274 529.0
-215.18312 -189.21274 529.0
-211.47304 -189.21274 529.0
-207.37025 -188.85504 528.0
-203.28148 -188.49736 527.0
-199.58545 -188.49736 527.0
-195.88943 -188.49736 527.0
-192.55807 -188.85504 528.0
-189.21272 -189.21274 529.0
-185.50267 -189.21274 529.0
-182.47993 -189.92809 531.0
-179.76578 -191.00113 534.0
-177.00952 -192.07416 537.0
-174.53381 -193.50488 541.0
-171.6864 -194.57793 544.0
-168.17973 -194.9356 545.0
-164.65904 -195.29329 546.0
-161.12431 -195.65097 547.0
-157.57558 -196.00865 548.0
-154.29333 -196.724 550.0
-150.70953 -197.08168 551.0
-147.3782 -197.79704 553.0
-143.7593 -198.15472 554.0
-140.63136 -199.22777 557.0
-137.46133 -200.3008 560.0
-134.24924 -201.37384 563.0
-281.1786 -187.45238 514.0
-277.0337 -187.08768 513.0
-273.96884 -187.45238 514.0
-270.364 -187.45238 514.0
-267.27814 -187.81708 515.0
-263.15433 -187.45238 514.0
-260.0544 -187.81708 515.0
-252.95692 -185.2642 508.0
-249.39415 -185.2642 508.0
-246.31529 -185.6289 509.0
-242.74551 -185.6289 509.0
-239.1757 -185.6289 509.0
-236.53168 -186.35829 511.0
-232.94788 -186.35829 511.0
-237.44344 -192.92278 529.0
-233.73338 -192.92278 529.0
-230.0233 -192.92278 529.0
-226.31325 -192.92278 529.0
-222.60321 -192.92278 529.0
-218.47937 -192.55809 528.0
-214.36957 -192.19339 527.0
-210.67352 -192.19339 527.0
-206.9775 -192.19339 527.0
-203.28148 -192.19339 527.0
-199.58545 -192.19339 527.0
-195.88943 -192.19339 527.0
-192.19339 -192.19339 527.0
-189.21272 -192.92278 529.0
-185.85333 -193.28748 530.0
-182.82358 -194.01686 532.0
-180.1024 -195.11093 535.0
-177.00952 -195.84032 537.0
-174.21121 -196.9344 540.0
-171.3708 -198.02849 543.0
-167.56256 -198.02849 543.0
-164.05591 -198.39317 544.0
-160.82976 -199.12256 546.0
-157.28802 -199.48726 547.0
-154.0128 -200.21664 549.0
-150.436 -200.58133 550.0
-147.1117 -201.31071 552.0
-143.7593 -202.0401 554.0
-140.88383 -203.49889 558.0
-137.7068 -204.59297 561.0
-278.99042 -189.5704 510.0
-275.95364 -189.94211 511.0
-271.83682 -189.5704 510.0
-266.682 -188.45528 507.0
-260.5313 -186.59674 502.0
-257.5226 -186.96844 503.0
-254.49983 -187.34015 504.0
-251.46307 -187.71187 505.0
-248.41228 -188.08357 506.0
-245.34746 -188.45528 507.0
-241.7917 -188.45528 507.0
-238.70581 -188.827 508.0
-236.0688 -189.5704 510.0
-232.94788 -189.94211 511.0
-237.89227 -197.00453 530.0
-233.73338 -196.63283 529.0
-229.15366 -195.8894 527.0
-225.45763 -195.8894 527.0
-221.76161 -195.8894 527.0
-217.65181 -195.5177 526.0
-213.96278 -195.5177 526.0
-210.27376 -195.5177 526.0
-206.58475 -195.5177 526.0
-202.89574 -195.5177 526.0
-199.58545 -195.8894 527.0
-195.88943 -195.8894 527.0
-192.55807 -196.26112 528.0
-189.21272 -196.63283 529.0
-185.85333 -197.00453 530.0
-183.16724 -198.11964 533.0
-179.76578 -198.49135 534.0
-177.00952 -199.60648 537.0
-174.21121 -200.7216 540.0
-170.73961 -201.0933 541.0
-167.25398 -201.46501 542.0
-163.75433 -201.83672 543.0
-160.5352 -202.58012 545.0
-157.00047 -202.95183 546.0
-154.0128 -204.06696 549.0
-150.436 -204.43867 550.0
-147.1117 -205.18208 552.0
-143.7593 -205.92549 554.0
-277.3493 -192.01103 507.0
-273.2535 -191.63232 506.0
-268.63873 -190.87486 504.0
-265.104 -190.87486 504.0
-261.0503 -190.49615 503.0
-257.01062 -190.11743 502.0
-253.48993 -190.11743 502.0
-250.96512 -190.87486 504.0
-247.4304 -190.87486 504.0
-244.37961 -191.2536 505.0
-241.7917 -192.01103 507.0
-238.23592 -192.01103 507.0
-235.60593 -192.76846 509.0
-232.94788 -193.52592 511.0
-229.36407 -193.52592 511.0
-231.966 -198.828 525.0
-228.28401 -198.828 525.0
-224.602 -198.828 525.0
-220.92001 -198.828 525.0
-217.238 -198.828 525.0
-213.55602 -198.828 525.0
-209.87401 -198.828 525.0
-206.192 -198.828 525.0
-203.28148 -199.58543 527.0
-199.58545 -199.58543 527.0
-196.26114 -199.96416 528.0
-192.92276 -200.34286 529.0
-189.5704 -200.7216 530.0
-186.20401 -201.10031 531.0
-183.16724 -201.85776 533.0
-179.76578 -202.23647 534.0
-177.00952 -203.37263 537.0
-173.88858 -204.13007 539.0
-170.42401 -204.5088 540.0
-166.9454 -204.88751 541.0
-163.75433 -205.64496 543.0
-160.24063 -206.02367 544.0
-157.00047 -206.78111 546.0
-153.73227 -207.53856 548.0
-150.436 -208.296 550.0
-147.64471 -209.81087 554.0
-272.973 -192.48093 499.0
-270.01334 -192.86665 500.0
-267.03967 -193.25238 501.0
-262.474 -192.48093 499.0
-259.49335 -192.86665 500.0
-257.01062 -193.63812 502.0
-253.48993 -193.63812 502.0
-249.96924 -193.63812 502.0
-246.93947 -194.02386 503.0
-242.92786 -193.63812 502.0
-238.93025 -193.25238 501.0
-235.88646 -193.63812 502.0
-232.36577 -193.63812 502.0
-229.30095 -194.02386 503.0
-234.30145 -201.35278 522.0
-230.19865 -200.96706 521.0
-226.97952 -201.35278 522.0
-223.74638 -201.73853 523.0
-220.4992 -202.12425 524.0
-216.82423 -202.12425 524.0
-213.55602 -202.51 525.0
-210.27376 -202.89574 526.0
-206.58475 -202.89574 526.0
-204.05295 -204.05293 529.0
-200.3429 -204.05293 529.0
-196.63284 -204.05293 529.0
-193.28748 -204.43866 530.0
-189.92807 -204.82439 531.0
-186.90533 -205.59586 533.0
-183.5109 -205.98158 534.0
-179.76578 -205.98158 534.0
-177.00952 -207.1388 537.0
-173.56598 -207.52454 538.0
-170.42401 -208.29599 540.0
-166.63681 -208.29599 540.0
-163.45276 -209.06746 542.0
-160.24063 -209.83893 544.0
-157.00047 -210.61038 546.0
-153.73227 -211.38185 548.0
-271.33185 -194.80234 496.0
-268.39325 -195.19508 497.0
-265.44064 -195.58783 498.0
-261.948 -195.58783 498.0
-258.97437 -195.98058 499.0
-256.49866 -196.76607 501.0
-251.97504 -195.98058 499.0
-247.97745 -195.58783 498.0
-244.97574 -195.98058 499.0
-241.47609 -195.98058 499.0
-237.97646 -195.98058 499.0
-234.47676 -195.98058 499.0
-231.90288 -196.76607 501.0
-228.84508 -197.15881 502.0
-233.40375 -204.22826 520.0
-229.7568 -204.22826 520.0
-226.5447 -204.621 521.0
-223.31856 -205.01375 522.0
-220.4992 -205.79924 524.0
-217.238 -206.19199 525.0
-213.96278 -206.58475 526.0
-210.67352 -206.97748 527.0
-207.76299 -207.76297 529.0
-204.05295 -207.76297 529.0
-200.7216 -208.15572 530.0
-197.37625 -208.54848 531.0
-194.01686 -208.94121 532.0
-190.28577 -208.94121 532.0
-186.90533 -209.33397 533.0
-183.5109 -209.7267 534.0
-179.76578 -209.7267 534.0
-176.6799 -210.51219 536.0
-173.56598 -211.2977 538.0
-170.42401 -212.08319 540.0
-166.63681 -212.08319 540.0
-163.45276 -212.86868 542.0
-160.24063 -213.65417 544.0
-270.2378 -197.48145 494.0
-267.85324 -198.28096 496.0
-264.90762 -198.68073 497.0
-260.37 -197.88121 495.0
-256.37943 -197.48145 494.0
-253.4268 -197.88121 495.0
-249.95522 -197.88121 495.0
-246.98155 -198.28096 496.0
-243.50294 -198.28096 496.0
-240.50826 -198.68073 497.0
-236.54572 -198.28096 496.0
-233.53699 -198.68073 497.0
-230.97713 -199.48026 499.0
-227.47748 -199.48026 499.0
-224.42668 -199.88002 500.0
-229.7568 -207.87521 520.0
-226.5447 -208.27496 521.0
-223.74638 -209.0745 523.0
-220.92001 -209.87401 525.0
-217.65181 -210.27376 526.0
-214.36957 -210.67352 527.0
-211.47304 -211.47305 529.0
-207.76299 -211.47305 529.0
-204.43867 -211.87282 530.0
-201.47905 -212.67233 532.0
-198.11967 -213.0721 533.0
-194.38155 -213.0721 533.0
-190.64345 -213.0721 533.0
-187.25601 -213.47185 534.0
-183.5109 -213.47185 534.0
-179.76578 -213.47185 534.0
-176.6799 -214.27136 536.0
-173.56598 -215.07089 538.0
-170.42401 -215.8704 540.0
-167.25398 -216.66994 542.0
-163.75433 -217.0697 543.0
-269.1437 -200.13248 492.0
-266.23315 -200.53926 493.0
-262.24255 -200.13248 492.0
-258.79202 -200.13248 492.0
-255.34145 -200.13248 492.0
-252.40288 -200.53926 493.0
-249.45024 -200.94603 494.0
-245.98566 -200.94603 494.0
-243.01201 -201.35281 495.0
-240.02434 -201.75958 496.0
-236.54572 -201.75958 496.0
-233.0671 -201.75958 496.0
-229.58849 -201.75958 496.0
-227.47748 -202.97989 499.0
-223.97783 -202.97989 499.0
-230.19865 -211.92892 521.0
-227.41434 -212.74246 523.0
-224.1742 -213.14923 524.0
-221.3408 -213.96278 526.0
-218.06558 -214.36955 527.0
-215.18312 -215.18309 529.0
-211.47304 -215.18309 529.0
-208.54848 -215.99663 531.0
-205.21014 -216.40341 532.0
-201.85776 -216.8102 533.0
-198.49138 -217.21696 534.0
-194.74623 -217.21696 534.0
-191.00111 -217.21696 534.0
-187.25601 -217.21696 534.0
-183.5109 -217.21696 534.0
-180.1024 -217.62375 535.0
-177.00952 -218.4373 537.0
-174.21121 -219.6576 540.0
-171.0552 -220.47116 542.0
-167.87115 -221.28471 544.0
-266.4085 -201.5141 487.0
-262.99298 -201.5141 487.0
-260.64352 -202.34169 489.0
-257.21402 -202.34169 489.0
-254.82248 -203.16927 491.0
-251.8909 -203.58305 492.0
-248.94528 -203.99684 493.0
-245.98566 -204.41061 494.0
-242.52107 -204.41061 494.0
-239.5404 -204.8244 495.0
-235.59192 -204.41061 494.0
-232.59721 -204.8244 495.0
-229.58849 -205.23819 496.0
-226.10988 -205.23819 496.0
-223.52896 -206.06577 498.0
-230.64049 -215.99663 522.0
-227.41434 -216.41043 523.0
-224.602 -217.238 525.0
-221.3408 -217.6518 526.0
-218.06558 -218.06558 527.0
-215.18312 -218.89316 529.0
-211.8728 -219.30695 530.0
-208.94124 -220.13452 532.0
-205.98161 -220.9621 534.0
-202.2365 -220.9621 534.0
-198.49138 -220.9621 534.0
-195.11095 -221.37585 535.0
-191.35881 -221.37585 535.0
-187.95734 -221.78964 536.0
-184.1982 -221.78964 536.0
-180.7757 -222.20343 537.0
-177.66876 -223.031 539.0
-174.53381 -223.85858 541.0

