ply
format ascii 1.0
comment made by @arthurmuchir
element vertex 42
property float x
property float y
property float z
end_header
-244.34454 -206.75305 536.0
-240.5854 -206.75305 536.0
-237.70995 -207.52454 538.0
-234.37157 -207.91026 539.0
-230.59138 -207.91026 539.0
-226.8112 -207.91026 539.0
-243.43282 -209.7267 534.0
-239.6877 -209.7267 534.0
-236.38441 -210.11946 535.0
-233.0671 -210.51219 536.0
-229.30794 -210.51219 536.0
-225.9696 -210.90495 537.0
-222.20345 -210.90495 537.0
-252.28365 -211.47305 529.0
-249.04347 -211.87282 530.0
-245.32642 -211.87282 530.0
-242.52107 -212.67233 532.0
-239.6877 -213.47185 534.0
-235.94258 -213.47185 534.0
-232.19743 -213.47185 534.0
-228.88014 -213.87161 535.0
-225.54881 -214.27136 536.0
-221.78967 -214.27136 536.0
-251.80673 -214.77634 528.0
-248.10368 -214.77634 528.0
-244.86353 -215.18309 529.0
-241.60934 -215.58989 530.0
-238.34114 -215.99663 531.0
-234.61705 -215.99663 531.0
-231.76262 -216.8102 533.0
-228.02452 -216.8102 533.0
-225.54881 -218.03052 536.0
-257.74002 -217.238 525.0
-254.54195 -217.6518 526.0
-251.32983 -218.06558 527.0
-247.1639 -217.6518 526.0
-243.93776 -218.06558 527.0
-241.15347 -218.89316 529.0
-237.89227 -219.30695 530.0
-234.1752 -219.30695 530.0
-231.32779 -220.13452 532.0
-227.5967 -220.13452 532.0

