ply
format ascii 1.0
comment made by @arthurmuchir
element vertex 933
property float x
property float y
property float z
end_header
-139.17961 -115.32025 567.0
-135.20305 -115.32025 567.0
-151.9088 -119.928 570.0
-146.87323 -119.0864 566.0
-142.6512 -118.876 565.0
-137.95227 -118.2448 562.0
-134.72614 -118.876 565.0
-131.22649 -119.2968 567.0
-127.69878 -119.7176 569.0
-160.46507 -124.36042 572.0
-155.63289 -123.70819 569.0
-151.1093 -123.27335 567.0
-145.83525 -122.186295 562.0
-141.13632 -121.53405 559.0
-137.21587 -121.53405 559.0
-133.77232 -121.96888 561.0
-130.76361 -122.83853 565.0
-127.47434 -123.49076 568.0
-168.48831 -128.37204 572.0
-164.18915 -128.14763 571.0
-160.46507 -128.37204 572.0
-155.35936 -127.47434 568.0
-150.57628 -126.801056 565.0
-144.0188 -124.556786 555.0
-139.36896 -123.883514 552.0
-135.98854 -124.33237 554.0
-132.58006 -124.78123 556.0
-129.37497 -125.45449 559.0
-127.0255 -127.02548 566.0
-123.70818 -127.69876 569.0
-171.88278 -128.91206 557.0
-173.40468 -133.07799 575.0
-169.07744 -132.84656 574.0
-164.76425 -132.61511 573.0
-156.53761 -129.14351 558.0
-152.35065 -128.91206 557.0
-148.44423 -128.91206 557.0
-141.68336 -126.366234 546.0
-138.10657 -126.59767 547.0
-135.00667 -127.291985 550.0
-132.10316 -128.21776 554.0
-129.14354 -129.14351 558.0
-126.80106 -130.76358 565.0
-122.83854 -130.76358 565.0
-119.0864 -130.99504 566.0
-115.72703 -131.68935 569.0
-177.43735 -131.14934 550.0
-173.8956 -131.3878 551.0
-170.64842 -131.8647 553.0
-167.07164 -132.10315 554.0
-163.18623 -132.10315 554.0
-159.30086 -132.10315 554.0
-155.696 -132.34161 555.0
-151.8036 -132.34161 555.0
-143.9136 -128.76482 540.0
-140.3859 -129.00327 541.0
-137.09663 -129.48018 543.0
-134.02481 -130.19553 546.0
-131.14934 -131.14934 550.0
-128.9121 -132.81851 557.0
-126.127785 -134.01079 562.0
-122.40371 -134.24924 563.0
-118.87601 -134.72614 565.0
-115.11686 -134.9646 566.0
-111.54007 -135.44151 568.0
-184.81538 -134.76122 549.0
-180.6354 -134.51575 548.0
-177.11472 -134.76122 549.0
-173.58 -135.00667 550.0
-170.03127 -135.25214 551.0
-166.16692 -135.25214 551.0
-162.59712 -135.49762 552.0
-158.72577 -135.49762 552.0
-155.41547 -135.98854 554.0
-151.53009 -135.98854 554.0
-143.3806 -132.06107 538.0
-139.86691 -132.30655 539.0
-136.3392 -132.55202 540.0
-133.53387 -133.53387 544.0
-130.91089 -134.76122 549.0
-128.21777 -135.98854 554.0
-124.55679 -136.23401 555.0
-121.31664 -136.97041 558.0
-118.0344 -137.70682 561.0
-114.50671 -138.19774 563.0
-111.34369 -139.17961 567.0
-107.74584 -139.67055 569.0
-187.29108 -137.6016 545.0
-183.46881 -137.6016 545.0
-179.97617 -137.85408 546.0
-176.14688 -137.85408 546.0
-172.63321 -138.10657 547.0
-169.72267 -138.864 550.0
-165.56378 -138.61153 549.0
-162.00801 -138.864 550.0
-158.4382 -139.11649 551.0
-155.13493 -139.62144 553.0
-151.53009 -139.87393 554.0
-142.31458 -134.82433 534.0
-138.56944 -134.82433 534.0
-136.08672 -136.08673 539.0
-133.2884 -137.09665 543.0
-130.91089 -138.61153 549.0
-127.523445 -139.11649 551.0
-123.883514 -139.36897 552.0
-120.44698 -139.87393 554.0
-116.98241 -140.37888 556.0
-114.09992 -141.64128 561.0
-110.95094 -142.6512 565.0
-107.36712 -143.15616 567.0
-190.76268 -141.16438 544.0
-186.60376 -140.90488 543.0
-182.79553 -140.90488 543.0
-178.98727 -140.90488 543.0
-175.50165 -141.16438 544.0
-172.31761 -141.68336 546.0
-168.48834 -141.68336 546.0
-164.96063 -141.94286 547.0
-161.71342 -142.46185 549.0
-158.4382 -142.98082 551.0
-155.13493 -143.49982 553.0
-151.53009 -143.75931 554.0
-141.51505 -137.79097 531.0
-138.30994 -138.30995 533.0
-134.82433 -138.56944 534.0
-130.43398 -141.94286 547.0
-126.597694 -141.94286 547.0
-122.98581 -142.20235 548.0
-119.79475 -142.98082 551.0
-116.56161 -143.75931 554.0
-113.48977 -144.79729 558.0
-110.558205 -146.09476 563.0
-106.988396 -146.61372 565.0
-193.86256 -144.44661 542.0
-189.71068 -144.1801 541.0
-185.5728 -143.9136 540.0
-181.78561 -143.9136 540.0
-178.65765 -144.44661 542.0
-175.17905 -144.71312 543.0
-171.6864 -144.97963 544.0
-168.48834 -145.51263 546.0
-165.2622 -146.04564 548.0
-161.71342 -146.31215 549.0
-158.4382 -146.84518 551.0
-155.41547 -147.6447 554.0
-145.23914 -141.51503 531.0
-140.98204 -140.98203 529.0
-137.53146 -141.24854 530.0
-134.57184 -142.04805 533.0
-133.04294 -144.44661 542.0
-129.00327 -144.1801 541.0
-125.671936 -144.71312 543.0
-122.536964 -145.51263 546.0
-119.14251 -146.04564 548.0
-116.1408 -147.11168 552.0
-113.286385 -148.44421 557.0
-110.361824 -149.77673 562.0
-106.988396 -150.57628 565.0
-192.78952 -147.42728 539.0
-188.30801 -146.88023 537.0
-184.54185 -146.88023 537.0
-181.11234 -147.15375 538.0
-177.66876 -147.42728 539.0
-174.53381 -147.97432 541.0
-171.3708 -148.52135 543.0
-168.17973 -149.0684 545.0
-165.2622 -149.88895 548.0
-162.00801 -150.436 550.0
-159.01332 -151.25655 553.0
-156.53761 -152.62415 558.0
-155.08585 -155.08583 567.0
-140.98204 -144.69206 529.0
-137.53146 -144.9656 530.0
-134.82433 -146.05968 534.0
-132.30653 -147.42728 539.0
-128.7648 -147.7008 540.0
-124.977615 -147.7008 540.0
-122.088104 -148.79488 544.0
-118.925095 -149.61543 547.0
-115.930405 -150.70952 551.0
-112.8796 -151.8036 555.0
-109.37996 -152.35063 557.0
-196.9344 -151.48799 540.0
-192.07416 -150.6464 537.0
-187.95734 -150.36586 536.0
-183.85454 -150.08533 535.0
-180.43906 -150.36586 536.0
-177.00952 -150.6464 537.0
-174.21121 -151.48799 540.0
-170.73961 -151.76852 541.0
-167.87115 -152.61012 544.0
-164.96063 -153.45174 547.0
-162.30257 -154.57385 551.0
-159.30086 -155.41545 554.0
-158.22081 -158.2208 564.0
-154.81233 -158.78186 566.0
-151.37581 -159.34293 568.0
-138.56944 -149.8048 534.0
-134.82433 -149.8048 534.0
-131.57014 -150.36586 536.0
-128.2879 -150.92693 538.0
-124.977615 -151.48799 540.0
-121.63925 -152.04906 542.0
-118.49027 -152.89066 545.0
-115.088806 -153.45174 547.0
-111.25252 -153.45174 547.0
-108.79083 -155.41545 554.0
-105.66287 -156.53758 558.0
-199.60649 -154.41255 537.0
-195.47563 -154.125 536.0
-191.00111 -153.54991 534.0
-187.25601 -153.54991 534.0
-183.5109 -153.54991 534.0
-179.76578 -153.54991 534.0
-176.6799 -154.125 536.0
-173.88858 -154.98764 539.0
-170.42401 -155.27519 540.0
-167.56256 -156.13782 543.0
-164.65904 -157.00047 546.0
-161.71342 -157.8631 549.0
-159.30086 -159.30084 554.0
-158.50134 -162.46385 565.0
-155.08585 -163.03896 567.0
-151.37581 -163.32649 568.0
-138.05045 -152.97481 532.0
-134.57184 -153.26236 533.0
-131.07921 -153.54991 534.0
-128.04945 -154.41255 537.0
-124.977615 -155.27519 540.0
-121.414825 -155.56273 541.0
-116.31614 -153.83746 535.0
-113.616005 -155.27519 540.0
-110.64236 -156.42537 544.0
-107.21985 -157.00047 546.0
-88.957115 -173.67818 604.0
-85.0016 -174.25327 606.0
-80.88478 -174.54082 607.0
-76.75394 -174.82837 608.0
-202.99394 -157.88417 536.0
-198.86307 -157.58961 535.0
-194.74623 -157.29504 534.0
-190.28577 -156.70593 532.0
-186.55467 -156.70593 532.0
-182.82358 -156.70593 532.0
-179.42914 -157.00049 533.0
-176.35027 -157.58961 535.0
-173.56598 -158.4733 538.0
-170.42401 -159.06241 540.0
-167.56256 -159.94609 543.0
-164.65904 -160.82976 546.0
-161.41887 -161.4189 548.0
-162.17632 -166.13185 564.0
-158.50134 -166.4264 565.0
-155.08585 -167.01553 567.0
-151.37581 -167.31009 568.0
-137.27197 -155.82225 529.0
-133.8144 -156.1168 530.0
-130.83374 -157.00049 533.0
-127.33409 -157.29504 534.0
-120.580246 -153.46576 521.0
-115.88131 -157.00049 533.0
-112.564 -157.58961 535.0
-109.828804 -159.06241 540.0
-106.63074 -159.94609 543.0
-100.150406 -175.26321 595.0
-96.30009 -175.85233 597.0
-92.42171 -176.44145 599.0
-88.51528 -177.03058 601.0
-84.44054 -177.32513 602.0
-80.48502 -177.91425 604.0
-76.62769 -178.79793 607.0
-202.2365 -161.04016 534.0
-198.11967 -160.73859 533.0
-193.65216 -160.13545 531.0
-189.5704 -159.83388 530.0
-185.85333 -159.83388 530.0
-182.47993 -160.13545 531.0
-179.0925 -160.43703 532.0
-176.02063 -161.04016 534.0
-173.24336 -161.94489 537.0
-170.42401 -162.84961 540.0
-167.56256 -163.75433 543.0
-164.65904 -164.65904 546.0
-165.54272 -169.48422 562.0
-161.88878 -169.78578 563.0
-158.50134 -170.38895 565.0
-155.08585 -170.99208 567.0
-151.37581 -171.29366 568.0
-137.27197 -159.53229 529.0
-133.8144 -159.83388 530.0
-130.83374 -160.73859 533.0
-127.33409 -161.04016 534.0
-120.580246 -157.11972 521.0
-116.92629 -157.11972 521.0
-114.142006 -158.32602 525.0
-111.9328 -160.43703 532.0
-109.21865 -161.94489 537.0
-106.63074 -163.75433 543.0
-107.94923 -178.53142 592.0
-103.79734 -178.53142 592.0
-99.81377 -178.833 593.0
-96.13879 -179.73772 596.0
-92.11311 -180.03928 597.0
-88.22072 -180.64244 599.0
-84.30027 -181.24557 601.0
-80.35177 -181.84872 603.0
-76.50146 -182.75345 606.0
-205.98161 -164.78528 534.0
-201.47905 -164.1681 532.0
-197.00455 -163.55095 530.0
-192.92276 -163.24236 529.0
-189.21272 -163.24236 529.0
-185.50267 -163.24236 529.0
-182.13628 -163.55095 530.0
-179.0925 -164.1681 532.0
-176.02063 -164.78528 534.0
-172.92075 -165.40247 536.0
-170.42401 -166.6368 540.0
-167.56256 -167.56256 543.0
-164.96063 -168.7969 547.0
-164.95361 -172.80855 560.0
-161.31367 -173.11711 561.0
-158.22081 -174.04288 564.0
-155.08585 -174.96864 567.0
-151.1093 -174.96864 567.0
-147.39221 -175.27724 568.0
-143.40865 -175.27724 568.0
-139.17961 -174.96864 567.0
-124.23419 -160.77367 521.0
-120.348816 -160.46507 520.0
-116.701866 -160.46507 520.0
-113.48976 -161.08224 522.0
-111.301605 -163.24236 529.0
-110.96495 -180.83179 586.0
-107.21984 -181.44896 588.0
-103.622 -182.37473 591.0
-99.64545 -182.6833 592.0
-95.81617 -183.30048 594.0
-91.95882 -183.91766 596.0
-88.07344 -184.53484 598.0
-84.16 -185.152 600.0
-80.48502 -186.38635 604.0
-210.5122 -169.1616 536.0
-205.98161 -168.5304 534.0
-200.7216 -167.268 530.0
-196.63284 -166.9524 529.0
-192.92276 -166.9524 529.0
-189.21272 -166.9524 529.0
-185.50267 -166.9524 529.0
-181.79263 -166.9524 529.0
-178.75584 -167.5836 531.0
-176.02063 -168.5304 534.0
-172.92075 -169.1616 536.0
-170.42401 -170.424 540.0
-167.56256 -171.3708 543.0
-164.65904 -172.3176 546.0
-164.65903 -176.4204 559.0
-161.31367 -177.0516 561.0
-158.22081 -177.9984 564.0
-154.5388 -178.314 565.0
-150.57628 -178.314 565.0
-146.87323 -178.6296 566.0
-143.15616 -178.9452 567.0
-138.93414 -178.6296 566.0
-134.72614 -178.314 565.0
-120.11737 -163.7964 519.0
-116.701866 -164.112 520.0
-113.27235 -164.4276 521.0
-111.301605 -166.9524 529.0
-114.092926 -183.3636 581.0
-110.58624 -184.3104 584.0
-107.03749 -185.2572 587.0
-103.27134 -185.8884 589.0
-99.47713 -186.5196 591.0
-95.65487 -187.1508 593.0
-91.95882 -188.0976 596.0
-87.92616 -188.4132 597.0
-244.62508 -175.82426 545.0
-209.72672 -172.27551 534.0
-205.21014 -171.6303 532.0
-200.7216 -170.98506 530.0
-196.63284 -170.66245 529.0
-192.55807 -170.33983 528.0
-188.85506 -170.33983 528.0
-185.50267 -170.66245 529.0
-181.79263 -170.66245 529.0
-178.4192 -170.98506 530.0
-175.69101 -171.95291 533.0
-173.24336 -173.24335 537.0
-170.42401 -174.2112 540.0
-167.87115 -175.50165 544.0
-165.86534 -177.43733 550.0
-164.36447 -180.01823 558.0
-161.02614 -180.66345 560.0
-157.65974 -181.3087 562.0
-153.99176 -181.6313 563.0
-150.30978 -181.95392 564.0
-146.61374 -182.27654 565.0
-142.6512 -182.27654 565.0
-138.68867 -182.27654 565.0
-134.72614 -182.27654 565.0
-130.76361 -182.27654 565.0
-127.69878 -183.56699 569.0
-124.14301 -184.21222 571.0
-120.98 -185.50266 575.0
-117.5575 -186.4705 578.0
-114.092926 -187.43834 581.0
-110.58624 -188.40619 584.0
-107.03749 -189.37402 587.0
-103.27134 -190.01924 589.0
-99.47713 -190.66447 591.0
-95.49356 -190.98709 592.0
-246.16801 -177.99838 540.0
-242.82967 -178.32802 541.0
-239.4773 -178.65765 542.0
-219.65761 -177.99838 540.0
-213.47183 -176.02063 534.0
-209.72672 -176.02063 534.0
-204.8244 -175.03175 531.0
-200.3429 -174.37251 529.0
-196.63284 -174.37251 529.0
-192.55807 -174.04288 528.0
-188.85506 -174.04288 528.0
-185.50267 -174.37251 529.0
-181.79263 -174.37251 529.0
-178.4192 -174.70213 530.0
-176.02063 -176.02063 534.0
-173.24336 -177.00952 537.0
-171.0552 -178.65765 542.0
-168.48834 -179.97615 546.0
-166.77007 -182.28354 553.0
-163.4808 -182.9428 555.0
-160.1635 -183.60205 557.0
-156.81815 -184.26129 559.0
-153.44473 -184.92055 561.0
-149.51025 -184.92055 561.0
-145.83525 -185.25018 562.0
-142.39871 -185.90944 564.0
-138.68867 -186.23906 565.0
-134.72614 -186.23906 565.0
-130.99504 -186.56868 566.0
-127.47434 -187.22794 568.0
-124.14301 -188.21683 571.0
-120.76961 -189.20569 574.0
-117.5575 -190.52422 578.0
-114.092926 -191.51308 581.0
-110.58624 -192.50197 584.0
-106.85515 -193.16122 586.0
-252.28365 -178.08255 529.0
-246.69402 -176.736 525.0
-242.54912 -176.39935 524.0
-239.33 -176.736 525.0
-235.64801 -176.736 525.0
-239.91914 -182.7955 543.0
-235.24123 -182.12224 541.0
-230.59138 -181.44896 539.0
-222.20345 -180.77567 537.0
-217.62375 -180.10239 535.0
-213.47183 -179.76575 534.0
-209.33398 -179.42911 533.0
-204.8244 -178.75583 531.0
-200.3429 -178.08255 529.0
-196.26114 -177.74591 528.0
-192.55807 -177.74591 528.0
-188.85506 -177.74591 528.0
-185.50267 -178.08255 529.0
-181.79263 -178.08255 529.0
-179.0925 -179.09247 532.0
-176.02063 -179.76575 534.0
-173.88858 -181.44896 539.0
-171.3708 -182.7955 543.0
-168.79692 -184.14207 547.0
-166.77007 -186.16191 553.0
-163.18623 -186.49855 554.0
-159.58841 -186.83519 555.0
-156.25706 -187.50847 557.0
-152.62416 -187.84511 558.0
-148.97725 -188.18175 559.0
-145.31627 -188.51839 560.0
-141.89377 -189.19167 562.0
-138.4432 -189.86496 564.0
-134.72614 -190.20158 565.0
-130.99504 -190.53824 566.0
-127.47434 -191.2115 568.0
-124.14301 -192.22144 571.0
-120.76961 -193.23135 574.0
-117.35411 -194.24127 577.0
-265.104 -180.41801 525.0
-260.42612 -179.73071 523.0
-256.2672 -179.38705 522.0
-252.12234 -179.0434 521.0
-248.46838 -179.0434 521.0
-244.81444 -179.0434 521.0
-241.16048 -179.0434 521.0
-238.87415 -180.07436 524.0
-236.54572 -181.10532 527.0
-236.38441 -183.85454 535.0
-233.50192 -184.54185 537.0
-229.30794 -184.1982 536.0
-225.54881 -184.1982 536.0
-220.9621 -183.5109 534.0
-216.81021 -183.16724 533.0
-212.67232 -182.8236 532.0
-208.94124 -182.8236 532.0
-204.43867 -182.13629 530.0
-200.3429 -181.79262 529.0
-196.63284 -181.79262 529.0
-192.55807 -181.44897 528.0
-188.85506 -181.44897 528.0
-185.50267 -181.79262 529.0
-182.13628 -182.13629 530.0
-179.42914 -183.16724 533.0
-176.02063 -183.5109 534.0
-174.21121 -185.57281 540.0
-172.002 -187.29108 545.0
-169.1055 -188.32204 548.0
-165.86534 -189.00934 550.0
-162.30257 -189.353 551.0
-159.30086 -190.38396 554.0
-155.41547 -190.38396 554.0
-151.53009 -190.38396 554.0
-148.44423 -191.41492 557.0
-144.53778 -191.41492 557.0
-141.64128 -192.78954 561.0
-138.19774 -193.47684 563.0
-134.72614 -194.16414 565.0
-130.99504 -194.5078 566.0
-127.47434 -195.19511 568.0
-124.36043 -196.56972 572.0
-282.49707 -185.85335 530.0
-278.254 -185.50267 529.0
-272.46802 -184.1 525.0
-268.786 -184.1 525.0
-263.08417 -182.69734 521.0
-258.93228 -182.34666 520.0
-255.28534 -182.34666 520.0
-251.1545 -181.99602 519.0
-247.03767 -181.64534 518.0
-242.93486 -181.29468 517.0
-239.30896 -181.29468 517.0
-237.50655 -182.69734 521.0
-239.6877 -187.25601 534.0
-236.38441 -187.60667 535.0
-232.19743 -187.25601 534.0
-228.45232 -187.25601 534.0
-224.2864 -186.90533 533.0
-220.13452 -186.55467 532.0
-215.99666 -186.20401 531.0
-212.27257 -186.20401 531.0
-208.15575 -185.85335 530.0
-204.05295 -185.50267 529.0
-200.3429 -185.50267 529.0
-196.63284 -185.50267 529.0
-192.55807 -185.15201 528.0
-188.85506 -185.15201 528.0
-185.50267 -185.50267 529.0
-182.47993 -186.20401 531.0
-179.42914 -186.90533 533.0
-177.00952 -188.30801 537.0
-174.53381 -189.71068 541.0
-172.002 -191.11334 545.0
-168.79692 -191.81467 547.0
-165.2622 -192.16534 548.0
-162.00801 -192.86667 550.0
-158.4382 -193.21735 551.0
-155.13493 -193.91867 553.0
-151.53009 -194.26935 554.0
-147.64471 -194.26935 554.0
-144.27829 -194.97067 556.0
-140.88383 -195.67201 558.0
-137.95227 -197.07468 562.0
-134.48769 -197.77602 564.0
-130.99504 -198.47734 566.0
-127.69878 -199.52934 569.0
-124.57784 -200.932 573.0
-286.10193 -187.06665 523.0
-281.3539 -186.35129 521.0
-275.5679 -184.92056 517.0
-271.94202 -184.92056 517.0
-268.31613 -184.92056 517.0
-264.69022 -184.92056 517.0
-261.06433 -184.92056 517.0
-257.43845 -184.92056 517.0
-252.33974 -183.84753 514.0
-247.76706 -183.13217 512.0
-244.17622 -183.13217 512.0
-240.58539 -183.13217 512.0
-237.92032 -183.84753 514.0
-234.31548 -183.84753 514.0
-238.78998 -190.28577 532.0
-235.50073 -190.64345 533.0
-231.76262 -190.64345 533.0
-227.5967 -190.28577 532.0
-223.024 -189.5704 530.0
-219.30695 -189.5704 530.0
-215.58987 -189.5704 530.0
-211.47304 -189.21274 529.0
-207.76299 -189.21274 529.0
-204.05295 -189.21274 529.0
-199.96416 -188.85504 528.0
-196.26114 -188.85504 528.0
-192.55807 -188.85504 528.0
-189.21272 -189.21274 529.0
-185.50267 -189.21274 529.0
-182.47993 -189.92809 531.0
-179.76578 -191.00113 534.0
-177.00952 -192.07416 537.0
-174.53381 -193.50488 541.0
-172.002 -194.9356 545.0
-168.48834 -195.29329 546.0
-164.65904 -195.29329 546.0
-161.12431 -195.65097 547.0
-157.86311 -196.36633 549.0
-154.57387 -197.08168 551.0
-150.98305 -197.43936 552.0
-147.64471 -198.15472 554.0
-143.7593 -198.15472 554.0
-140.63136 -199.22777 557.0
-137.7068 -200.65848 561.0
-134.24924 -201.37384 563.0
-130.99504 -202.44688 566.0
-281.72562 -187.81708 515.0
-277.5737 -187.45238 514.0
-274.50186 -187.81708 515.0
-271.94202 -188.54646 517.0
-268.31613 -188.54646 517.0
-263.6663 -187.81708 515.0
-260.0544 -187.81708 515.0
-255.9446 -187.45238 514.0
-249.39415 -185.2642 508.0
-246.79921 -185.9936 510.0
-243.22241 -185.9936 510.0
-239.1757 -185.6289 509.0
-236.53168 -186.35829 511.0
-232.94788 -186.35829 511.0
-237.89227 -193.28748 530.0
-234.1752 -193.28748 530.0
-230.0233 -192.92278 529.0
-226.31325 -192.92278 529.0
-222.60321 -192.92278 529.0
-218.89316 -192.92278 529.0
-215.18312 -192.92278 529.0
-211.07327 -192.55809 528.0
-206.9775 -192.19339 527.0
-203.28148 -192.19339 527.0
-199.58545 -192.19339 527.0
-195.88943 -192.19339 527.0
-192.19339 -192.19339 527.0
-189.21272 -192.92278 529.0
-185.85333 -193.28748 530.0
-182.82358 -194.01686 532.0
-179.76578 -194.74625 534.0
-177.00952 -195.84032 537.0
-174.21121 -196.9344 540.0
-171.6864 -198.39317 544.0
-167.87115 -198.39317 544.0
-164.05591 -198.39317 544.0
-160.82976 -199.12256 546.0
-157.57558 -199.85196 548.0
-154.29333 -200.58133 550.0
-150.436 -200.58133 550.0
-147.1117 -201.31071 552.0
-143.7593 -202.0401 554.0
-140.63136 -203.13419 557.0
-137.46133 -204.22827 560.0
-279.53745 -189.94211 511.0
-275.95364 -189.94211 511.0
-272.3698 -189.94211 511.0
-266.156 -188.08357 506.0
-263.12625 -188.45528 507.0
-258.03458 -187.34015 504.0
-254.49983 -187.34015 504.0
-251.96101 -188.08357 506.0
-248.90321 -188.45528 507.0
-245.34746 -188.45528 507.0
-241.7917 -188.45528 507.0
-238.70581 -188.827 508.0
-236.53168 -189.94211 511.0
-232.94788 -189.94211 511.0
-228.46635 -189.1987 509.0
-233.73338 -196.63283 529.0
-229.58849 -196.26112 528.0
-225.88545 -196.26112 528.0
-221.76161 -195.8894 527.0
-218.06558 -195.8894 527.0
-214.36957 -195.8894 527.0
-210.67352 -195.8894 527.0
-206.58475 -195.5177 526.0
-203.28148 -195.8894 527.0
-199.58545 -195.8894 527.0
-195.88943 -195.8894 527.0
-192.55807 -196.26112 528.0
-189.21272 -196.63283 529.0
-185.85333 -197.00453 530.0
-183.16724 -198.11964 533.0
-179.76578 -198.49135 534.0
-177.00952 -199.60648 537.0
-174.21121 -200.7216 540.0
-170.73961 -201.0933 541.0
-167.25398 -201.46501 542.0
-163.75433 -201.83672 543.0
-160.82976 -202.95183 546.0
-157.28802 -203.32355 547.0
-154.29333 -204.43867 550.0
-150.436 -204.43867 550.0
-147.1117 -205.18208 552.0
-144.0188 -206.2972 555.0
-140.88383 -207.41232 558.0
-277.89633 -192.38976 508.0
-274.33356 -192.38976 508.0
-268.63873 -190.87486 504.0
-265.104 -190.87486 504.0
-261.5693 -190.87486 504.0
-258.03458 -190.87486 504.0
-254.49983 -190.87486 504.0
-250.96512 -190.87486 504.0
-248.41228 -191.63232 506.0
-245.34746 -192.01103 507.0
-241.31479 -191.63232 506.0
-238.23592 -192.01103 507.0
-235.60593 -192.76846 509.0
-232.94788 -193.52592 511.0
-229.36407 -193.52592 511.0
-233.73338 -200.34286 529.0
-228.71883 -199.20671 526.0
-225.02982 -199.20671 526.0
-221.3408 -199.20671 526.0
-217.238 -198.828 525.0
-213.96278 -199.20671 526.0
-210.27376 -199.20671 526.0
-206.58475 -199.20671 526.0
-203.28148 -199.58543 527.0
-199.96416 -199.96416 528.0
-196.63284 -200.34286 529.0
-192.92276 -200.34286 529.0
-189.5704 -200.7216 530.0
-186.55467 -201.47903 532.0
-183.16724 -201.85776 533.0
-179.76578 -202.23647 534.0
-177.00952 -203.37263 537.0
-173.88858 -204.13007 539.0
-170.42401 -204.5088 540.0
-166.9454 -204.88751 541.0
-163.75433 -205.64496 543.0
-160.24063 -206.02367 544.0
-157.00047 -206.78111 546.0
-153.73227 -207.53856 548.0
-150.436 -208.296 550.0
-147.3782 -209.43216 553.0
-144.53778 -210.94704 557.0
-272.973 -192.48093 499.0
-271.09338 -193.63812 502.0
-267.5727 -193.63812 502.0
-264.052 -193.63812 502.0
-260.5313 -193.63812 502.0
-257.01062 -193.63812 502.0
-253.48993 -193.63812 502.0
-250.96512 -194.40959 504.0
-247.4304 -194.40959 504.0
-243.41176 -194.02386 503.0
-239.40717 -193.63812 502.0
-235.88646 -193.63812 502.0
-232.82866 -194.02386 503.0
-230.21268 -194.79533 505.0
-227.56865 -195.56679 507.0
-231.08234 -201.73853 523.0
-227.41434 -201.73853 523.0
-224.1742 -202.12425 524.0
-220.4992 -202.12425 524.0
-217.238 -202.51 525.0
-213.55602 -202.51 525.0
-210.27376 -202.89574 526.0
-206.58475 -202.89574 526.0
-203.6672 -203.66719 528.0
-200.3429 -204.05293 529.0
-197.00455 -204.43866 530.0
-193.65216 -204.82439 531.0
-190.28577 -205.21013 532.0
-186.90533 -205.59586 533.0
-183.5109 -205.98158 534.0
-180.1024 -206.36732 535.0
-177.00952 -207.1388 537.0
-173.56598 -207.52454 538.0
-170.42401 -208.29599 540.0
-166.63681 -208.29599 540.0
-163.45276 -209.06746 542.0
-160.24063 -209.83893 544.0
-157.00047 -210.61038 546.0
-153.73227 -211.38185 548.0
-150.436 -212.15334 550.0
-271.33185 -194.80234 496.0
-268.9333 -195.58783 498.0
-265.97366 -195.98058 499.0
-262.474 -195.98058 499.0
-260.01233 -196.76607 501.0
-257.01062 -197.15881 502.0
-253.48993 -197.15881 502.0
-248.97334 -196.37332 500.0
-245.46667 -196.37332 500.0
-241.96 -196.37332 500.0
-238.45334 -196.37332 500.0
-234.94667 -196.37332 500.0
-231.90288 -196.76607 501.0
-228.84508 -197.15881 502.0
-226.22209 -197.9443 504.0
-230.19865 -204.621 521.0
-226.5447 -204.621 521.0
-223.31856 -205.01375 522.0
-220.4992 -205.79924 524.0
-216.82423 -205.79924 524.0
-213.55602 -206.19199 525.0
-210.67352 -206.97748 527.0
-207.76299 -207.76297 529.0
-204.05295 -207.76297 529.0
-200.7216 -208.15572 530.0
-197.37625 -208.54848 531.0
-194.01686 -208.94121 532.0
-190.64345 -209.33397 533.0
-186.90533 -209.33397 533.0
-183.5109 -209.7267 534.0
-180.1024 -210.11946 535.0
-176.6799 -210.51219 536.0
-173.56598 -211.2977 538.0
-170.42401 -212.08319 540.0
-166.63681 -212.08319 540.0
-163.75433 -213.26143 543.0
-160.5352 -214.04692 545.0
-157.00047 -214.43967 546.0
-270.78482 -197.88121 495.0
-267.85324 -198.28096 496.0
-265.44064 -199.08049 498.0
-260.896 -198.28096 496.0
-257.41742 -198.28096 496.0
-253.93878 -198.28096 496.0
-250.96512 -198.68073 497.0
-247.47949 -198.68073 497.0
-243.99388 -198.68073 497.0
-240.50826 -198.68073 497.0
-237.49954 -199.08049 498.0
-234.00688 -199.08049 498.0
-230.97713 -199.48026 499.0
-228.3892 -200.27977 501.0
-225.32439 -200.67953 502.0
-230.19865 -208.27496 521.0
-226.5447 -208.27496 521.0
-223.74638 -209.0745 523.0
-220.92001 -209.87401 525.0
-217.238 -209.87401 525.0
-214.36957 -210.67352 527.0
-211.47304 -211.47305 529.0
-208.15575 -211.87282 530.0
-204.8244 -212.27257 531.0
-201.47905 -212.67233 532.0
-198.11967 -213.0721 533.0
-194.74623 -213.47185 534.0
-191.00111 -213.47185 534.0
-187.25601 -213.47185 534.0
-183.5109 -213.47185 534.0
-180.1024 -213.87161 535.0
-176.6799 -214.27136 536.0
-173.56598 -215.07089 538.0
-170.42401 -215.8704 540.0
-167.25398 -216.66994 542.0
-163.75433 -217.0697 543.0
-160.82976 -218.26897 546.0
-269.69073 -200.53926 493.0
-266.77316 -200.94603 494.0
-263.3086 -200.94603 494.0
-259.31802 -200.53926 493.0
-255.86043 -200.53926 493.0
-252.91486 -200.94603 494.0
-249.45024 -200.94603 494.0
-246.48361 -201.35281 495.0
-243.50294 -201.75958 496.0
-240.02434 -201.75958 496.0
-236.54572 -201.75958 496.0
-233.0671 -201.75958 496.0
-230.05136 -202.16635 497.0
-227.47748 -202.97989 499.0
-223.97783 -202.97989 499.0
-230.19865 -211.92892 521.0
-227.41434 -212.74246 523.0
-224.1742 -213.14923 524.0
-221.76161 -214.36955 527.0
-218.06558 -214.36955 527.0
-215.18312 -215.18309 529.0
-211.8728 -215.58989 530.0
-208.54848 -215.99663 531.0
-205.59587 -216.8102 533.0
-202.2365 -217.21696 534.0
-198.49138 -217.21696 534.0
-194.74623 -217.21696 534.0
-191.00111 -217.21696 534.0
-187.25601 -217.21696 534.0
-183.85454 -217.62375 535.0
-180.43906 -218.03052 536.0
-177.00952 -218.4373 537.0
-173.88858 -219.25082 539.0
-170.73961 -220.06438 541.0
-167.56256 -220.87793 543.0
-266.4085 -201.5141 487.0
-264.07303 -202.34169 489.0
-260.64352 -202.34169 489.0
-257.74002 -202.75548 490.0
-254.82248 -203.16927 491.0
-251.8909 -203.58305 492.0
-248.94528 -203.99684 493.0
-245.98566 -204.41061 494.0
-243.01201 -204.8244 495.0
-240.02434 -205.23819 496.0
-236.54572 -205.23819 496.0
-233.0671 -205.23819 496.0
-229.58849 -205.23819 496.0
-226.56573 -205.65198 497.0
-223.97783 -206.47955 499.0
-230.64049 -215.99663 522.0
-227.41434 -216.41043 523.0
-224.602 -217.238 525.0
-221.3408 -217.6518 526.0
-218.06558 -218.06558 527.0
-215.18312 -218.89316 529.0
-211.8728 -219.30695 530.0
-208.94124 -220.13452 532.0
-205.98161 -220.9621 534.0
-202.2365 -220.9621 534.0
-198.86307 -221.37585 535.0
-195.47563 -221.78964 536.0
-191.35881 -221.37585 535.0
-187.95734 -221.78964 536.0
-184.1982 -221.78964 536.0
-180.7757 -222.20343 537.0
-177.66876 -223.031 539.0
-174.21121 -223.4448 540.0

