ply
format ascii 1.0
comment made by @arthurmuchir
element vertex 18
property float x
property float y
property float z
end_header
-364.83362 -279.70578 867.0
-359.58063 -280.35098 869.0
-372.62543 -287.10483 871.0
-368.2 -288.4233 875.0
-362.06335 -288.4233 875.0
-368.2 -294.55997 875.0
-364.1323 -296.24316 880.0
-357.96054 -296.24316 880.0
-369.4624 -301.72766 878.0
-377.33136 -309.28802 882.0
-371.1456 -309.28802 882.0
-359.99442 -310.34003 885.0
-378.6148 -316.5468 885.0
-373.2496 -317.26218 887.0
-367.0288 -317.26218 887.0
-360.80795 -317.26218 887.0
-378.6148 -322.7536 885.0
-373.2496 -323.483 887.0

