ply
format ascii 1.0
comment made by @arthurmuchir
element vertex 925
property float x
property float y
property float z
end_header
-135.4415 -115.523636 568.0
-151.64232 -119.7176 569.0
-147.39221 -119.5072 568.0
-142.6512 -118.876 565.0
-137.95227 -118.2448 562.0
-134.72614 -118.876 565.0
-131.45793 -119.5072 568.0
-160.46507 -124.36042 572.0
-155.35936 -123.49076 568.0
-151.1093 -123.27335 567.0
-145.05676 -121.53405 559.0
-141.13632 -121.53405 559.0
-137.21587 -121.53405 559.0
-134.01079 -122.186295 562.0
-130.76361 -122.83853 565.0
-127.69878 -123.70819 569.0
-168.48831 -128.37204 572.0
-163.90161 -127.92319 570.0
-160.18454 -128.14763 571.0
-155.35936 -127.47434 568.0
-151.37581 -127.47434 568.0
-143.7593 -124.33237 554.0
-139.62144 -124.10794 553.0
-135.98854 -124.33237 554.0
-132.81851 -125.005646 557.0
-129.83784 -125.90335 561.0
-172.80154 -132.61511 573.0
-164.06992 -128.91206 557.0
-164.76425 -132.61511 573.0
-156.53761 -129.14351 558.0
-152.62416 -129.14351 558.0
-146.84518 -127.52344 551.0
-141.94286 -126.59767 547.0
-138.35904 -126.8291 548.0
-135.25214 -127.52344 551.0
-132.10316 -128.21776 554.0
-129.60641 -129.60638 560.0
-126.57664 -130.53215 564.0
-123.70818 -131.68935 569.0
-119.717606 -131.68935 569.0
-115.72703 -131.68935 569.0
-181.29468 -131.14934 550.0
-177.11472 -130.91089 549.0
-173.58 -131.14934 550.0
-170.33984 -131.62625 552.0
-167.07164 -132.10315 554.0
-163.18623 -132.10315 554.0
-159.30086 -132.10315 554.0
-155.696 -132.34161 555.0
-151.8036 -132.34161 555.0
-143.9136 -128.76482 540.0
-140.64539 -129.24171 542.0
-137.09663 -129.48018 543.0
-134.27028 -130.43399 547.0
-131.14934 -131.14934 550.0
-128.68065 -132.58008 556.0
-125.90336 -133.77232 561.0
-122.186295 -134.01079 562.0
-118.87601 -134.72614 565.0
-115.523636 -135.44151 568.0
-111.932816 -135.91841 570.0
-188.6657 -134.76122 549.0
-184.47874 -134.51575 548.0
-180.6354 -134.51575 548.0
-176.79211 -134.51575 548.0
-173.58 -135.00667 550.0
-170.03127 -135.25214 551.0
-166.16692 -135.25214 551.0
-162.59712 -135.49762 552.0
-159.01332 -135.74307 553.0
-155.41547 -135.98854 554.0
-151.53009 -135.98854 554.0
-143.64711 -132.30655 539.0
-139.86691 -132.30655 539.0
-136.3392 -132.55202 540.0
-134.02481 -134.02481 546.0
-131.14934 -135.00667 550.0
-128.21777 -135.98854 554.0
-124.78123 -136.47948 556.0
-121.31664 -136.97041 558.0
-118.0344 -137.70682 561.0
-114.91347 -138.68867 565.0
-111.54007 -139.42506 568.0
-108.12456 -140.16147 571.0
-187.63474 -137.85408 546.0
-183.80545 -137.85408 546.0
-179.97617 -137.85408 546.0
-176.14688 -137.85408 546.0
-172.9488 -138.35905 548.0
-169.4141 -138.61153 549.0
-165.56378 -138.61153 549.0
-162.00801 -138.864 550.0
-158.4382 -139.11649 551.0
-155.13493 -139.62144 553.0
-151.53009 -139.87393 554.0
-142.31458 -134.82433 534.0
-139.08842 -135.32928 536.0
-136.08672 -136.08673 539.0
-133.53387 -137.34914 544.0
-131.14934 -138.864 550.0
-127.292015 -138.864 550.0
-123.210236 -138.61153 549.0
-120.44698 -139.87393 554.0
-116.98241 -140.37888 556.0
-114.303314 -141.89377 562.0
-110.95094 -142.6512 565.0
-107.74584 -143.66113 569.0
-194.22025 -140.90488 543.0
-190.412 -140.90488 543.0
-186.60376 -140.90488 543.0
-182.79553 -140.90488 543.0
-178.98727 -140.90488 543.0
-175.82428 -141.42387 545.0
-172.31761 -141.68336 546.0
-168.79692 -141.94286 547.0
-165.2622 -142.20235 548.0
-161.71342 -142.46185 549.0
-158.4382 -142.98082 551.0
-155.41547 -143.75931 554.0
-151.53009 -143.75931 554.0
-141.51505 -137.79097 531.0
-138.05045 -138.05046 532.0
-135.58176 -139.34792 537.0
-130.19553 -141.68336 546.0
-126.36625 -141.68336 546.0
-122.536964 -141.68336 546.0
-119.57734 -142.72133 550.0
-116.56161 -143.75931 554.0
-112.8796 -144.0188 555.0
-110.95094 -146.61372 565.0
-194.22025 -144.71312 543.0
-189.36 -143.9136 540.0
-185.5728 -143.9136 540.0
-181.78561 -143.9136 540.0
-178.32803 -144.1801 541.0
-175.17905 -144.71312 543.0
-172.002 -145.24612 545.0
-168.79692 -145.77914 547.0
-165.56378 -146.31215 549.0
-162.00801 -146.57867 550.0
-158.4382 -146.84518 551.0
-155.41547 -147.6447 554.0
-144.9656 -141.24854 530.0
-140.98204 -140.98203 529.0
-137.53146 -141.24854 530.0
-134.31937 -141.78154 532.0
-132.552 -143.9136 540.0
-128.7648 -143.9136 540.0
-125.44049 -144.44661 542.0
-122.536964 -145.51263 546.0
-119.35992 -146.31215 549.0
-116.1408 -147.11168 552.0
-113.286385 -148.44421 557.0
-110.95094 -150.57628 565.0
-192.43185 -147.15375 538.0
-188.30801 -146.88023 537.0
-184.54185 -146.88023 537.0
-181.44897 -147.42728 539.0
-177.66876 -147.42728 539.0
-174.21121 -147.7008 540.0
-171.3708 -148.52135 543.0
-168.48834 -149.34192 546.0
-165.86534 -150.436 550.0
-162.30257 -150.70952 551.0
-158.72577 -150.98303 552.0
-155.41547 -151.53008 554.0
-144.6921 -144.69206 529.0
-140.98204 -144.69206 529.0
-137.53146 -144.9656 530.0
-134.82433 -146.05968 534.0
-131.8156 -146.88023 537.0
-128.52635 -147.42728 539.0
-124.977615 -147.7008 540.0
-122.088104 -148.79488 544.0
-118.925095 -149.61543 547.0
-115.930405 -150.70952 551.0
-112.67622 -151.53008 554.0
-110.558205 -153.99174 563.0
-106.988396 -154.5388 565.0
-196.20502 -150.92693 538.0
-191.71648 -150.36586 536.0
-187.95734 -150.36586 536.0
-184.1982 -150.36586 536.0
-180.43906 -150.36586 536.0
-177.00952 -150.6464 537.0
-174.21121 -151.48799 540.0
-171.0552 -152.04906 542.0
-168.17973 -152.89066 545.0
-165.2622 -153.73225 548.0
-162.89168 -155.13493 553.0
-159.30086 -155.41545 554.0
-158.50134 -158.50133 565.0
-155.35936 -159.34293 568.0
-151.64232 -159.62346 569.0
-138.56944 -149.8048 534.0
-134.82433 -149.8048 534.0
-131.57014 -150.36586 536.0
-128.2879 -150.92693 538.0
-124.977615 -151.48799 540.0
-121.414825 -151.76852 541.0
-118.27285 -152.61012 544.0
-115.088806 -153.45174 547.0
-111.4559 -153.73225 548.0
-109.57633 -156.53758 558.0
-106.79904 -158.2208 564.0
-85.4224 -170.84479 609.0
-81.28454 -171.12534 610.0
-77.25889 -171.68639 612.0
-199.60649 -154.41255 537.0
-195.11095 -153.83746 535.0
-191.00111 -153.54991 534.0
-187.25601 -153.54991 534.0
-183.5109 -153.54991 534.0
-179.76578 -153.54991 534.0
-176.6799 -154.125 536.0
-173.88858 -154.98764 539.0
-170.42401 -155.27519 540.0
-167.87115 -156.42537 544.0
-164.96063 -157.28801 547.0
-162.30257 -158.4382 551.0
-159.01332 -159.01329 553.0
-158.50134 -162.46385 565.0
-155.35936 -163.32649 568.0
-151.64232 -163.61403 569.0
-137.79095 -152.68727 531.0
-134.57184 -153.26236 533.0
-131.07921 -153.54991 534.0
-128.04945 -154.41255 537.0
-124.977615 -155.27519 540.0
-121.1904 -155.27519 540.0
-117.18578 -154.98764 539.0
-114.24721 -156.13782 543.0
-111.049126 -157.00047 546.0
-107.41622 -157.28801 547.0
-92.730286 -172.81552 601.0
-88.80984 -173.39062 603.0
-85.0016 -174.25327 606.0
-81.018036 -174.82837 608.0
-77.00641 -175.40346 610.0
-202.6152 -157.58961 535.0
-198.49138 -157.29504 534.0
-194.38155 -157.00049 533.0
-190.28577 -156.70593 532.0
-186.55467 -156.70593 532.0
-182.82358 -156.70593 532.0
-179.76578 -157.29504 534.0
-176.35027 -157.58961 535.0
-173.56598 -158.4733 538.0
-170.73961 -159.35696 541.0
-167.87115 -160.24065 544.0
-164.96063 -161.12433 547.0
-162.30257 -162.30257 551.0
-162.46387 -166.4264 565.0
-158.78188 -166.72096 566.0
-155.35936 -167.31009 568.0
-151.64232 -167.60464 569.0
-137.53146 -156.1168 530.0
-133.8144 -156.1168 530.0
-130.83374 -157.00049 533.0
-127.095634 -157.00049 533.0
-121.73745 -154.93857 526.0
-118.7217 -155.82225 529.0
-116.31614 -157.58961 535.0
-113.4056 -158.76785 539.0
-111.049126 -160.82976 546.0
-107.80897 -161.71346 549.0
-103.97267 -174.6741 593.0
-100.318726 -175.55779 596.0
-96.4614 -176.1469 598.0
-92.576 -176.73601 600.0
-88.51528 -177.03058 601.0
-84.5808 -177.61969 603.0
-80.751526 -178.50337 606.0
-76.880165 -179.38705 609.0
-202.2365 -161.04016 534.0
-198.11967 -160.73859 533.0
-193.28748 -159.83388 530.0
-189.5704 -159.83388 530.0
-185.85333 -159.83388 530.0
-182.47993 -160.13545 531.0
-179.0925 -160.43703 532.0
-176.02063 -161.04016 534.0
-173.56598 -162.24646 538.0
-170.42401 -162.84961 540.0
-167.87115 -164.05591 544.0
-164.96063 -164.96062 547.0
-165.54272 -169.48422 562.0
-161.88878 -169.78578 563.0
-158.78188 -170.69052 566.0
-155.35936 -171.29366 568.0
-151.64232 -171.59523 569.0
-137.53146 -159.83388 530.0
-133.8144 -159.83388 530.0
-131.07921 -161.04016 534.0
-124.23419 -157.11972 521.0
-121.04314 -157.72285 523.0
-117.824 -158.32602 525.0
-115.01165 -159.53229 529.0
-112.77441 -161.64333 536.0
-110.43897 -163.75433 543.0
-108.00535 -165.86534 550.0
-107.94923 -178.53142 592.0
-103.97267 -178.833 593.0
-99.81377 -178.833 593.0
-96.13879 -179.73772 596.0
-92.42171 -180.64244 599.0
-88.368004 -180.94402 600.0
-84.5808 -181.84872 603.0
-80.751526 -182.75345 606.0
-206.36734 -165.09387 535.0
-201.47905 -164.1681 532.0
-197.00455 -163.55095 530.0
-192.92276 -163.24236 529.0
-189.21272 -163.24236 529.0
-185.50267 -163.24236 529.0
-182.13628 -163.55095 530.0
-179.0925 -164.1681 532.0
-176.02063 -164.78528 534.0
-173.24336 -165.71104 537.0
-170.42401 -166.6368 540.0
-167.87115 -167.87115 544.0
-164.65904 -168.48831 546.0
-165.24817 -173.11711 561.0
-161.88878 -173.7343 563.0
-158.50134 -174.35147 565.0
-155.35936 -175.27724 568.0
-151.37581 -175.27724 568.0
-147.39221 -175.27724 568.0
-143.66112 -175.58582 569.0
-139.42508 -175.27724 568.0
-124.23419 -160.77367 521.0
-120.580246 -160.77367 521.0
-117.59957 -161.69942 524.0
-115.01165 -163.24236 529.0
-112.35361 -164.78528 534.0
-114.485664 -179.90604 583.0
-110.7756 -180.5232 585.0
-107.21984 -181.44896 588.0
-103.622 -182.37473 591.0
-99.64545 -182.6833 592.0
-95.97748 -183.60907 595.0
-92.11311 -184.22624 597.0
-88.368004 -185.152 600.0
-209.72672 -168.5304 534.0
-205.98161 -168.5304 534.0
-200.7216 -167.268 530.0
-196.63284 -166.9524 529.0
-192.55807 -166.6368 528.0
-189.21272 -166.9524 529.0
-185.50267 -166.9524 529.0
-181.79263 -166.9524 529.0
-178.75584 -167.5836 531.0
-176.02063 -168.5304 534.0
-173.24336 -169.4772 537.0
-170.73961 -170.7396 541.0
-167.87115 -171.6864 544.0
-168.57951 -176.4204 559.0
-165.24817 -177.0516 561.0
-161.60123 -177.3672 562.0
-158.50134 -178.314 565.0
-154.5388 -178.314 565.0
-150.57628 -178.314 565.0
-147.13272 -178.9452 567.0
-143.15616 -178.9452 567.0
-139.42508 -179.2608 568.0
-124.23419 -164.4276 521.0
-120.580246 -164.4276 521.0
-117.37514 -165.0588 523.0
-114.57683 -166.3212 527.0
-111.722404 -167.5836 531.0
-117.96427 -183.048 580.0
-114.28929 -183.6792 582.0
-110.7756 -184.626 585.0
-107.21984 -185.5728 588.0
-103.44667 -186.204 590.0
-99.64545 -186.8352 592.0
-95.81617 -187.4664 594.0
-213.87161 -172.59813 535.0
-209.72672 -172.27551 534.0
-205.21014 -171.6303 532.0
-200.3429 -170.66245 529.0
-196.26114 -170.33983 528.0
-192.19339 -170.01723 527.0
-188.85506 -170.33983 528.0
-185.50267 -170.66245 529.0
-181.79263 -170.66245 529.0
-178.75584 -171.30768 531.0
-176.02063 -172.27551 534.0
-173.56598 -173.56596 538.0
-170.73961 -174.53381 541.0
-168.17973 -175.82426 545.0
-167.07164 -178.72778 554.0
-164.36447 -180.01823 558.0
-161.31367 -180.98608 561.0
-157.94028 -181.6313 563.0
-154.26529 -181.95392 564.0
-150.30978 -181.95392 564.0
-146.61374 -182.27654 565.0
-142.6512 -182.27654 565.0
-138.68867 -182.27654 565.0
-135.20305 -182.92175 567.0
-131.68938 -183.56699 569.0
-128.14763 -184.21222 571.0
-124.36043 -184.53482 572.0
-121.8216 -186.79312 579.0
-117.96427 -187.11572 580.0
-114.28929 -187.76096 582.0
-110.58624 -188.40619 584.0
-107.21984 -189.69664 588.0
-103.44667 -190.34186 590.0
-99.81377 -191.30971 593.0
-248.57356 -174.37251 529.0
-241.60934 -174.70213 530.0
-225.09996 -179.3169 544.0
-219.25085 -177.66876 539.0
-213.47183 -176.02063 534.0
-208.94124 -175.36137 532.0
-204.43867 -174.70213 530.0
-200.3429 -174.37251 529.0
-196.26114 -174.04288 528.0
-192.19339 -173.71324 527.0
-188.85506 -174.04288 528.0
-185.50267 -174.37251 529.0
-181.79263 -174.37251 529.0
-178.75584 -175.03175 531.0
-176.02063 -176.02063 534.0
-173.88858 -177.66876 539.0
-171.3708 -178.98727 543.0
-169.4141 -180.96504 549.0
-167.07164 -182.61316 554.0
-163.77536 -183.27243 556.0
-160.45105 -183.93167 558.0
-156.81815 -184.26129 559.0
-153.44473 -184.92055 561.0
-149.77676 -185.25018 562.0
-145.83525 -185.25018 562.0
-142.39871 -185.90944 564.0
-138.68867 -186.23906 565.0
-134.72614 -186.23906 565.0
-131.45793 -187.22794 568.0
-127.923195 -187.88719 570.0
-124.36043 -188.54645 572.0
-121.19041 -189.86496 576.0
-117.96427 -191.18346 580.0
-114.485664 -192.17235 583.0
-110.58624 -192.50197 584.0
-249.89911 -176.39935 524.0
-247.1639 -177.07263 526.0
-244.40065 -177.74591 528.0
-240.6976 -177.74591 528.0
-236.54572 -177.40927 527.0
-234.37157 -181.44896 539.0
-230.59138 -181.44896 539.0
-227.23201 -181.78558 540.0
-221.78967 -180.43904 536.0
-217.21698 -179.76575 534.0
-213.07208 -179.42911 533.0
-208.54848 -178.75583 531.0
-204.43867 -178.41919 530.0
-200.3429 -178.08255 529.0
-196.26114 -177.74591 528.0
-192.19339 -177.40927 527.0
-188.49736 -177.40927 527.0
-185.50267 -178.08255 529.0
-182.13628 -178.41919 530.0
-179.0925 -179.09247 532.0
-176.02063 -179.76575 534.0
-174.21121 -181.78558 540.0
-171.6864 -183.13216 544.0
-169.72267 -185.152 550.0
-166.77007 -186.16191 553.0
-163.18623 -186.49855 554.0
-159.58841 -186.83519 555.0
-156.53761 -187.84511 558.0
-152.62416 -187.84511 558.0
-148.97725 -188.18175 559.0
-145.57576 -188.85504 561.0
-141.89377 -189.19167 562.0
-138.68867 -190.20158 565.0
-134.72614 -190.20158 565.0
-131.22649 -190.87486 567.0
-127.69878 -191.54816 569.0
-124.36043 -192.55807 572.0
-121.19041 -193.90463 576.0
-118.167656 -195.58783 581.0
-264.0941 -179.73071 523.0
-260.42612 -179.73071 523.0
-255.77628 -179.0434 521.0
-252.12234 -179.0434 521.0
-248.46838 -179.0434 521.0
-244.81444 -179.0434 521.0
-241.62337 -179.38705 522.0
-239.33 -180.41801 525.0
-236.54572 -181.10532 527.0
-236.82625 -184.1982 536.0
-233.0671 -184.1982 536.0
-229.30794 -184.1982 536.0
-225.128 -183.85454 535.0
-220.9621 -183.5109 534.0
-216.40343 -182.8236 532.0
-212.27257 -182.47993 531.0
-208.54848 -182.47993 531.0
-204.05295 -181.79262 529.0
-200.3429 -181.79262 529.0
-196.26114 -181.44897 528.0
-192.19339 -181.10532 527.0
-188.49736 -181.10532 527.0
-185.50267 -181.79262 529.0
-182.13628 -182.13629 530.0
-179.42914 -183.16724 533.0
-176.35027 -183.85454 535.0
-174.85643 -186.26012 542.0
-172.31761 -187.63474 546.0
-169.4141 -188.6657 549.0
-166.16692 -189.353 551.0
-162.89168 -190.04031 553.0
-159.30086 -190.38396 554.0
-155.41547 -190.38396 554.0
-151.8036 -190.72762 555.0
-148.17772 -191.07127 556.0
-144.79727 -191.75858 558.0
-141.64128 -192.78954 561.0
-138.4432 -193.8205 564.0
-134.72614 -194.16414 565.0
-130.99504 -194.5078 566.0
-127.69878 -195.53877 569.0
-124.36043 -196.56972 572.0
-121.4008 -198.288 577.0
-271.94904 -183.74934 524.0
-265.2022 -181.64534 518.0
-262.57922 -182.34666 520.0
-258.43433 -181.99602 519.0
-254.30348 -181.64534 518.0
-250.67056 -181.64534 518.0
-246.56076 -181.29468 517.0
-242.93486 -181.29468 517.0
-239.30896 -181.29468 517.0
-236.5948 -181.99602 519.0
-239.6877 -187.25601 534.0
-235.94258 -187.25601 534.0
-232.19743 -187.25601 534.0
-228.45232 -187.25601 534.0
-223.8656 -186.55467 532.0
-219.72073 -186.20401 531.0
-215.58987 -185.85335 530.0
-211.8728 -185.85335 530.0
-208.15575 -185.85335 530.0
-204.05295 -185.50267 529.0
-200.3429 -185.50267 529.0
-196.63284 -185.50267 529.0
-192.55807 -185.15201 528.0
-188.49736 -184.80135 527.0
-185.50267 -185.50267 529.0
-182.47993 -186.20401 531.0
-179.76578 -187.25601 534.0
-177.00952 -188.30801 537.0
-174.85643 -190.06134 542.0
-172.31761 -191.46402 546.0
-168.79692 -191.81467 547.0
-165.2622 -192.16534 548.0
-162.00801 -192.86667 550.0
-158.4382 -193.21735 551.0
-155.41547 -194.26935 554.0
-151.53009 -194.26935 554.0
-147.64471 -194.26935 554.0
-144.27829 -194.97067 556.0
-141.13632 -196.02267 559.0
-137.95227 -197.07468 562.0
-134.72614 -198.12668 565.0
-130.99504 -198.47734 566.0
-127.69878 -199.52934 569.0
-275.5679 -184.92056 517.0
-271.94202 -184.92056 517.0
-268.31613 -184.92056 517.0
-264.69022 -184.92056 517.0
-261.06433 -184.92056 517.0
-257.43845 -184.92056 517.0
-251.84882 -183.48985 513.0
-247.76706 -183.13217 512.0
-243.69933 -182.77449 511.0
-241.05528 -183.48985 513.0
-237.92032 -183.84753 514.0
-234.31548 -183.84753 514.0
-239.23883 -190.64345 533.0
-235.50073 -190.64345 533.0
-231.76262 -190.64345 533.0
-227.16888 -189.92809 531.0
-222.60321 -189.21274 529.0
-218.89316 -189.21274 529.0
-215.18312 -189.21274 529.0
-211.47304 -189.21274 529.0
-207.76299 -189.21274 529.0
-203.6672 -188.85504 528.0
-199.96416 -188.85504 528.0
-196.26114 -188.85504 528.0
-192.55807 -188.85504 528.0
-188.85506 -188.85504 528.0
-185.50267 -189.21274 529.0
-182.82358 -190.28577 532.0
-179.76578 -191.00113 534.0
-177.33914 -192.43185 538.0
-174.85643 -193.86256 542.0
-172.002 -194.9356 545.0
-168.48834 -195.29329 546.0
-164.65904 -195.29329 546.0
-161.12431 -195.65097 547.0
-157.86311 -196.36633 549.0
-154.57387 -197.08168 551.0
-151.25656 -197.79704 553.0
-147.64471 -198.15472 554.0
-144.0188 -198.5124 555.0
-140.88383 -199.58545 558.0
-137.7068 -200.65848 561.0
-134.48769 -201.73154 564.0
-281.1786 -187.45238 514.0
-277.5737 -187.45238 514.0
-273.96884 -187.45238 514.0
-270.364 -187.45238 514.0
-266.75916 -187.45238 514.0
-263.6663 -187.81708 515.0
-260.55936 -188.18176 516.0
-252.95692 -185.2642 508.0
-249.39415 -185.2642 508.0
-246.31529 -185.6289 509.0
-243.22241 -185.9936 510.0
-239.1757 -185.6289 509.0
-236.53168 -186.35829 511.0
-233.40375 -186.72299 512.0
-237.89227 -193.28748 530.0
-234.1752 -193.28748 530.0
-230.0233 -192.92278 529.0
-226.31325 -192.92278 529.0
-222.60321 -192.92278 529.0
-218.47937 -192.55809 528.0
-214.36957 -192.19339 527.0
-210.67352 -192.19339 527.0
-206.9775 -192.19339 527.0
-203.28148 -192.19339 527.0
-199.58545 -192.19339 527.0
-195.88943 -192.19339 527.0
-192.55807 -192.55809 528.0
-189.21272 -192.92278 529.0
-185.85333 -193.28748 530.0
-182.82358 -194.01686 532.0
-180.1024 -195.11093 535.0
-177.33914 -196.20502 538.0
-174.53381 -197.29909 541.0
-171.6864 -198.39317 544.0
-167.87115 -198.39317 544.0
-164.35747 -198.75787 545.0
-161.12431 -199.48726 547.0
-157.57558 -199.85196 548.0
-154.29333 -200.58133 550.0
-150.70953 -200.94603 551.0
-147.3782 -201.67542 553.0
-144.0188 -202.4048 555.0
-140.88383 -203.49889 558.0
-137.7068 -204.59297 561.0
-134.72614 -206.05173 565.0
-278.99042 -189.5704 510.0
-275.95364 -189.94211 511.0
-272.3698 -189.94211 511.0
-268.786 -189.94211 511.0
-265.2022 -189.94211 511.0
-258.03458 -187.34015 504.0
-254.49983 -187.34015 504.0
-251.46307 -187.71187 505.0
-248.41228 -188.08357 506.0
-244.86354 -188.08357 506.0
-241.7917 -188.45528 507.0
-238.70581 -188.827 508.0
-236.0688 -189.5704 510.0
-232.94788 -189.94211 511.0
-237.44344 -196.63283 529.0
-233.73338 -196.63283 529.0
-229.15366 -195.8894 527.0
-225.45763 -195.8894 527.0
-221.76161 -195.8894 527.0
-217.65181 -195.5177 526.0
-213.96278 -195.5177 526.0
-210.27376 -195.5177 526.0
-206.58475 -195.5177 526.0
-202.89574 -195.5177 526.0
-199.58545 -195.8894 527.0
-195.88943 -195.8894 527.0
-192.55807 -196.26112 528.0
-189.21272 -196.63283 529.0
-186.20401 -197.37624 531.0
-183.16724 -198.11964 533.0
-180.1024 -198.86307 535.0
-177.33914 -199.9782 538.0
-174.21121 -200.7216 540.0
-171.0552 -201.46501 542.0
-167.56256 -201.83672 543.0
-164.05591 -202.20842 544.0
-160.82976 -202.95183 546.0
-157.57558 -203.69525 548.0
-154.29333 -204.43867 550.0
-150.70953 -204.81038 551.0
-147.64471 -205.92549 554.0
-144.27829 -206.6689 556.0
-140.88383 -207.41232 558.0
-277.3493 -192.01103 507.0
-273.79352 -192.01103 507.0
-268.63873 -190.87486 504.0
-265.104 -190.87486 504.0
-261.0503 -190.49615 503.0
-257.5226 -190.49615 503.0
-254.49983 -190.87486 504.0
-250.96512 -190.87486 504.0
-247.92134 -191.2536 505.0
-244.37961 -191.2536 505.0
-241.7917 -192.01103 507.0
-238.23592 -192.01103 507.0
-235.14305 -192.38976 508.0
-232.94788 -193.52592 511.0
-229.36407 -193.52592 511.0
-231.966 -198.828 525.0
-228.28401 -198.828 525.0
-224.602 -198.828 525.0
-220.92001 -198.828 525.0
-217.238 -198.828 525.0
-213.55602 -198.828 525.0
-209.87401 -198.828 525.0
-206.58475 -199.20671 526.0
-202.89574 -199.20671 526.0
-199.20674 -199.20671 526.0
-195.88943 -199.58543 527.0
-192.92276 -200.34286 529.0
-189.5704 -200.7216 530.0
-186.55467 -201.47903 532.0
-183.16724 -201.85776 533.0
-180.1024 -202.6152 535.0
-177.00952 -203.37263 537.0
-174.21121 -204.5088 540.0
-170.73961 -204.88751 541.0
-167.25398 -205.26624 542.0
-163.75433 -205.64496 543.0
-160.5352 -206.4024 545.0
-157.00047 -206.78111 546.0
-154.0128 -207.91727 549.0
-150.436 -208.296 550.0
-147.64471 -209.81087 554.0
-274.06705 -193.25238 501.0
-271.09338 -193.63812 502.0
-267.03967 -193.25238 501.0
-263.526 -193.25238 501.0
-260.01233 -193.25238 501.0
-257.01062 -193.63812 502.0
-253.48993 -193.63812 502.0
-250.46718 -194.02386 503.0
-246.93947 -194.02386 503.0
-242.92786 -193.63812 502.0
-239.40717 -193.63812 502.0
-236.35634 -194.02386 503.0
-232.36577 -193.63812 502.0
-230.21268 -194.79533 505.0
-234.7503 -201.73853 523.0
-230.64049 -201.35278 522.0
-227.41434 -201.73853 523.0
-224.1742 -202.12425 524.0
-220.4992 -202.12425 524.0
-216.82423 -202.12425 524.0
-213.55602 -202.51 525.0
-210.27376 -202.89574 526.0
-206.58475 -202.89574 526.0
-203.28148 -203.28146 527.0
-200.3429 -204.05293 529.0
-197.00455 -204.43866 530.0
-193.65216 -204.82439 531.0
-190.28577 -205.21013 532.0
-186.90533 -205.59586 533.0
-183.5109 -205.98158 534.0
-180.1024 -206.36732 535.0
-177.00952 -207.1388 537.0
-173.88858 -207.91026 539.0
-170.42401 -208.29599 540.0
-166.63681 -208.29599 540.0
-163.75433 -209.45319 543.0
-160.24063 -209.83893 544.0
-157.00047 -210.61038 546.0
-154.0128 -211.7676 549.0
-150.70953 -212.53906 551.0
-271.33185 -194.80234 496.0
-268.9333 -195.58783 498.0
-265.97366 -195.98058 499.0
-262.474 -195.98058 499.0
-259.49335 -196.37332 500.0
-257.01062 -197.15881 502.0
-253.48993 -197.15881 502.0
-248.47539 -195.98058 499.0
-244.97574 -195.98058 499.0
-241.47609 -195.98058 499.0
-237.97646 -195.98058 499.0
-234.47676 -195.98058 499.0
-232.36577 -197.15881 502.0
-228.84508 -197.15881 502.0
-233.8526 -204.621 521.0
-230.19865 -204.621 521.0
-226.5447 -204.621 521.0
-223.31856 -205.01375 522.0
-220.4992 -205.79924 524.0
-216.82423 -205.79924 524.0
-213.96278 -206.58475 526.0
-210.67352 -206.97748 527.0
-207.37025 -207.37022 528.0
-204.05295 -207.76297 529.0
-200.7216 -208.15572 530.0
-197.37625 -208.54848 531.0
-194.01686 -208.94121 532.0
-190.28577 -208.94121 532.0
-187.25601 -209.7267 534.0
-183.5109 -209.7267 534.0
-180.1024 -210.11946 535.0
-177.00952 -210.90495 537.0
-173.56598 -211.2977 538.0
-170.42401 -212.08319 540.0
-166.63681 -212.08319 540.0
-163.75433 -213.26143 543.0
-160.82976 -214.43967 546.0
-270.78482 -197.88121 495.0
-267.85324 -198.28096 496.0
-264.90762 -198.68073 497.0
-261.948 -199.08049 498.0
-257.9364 -198.68073 497.0
-253.93878 -198.28096 496.0
-250.46016 -198.28096 496.0
-246.98155 -198.28096 496.0
-243.50294 -198.28096 496.0
-240.02434 -198.28096 496.0
-237.02263 -198.68073 497.0
-234.00688 -199.08049 498.0
-230.97713 -199.48026 499.0
-227.93333 -199.88002 500.0
-224.42668 -199.88002 500.0
-230.19865 -208.27496 521.0
-226.5447 -208.27496 521.0
-223.74638 -209.0745 523.0
-220.92001 -209.87401 525.0
-217.238 -209.87401 525.0
-214.36957 -210.67352 527.0
-211.47304 -211.47305 529.0
-207.76299 -211.47305 529.0
-204.43867 -211.87282 530.0
-201.47905 -212.67233 532.0
-198.49138 -213.47185 534.0
-194.38155 -213.0721 533.0
-190.64345 -213.0721 533.0
-187.25601 -213.47185 534.0
-183.5109 -213.47185 534.0
-180.1024 -213.87161 535.0
-177.00952 -214.67113 537.0
-173.56598 -215.07089 538.0
-170.73961 -216.27017 541.0
-167.25398 -216.66994 542.0
-164.05591 -217.46947 544.0
-160.82976 -218.26897 546.0
-269.1437 -200.13248 492.0
-266.23315 -200.53926 493.0
-262.77557 -200.53926 493.0
-258.26602 -199.72572 491.0
-255.86043 -200.53926 493.0
-252.91486 -200.94603 494.0
-249.45024 -200.94603 494.0
-245.98566 -200.94603 494.0
-243.50294 -201.75958 496.0
-240.02434 -201.75958 496.0
-236.54572 -201.75958 496.0
-233.0671 -201.75958 496.0
-230.05136 -202.16635 497.0
-227.47748 -202.97989 499.0
-223.97783 -202.97989 499.0
-230.19865 -211.92892 521.0
-226.97952 -212.33568 522.0
-224.1742 -213.14923 524.0
-221.3408 -213.96278 526.0
-218.06558 -214.36955 527.0
-214.77634 -214.77634 528.0
-211.8728 -215.58989 530.0
-208.54848 -215.99663 531.0
-205.21014 -216.40341 532.0
-202.2365 -217.21696 534.0
-198.49138 -217.21696 534.0
-194.74623 -217.21696 534.0
-191.00111 -217.21696 534.0
-187.25601 -217.21696 534.0
-183.85454 -217.62375 535.0
-180.43906 -218.03052 536.0
-177.00952 -218.4373 537.0
-174.21121 -219.6576 540.0
-171.0552 -220.47116 542.0
-167.87115 -221.28471 544.0
-267.5026 -202.34169 489.0
-264.07303 -202.34169 489.0
-260.64352 -202.34169 489.0
-257.74002 -202.75548 490.0
-254.82248 -203.16927 491.0
-251.8909 -203.58305 492.0
-248.94528 -203.99684 493.0
-245.98566 -204.41061 494.0
-242.52107 -204.41061 494.0
-239.5404 -204.8244 495.0
-236.0688 -204.8244 495.0
-233.0671 -205.23819 496.0
-229.58849 -205.23819 496.0
-226.10988 -205.23819 496.0
-223.97783 -206.47955 499.0
-230.64049 -215.99663 522.0
-227.41434 -216.41043 523.0
-224.602 -217.238 525.0
-221.3408 -217.6518 526.0
-218.06558 -218.06558 527.0
-215.18312 -218.89316 529.0
-211.8728 -219.30695 530.0
-208.54848 -219.72073 531.0
-205.98161 -220.9621 534.0
-202.2365 -220.9621 534.0
-198.86307 -221.37585 535.0
-195.11095 -221.37585 535.0
-191.00111 -220.9621 534.0
-187.60667 -221.37585 535.0
-184.1982 -221.78964 536.0
-180.7757 -222.20343 537.0
-177.66876 -223.031 539.0
-174.21121 -223.4448 540.0

