ply
format ascii 1.0
comment made by @arthurmuchir
element vertex 924
property float x
property float y
property float z
end_header
-151.64232 -119.7176 569.0
-147.13272 -119.2968 567.0
-142.6512 -118.876 565.0
-138.19774 -118.4552 563.0
-134.72614 -118.876 565.0
-131.22649 -119.2968 567.0
-160.46507 -124.36042 572.0
-155.63289 -123.70819 569.0
-151.1093 -123.27335 567.0
-145.31627 -121.75146 560.0
-141.38881 -121.75146 560.0
-137.46133 -121.75146 560.0
-134.01079 -122.186295 562.0
-130.76361 -122.83853 565.0
-127.69878 -123.70819 569.0
-163.90161 -127.92319 570.0
-160.18454 -128.14763 571.0
-155.35936 -127.47434 568.0
-150.84279 -127.02548 566.0
-144.0188 -124.556786 555.0
-139.62144 -124.10794 553.0
-135.98854 -124.33237 554.0
-132.81851 -125.005646 557.0
-129.83784 -125.90335 561.0
-127.69878 -127.69876 569.0
-176.82016 -132.61511 573.0
-172.80154 -132.61511 573.0
-168.48831 -132.38367 572.0
-164.18915 -132.15224 571.0
-156.53761 -129.14351 558.0
-157.274 -133.07799 575.0
-146.84518 -127.52344 551.0
-142.46184 -127.060555 549.0
-138.61151 -127.060555 549.0
-135.25214 -127.52344 551.0
-132.3416 -128.44919 555.0
-129.60641 -129.60638 560.0
-126.35221 -130.3007 563.0
-119.5072 -131.4579 568.0
-115.72703 -131.68935 569.0
-177.43735 -131.14934 550.0
-173.8956 -131.3878 551.0
-170.64842 -131.8647 553.0
-167.07164 -132.10315 554.0
-163.18623 -132.10315 554.0
-159.30086 -132.10315 554.0
-155.696 -132.34161 555.0
-151.8036 -132.34161 555.0
-143.9136 -128.76482 540.0
-140.90488 -129.48018 543.0
-137.34912 -129.71863 544.0
-134.02481 -130.19553 546.0
-131.14934 -131.14934 550.0
-129.37497 -133.29543 559.0
-126.127785 -134.01079 562.0
-122.62112 -134.4877 564.0
-118.87601 -134.72614 565.0
-115.523636 -135.44151 568.0
-111.54007 -135.44151 568.0
-184.47874 -134.51575 548.0
-180.30579 -134.27026 547.0
-176.79211 -134.51575 548.0
-173.58 -135.00667 550.0
-170.03127 -135.25214 551.0
-166.16692 -135.25214 551.0
-162.59712 -135.49762 552.0
-159.01332 -135.74307 553.0
-155.41547 -135.98854 554.0
-151.53009 -135.98854 554.0
-143.3806 -132.06107 538.0
-139.86691 -132.30655 539.0
-136.3392 -132.55202 540.0
-134.02481 -134.02481 546.0
-131.14934 -135.00667 550.0
-128.21777 -135.98854 554.0
-124.55679 -136.23401 555.0
-121.53405 -137.21587 559.0
-118.244804 -137.95227 562.0
-114.91347 -138.68867 565.0
-111.54007 -139.42506 568.0
-107.74584 -139.67055 569.0
-186.94743 -137.34914 544.0
-183.46881 -137.6016 545.0
-179.97617 -137.85408 546.0
-176.14688 -137.85408 546.0
-172.63321 -138.10657 547.0
-169.4141 -138.61153 549.0
-165.86534 -138.864 550.0
-162.00801 -138.864 550.0
-158.4382 -139.11649 551.0
-155.13493 -139.62144 553.0
-151.25656 -139.62144 553.0
-142.31458 -134.82433 534.0
-139.08842 -135.32928 536.0
-136.08672 -136.08673 539.0
-134.02481 -137.85408 546.0
-131.14934 -138.864 550.0
-127.523445 -139.11649 551.0
-123.659096 -139.11649 551.0
-120.44698 -139.87393 554.0
-117.1928 -140.63136 557.0
-114.303314 -141.89377 562.0
-110.95094 -142.6512 565.0
-107.74584 -143.66113 569.0
-190.412 -140.90488 543.0
-186.60376 -140.90488 543.0
-182.79553 -140.90488 543.0
-179.3169 -141.16438 544.0
-175.82428 -141.42387 545.0
-172.31761 -141.68336 546.0
-168.79692 -141.94286 547.0
-165.2622 -142.20235 548.0
-161.71342 -142.46185 549.0
-158.4382 -142.98082 551.0
-155.13493 -143.49982 553.0
-145.23914 -137.79097 531.0
-141.51505 -137.79097 531.0
-138.30994 -138.30995 533.0
-134.82433 -138.56944 534.0
-130.19553 -141.68336 546.0
-126.597694 -141.94286 547.0
-122.98581 -142.20235 548.0
-119.79475 -142.98082 551.0
-116.56161 -143.75931 554.0
-113.69316 -145.05678 559.0
-110.75457 -146.35425 564.0
-193.86256 -144.44661 542.0
-189.71068 -144.1801 541.0
-185.5728 -143.9136 540.0
-181.78561 -143.9136 540.0
-178.32803 -144.1801 541.0
-174.85643 -144.44661 542.0
-172.002 -145.24612 545.0
-168.48834 -145.51263 546.0
-164.96063 -145.77914 547.0
-161.71342 -146.31215 549.0
-158.4382 -146.84518 551.0
-155.41547 -147.6447 554.0
-144.9656 -141.24854 530.0
-140.98204 -140.98203 529.0
-137.79095 -141.51503 531.0
-134.57184 -142.04805 533.0
-132.552 -143.9136 540.0
-129.24171 -144.44661 542.0
-125.903366 -144.97963 544.0
-122.536964 -145.51263 546.0
-119.35992 -146.31215 549.0
-116.351204 -147.37819 553.0
-113.48977 -148.71072 558.0
-110.75457 -150.30975 564.0
-192.43185 -147.15375 538.0
-188.30801 -146.88023 537.0
-184.54185 -146.88023 537.0
-181.11234 -147.15375 538.0
-177.99841 -147.7008 540.0
-174.21121 -147.7008 540.0
-171.3708 -148.52135 543.0
-168.48834 -149.34192 546.0
-165.2622 -149.88895 548.0
-162.30257 -150.70952 551.0
-159.01332 -151.25655 553.0
-155.41547 -151.53008 554.0
-144.9656 -144.9656 530.0
-140.98204 -144.69206 529.0
-137.53146 -144.9656 530.0
-134.82433 -146.05968 534.0
-132.30653 -147.42728 539.0
-128.7648 -147.7008 540.0
-125.44049 -148.24783 542.0
-122.088104 -148.79488 544.0
-119.14251 -149.88895 548.0
-116.1408 -150.98303 552.0
-113.286385 -152.35063 557.0
-110.361824 -153.71823 562.0
-106.988396 -154.5388 565.0
-196.5697 -151.20746 539.0
-192.07416 -150.6464 537.0
-187.95734 -150.36586 536.0
-183.85454 -150.08533 535.0
-180.43906 -150.36586 536.0
-177.00952 -150.6464 537.0
-174.21121 -151.48799 540.0
-171.0552 -152.04906 542.0
-168.17973 -152.89066 545.0
-165.2622 -153.73225 548.0
-162.59712 -154.85439 552.0
-159.30086 -155.41545 554.0
-158.50134 -158.50133 565.0
-154.81233 -158.78186 566.0
-151.37581 -159.34293 568.0
-138.56944 -149.8048 534.0
-135.0768 -150.08533 535.0
-131.8156 -150.6464 537.0
-128.52635 -151.20746 539.0
-124.977615 -151.48799 540.0
-122.088104 -152.61012 544.0
-118.70768 -153.17119 546.0
-115.2992 -153.73225 548.0
-112.06606 -154.57385 551.0
-110.16545 -157.37918 561.0
-106.79904 -158.2208 564.0
-80.48502 -169.44212 604.0
-199.60649 -154.41255 537.0
-195.11095 -153.83746 535.0
-191.00111 -153.54991 534.0
-187.25601 -153.54991 534.0
-183.5109 -153.54991 534.0
-179.76578 -153.54991 534.0
-176.6799 -154.125 536.0
-173.88858 -154.98764 539.0
-170.42401 -155.27519 540.0
-167.87115 -156.42537 544.0
-164.65904 -157.00047 546.0
-161.71342 -157.8631 549.0
-159.30086 -159.30084 554.0
-158.50134 -162.46385 565.0
-154.81233 -162.7514 566.0
-151.37581 -163.32649 568.0
-138.05045 -152.97481 532.0
-134.57184 -153.26236 533.0
-131.32468 -153.83746 535.0
-128.2879 -154.70009 538.0
-124.977615 -155.27519 540.0
-121.1904 -155.27519 540.0
-117.83803 -155.85028 542.0
-114.8784 -157.00047 546.0
-111.659294 -157.8631 549.0
-108.20171 -158.4382 551.0
-88.66256 -173.10309 602.0
-84.5808 -173.39062 603.0
-80.751526 -174.25327 606.0
-76.62769 -174.54082 607.0
-202.99394 -157.88417 536.0
-198.49138 -157.29504 534.0
-194.38155 -157.00049 533.0
-190.28577 -156.70593 532.0
-186.55467 -156.70593 532.0
-183.16724 -157.00049 533.0
-179.42914 -157.00049 533.0
-176.35027 -157.58961 535.0
-173.56598 -158.4733 538.0
-170.42401 -159.06241 540.0
-167.56256 -159.94609 543.0
-164.65904 -160.82976 546.0
-161.41887 -161.4189 548.0
-162.46387 -166.4264 565.0
-158.50134 -166.4264 565.0
-155.08585 -167.01553 567.0
-151.37581 -167.31009 568.0
-137.53146 -156.1168 530.0
-134.06688 -156.41136 531.0
-131.07921 -157.29504 534.0
-127.81099 -157.88417 536.0
-123.58897 -157.29504 534.0
-119.84384 -157.29504 534.0
-116.968376 -158.4733 538.0
-113.8264 -159.35696 541.0
-111.049126 -160.82976 546.0
-108.20171 -162.30257 551.0
-103.97267 -174.6741 593.0
-99.98209 -174.96864 594.0
-96.13879 -175.55779 596.0
-92.2674 -176.1469 598.0
-88.368004 -176.73601 600.0
-84.30027 -177.03058 601.0
-80.35177 -177.61969 603.0
-76.50146 -178.50337 606.0
-202.2365 -161.04016 534.0
-198.11967 -160.73859 533.0
-193.28748 -159.83388 530.0
-189.5704 -159.83388 530.0
-185.85333 -159.83388 530.0
-182.47993 -160.13545 531.0
-179.0925 -160.43703 532.0
-176.02063 -161.04016 534.0
-173.24336 -161.94489 537.0
-170.42401 -162.84961 540.0
-167.56256 -163.75433 543.0
-164.65904 -164.65904 546.0
-165.83728 -169.78578 563.0
-161.88878 -169.78578 563.0
-158.50134 -170.38895 565.0
-155.08585 -170.99208 567.0
-151.37581 -171.29366 568.0
-137.27197 -159.53229 529.0
-133.8144 -159.83388 530.0
-131.07921 -161.04016 534.0
-124.949554 -158.02443 524.0
-121.968895 -158.92915 527.0
-118.7217 -159.53229 529.0
-115.88131 -160.73859 533.0
-113.195206 -162.24646 538.0
-110.64236 -164.05591 544.0
-107.80897 -165.56377 549.0
-107.766884 -178.22984 591.0
-103.79734 -178.53142 592.0
-99.81377 -178.833 593.0
-95.97748 -179.43614 595.0
-92.11311 -180.03928 597.0
-88.07344 -180.34087 598.0
-84.16 -180.94402 600.0
-80.21851 -181.54715 602.0
-76.24897 -182.15031 604.0
-205.98161 -164.78528 534.0
-201.47905 -164.1681 532.0
-197.00455 -163.55095 530.0
-192.92276 -163.24236 529.0
-189.21272 -163.24236 529.0
-185.50267 -163.24236 529.0
-181.79263 -163.24236 529.0
-178.4192 -163.55095 530.0
-175.69101 -164.4767 533.0
-172.92075 -165.40247 536.0
-170.42401 -166.6368 540.0
-167.56256 -167.56256 543.0
-164.96063 -168.7969 547.0
-165.24817 -173.11711 561.0
-161.60123 -173.4257 562.0
-158.50134 -174.35147 565.0
-154.81233 -174.66006 566.0
-151.1093 -174.96864 567.0
-147.39221 -175.27724 568.0
-133.56192 -163.24236 529.0
-128.1336 -161.08224 522.0
-124.23419 -160.77367 521.0
-121.27457 -161.69942 524.0
-118.27285 -162.62518 527.0
-115.44648 -163.85951 531.0
-112.9848 -165.71104 537.0
-109.828804 -166.6368 540.0
-114.485664 -179.90604 583.0
-110.58624 -180.21461 584.0
-107.21984 -181.44896 588.0
-103.27134 -181.75755 589.0
-99.47713 -182.37473 591.0
-95.65487 -182.9919 593.0
-91.95882 -183.91766 596.0
-87.92616 -184.22624 597.0
-84.16 -185.152 600.0
-80.08526 -185.46059 601.0
-205.98161 -168.5304 534.0
-200.7216 -167.268 530.0
-196.26114 -166.6368 528.0
-192.55807 -166.6368 528.0
-188.85506 -166.6368 528.0
-185.50267 -166.9524 529.0
-181.79263 -166.9524 529.0
-178.4192 -167.268 530.0
-175.69101 -168.2148 533.0
-172.59814 -168.846 535.0
-170.42401 -170.424 540.0
-167.56256 -171.3708 543.0
-164.65904 -172.3176 546.0
-164.95361 -176.73601 560.0
-161.60123 -177.3672 562.0
-158.50134 -178.314 565.0
-154.5388 -178.314 565.0
-150.57628 -178.314 565.0
-146.87323 -178.6296 566.0
-143.15616 -178.9452 567.0
-127.64267 -164.112 520.0
-123.995735 -164.112 520.0
-120.81169 -164.7432 522.0
-117.824 -165.69 525.0
-115.01165 -166.9524 529.0
-112.35361 -168.5304 534.0
-117.96427 -183.048 580.0
-114.092926 -183.3636 581.0
-110.39687 -183.9948 583.0
-107.03749 -185.2572 587.0
-103.096 -185.5728 588.0
-99.30881 -186.204 590.0
-95.49356 -186.8352 592.0
-91.80453 -187.782 595.0
-87.778885 -188.0976 596.0
-209.33398 -171.95291 533.0
-204.8244 -171.30768 531.0
-200.3429 -170.66245 529.0
-195.88943 -170.01723 527.0
-192.19339 -170.01723 527.0
-188.49736 -170.01723 527.0
-185.15201 -170.33983 528.0
-181.79263 -170.66245 529.0
-178.4192 -170.98506 530.0
-175.69101 -171.95291 533.0
-173.24336 -173.24335 537.0
-170.42401 -174.2112 540.0
-168.17973 -175.82426 545.0
-167.07164 -178.72778 554.0
-164.36447 -180.01823 558.0
-161.31367 -180.98608 561.0
-157.65974 -181.3087 562.0
-153.99176 -181.6313 563.0
-150.57628 -182.27654 565.0
-146.61374 -182.27654 565.0
-142.6512 -182.27654 565.0
-138.68867 -182.27654 565.0
-123.995735 -167.75893 520.0
-120.81169 -168.40416 522.0
-117.59957 -169.0494 524.0
-123.70818 -183.56699 569.0
-121.4008 -186.14789 577.0
-117.5575 -186.4705 578.0
-114.092926 -187.43834 581.0
-110.20752 -187.76096 582.0
-106.85515 -189.0514 586.0
-103.096 -189.69664 588.0
-99.30881 -190.34186 590.0
-95.49356 -190.98709 592.0
-213.47183 -176.02063 534.0
-208.94124 -175.36137 532.0
-204.05295 -174.37251 529.0
-199.96416 -174.04288 528.0
-195.88943 -173.71324 527.0
-192.19339 -173.71324 527.0
-188.49736 -173.71324 527.0
-185.15201 -174.04288 528.0
-181.79263 -174.37251 529.0
-178.4192 -174.70213 530.0
-175.69101 -175.69101 533.0
-173.24336 -177.00952 537.0
-170.73961 -178.32802 541.0
-168.48834 -179.97615 546.0
-166.46849 -181.95392 552.0
-163.4808 -182.9428 555.0
-160.45105 -183.93167 558.0
-157.09868 -184.59093 560.0
-153.44473 -184.92055 561.0
-149.51025 -184.92055 561.0
-145.83525 -185.25018 562.0
-142.39871 -185.90944 564.0
-138.68867 -186.23906 565.0
-134.72614 -186.23906 565.0
-130.76361 -186.23906 565.0
-127.47434 -187.22794 568.0
-123.70818 -187.55757 569.0
-120.76961 -189.20569 574.0
-117.35411 -190.19458 577.0
-114.092926 -191.51308 581.0
-110.39687 -192.17235 583.0
-106.85515 -193.16122 586.0
-249.42221 -176.0627 523.0
-246.2241 -176.39935 524.0
-243.01201 -176.736 525.0
-240.24174 -177.40927 527.0
-237.44344 -178.08255 529.0
-231.01921 -181.78558 540.0
-221.37587 -180.10239 535.0
-217.21698 -179.76575 534.0
-212.67232 -179.09247 532.0
-208.54848 -178.75583 531.0
-204.05295 -178.08255 529.0
-199.96416 -177.74591 528.0
-195.88943 -177.40927 527.0
-192.19339 -177.40927 527.0
-188.49736 -177.40927 527.0
-185.15201 -177.74591 528.0
-181.79263 -178.08255 529.0
-178.75584 -178.75583 531.0
-176.02063 -179.76575 534.0
-173.56598 -181.1123 538.0
-171.0552 -182.45886 542.0
-168.79692 -184.14207 547.0
-166.46849 -185.82527 552.0
-163.18623 -186.49855 554.0
-159.58841 -186.83519 555.0
-156.53761 -187.84511 558.0
-152.62416 -187.84511 558.0
-148.71074 -187.84511 558.0
-145.31627 -188.51839 560.0
-141.89377 -189.19167 562.0
-138.4432 -189.86496 564.0
-134.72614 -190.20158 565.0
-130.99504 -190.53824 566.0
-127.47434 -191.2115 568.0
-124.14301 -192.22144 571.0
-120.76961 -193.23135 574.0
-117.35411 -194.24127 577.0
-270.65857 -184.1982 536.0
-259.92816 -179.38705 522.0
-255.77628 -179.0434 521.0
-252.12234 -179.0434 521.0
-248.46838 -179.0434 521.0
-244.81444 -179.0434 521.0
-242.08626 -179.73071 523.0
-239.33 -180.41801 525.0
-236.99457 -181.44897 528.0
-237.2681 -184.54185 537.0
-233.50192 -184.54185 537.0
-229.30794 -184.1982 536.0
-225.128 -183.85454 535.0
-220.9621 -183.5109 534.0
-216.40343 -182.8236 532.0
-211.8728 -182.13629 530.0
-208.15575 -182.13629 530.0
-204.05295 -181.79262 529.0
-200.3429 -181.79262 529.0
-195.88943 -181.10532 527.0
-192.19339 -181.10532 527.0
-188.49736 -181.10532 527.0
-185.15201 -181.44897 528.0
-181.79263 -181.79262 529.0
-179.0925 -182.8236 532.0
-176.02063 -183.5109 534.0
-174.21121 -185.57281 540.0
-172.002 -187.29108 545.0
-169.1055 -188.32204 548.0
-165.86534 -189.00934 550.0
-162.59712 -189.69666 552.0
-159.30086 -190.38396 554.0
-155.41547 -190.38396 554.0
-151.53009 -190.38396 554.0
-148.44423 -191.41492 557.0
-144.53778 -191.41492 557.0
-141.38881 -192.44588 560.0
-138.19774 -193.47684 563.0
-134.72614 -194.16414 565.0
-130.76361 -194.16414 565.0
-127.47434 -195.19511 568.0
-124.36043 -196.56972 572.0
-120.98 -197.60068 575.0
-281.96405 -185.50267 529.0
-277.202 -184.80135 527.0
-275.06296 -185.85335 530.0
-271.85785 -186.20401 531.0
-262.07425 -181.99602 519.0
-258.93228 -182.34666 520.0
-255.28534 -182.34666 520.0
-251.1545 -181.99602 519.0
-247.03767 -181.64534 518.0
-242.93486 -181.29468 517.0
-240.23473 -181.99602 519.0
-238.87415 -183.74934 524.0
-236.54572 -184.80135 527.0
-236.38441 -187.60667 535.0
-232.63228 -187.60667 535.0
-228.45232 -187.25601 534.0
-224.2864 -186.90533 533.0
-219.72073 -186.20401 531.0
-215.58987 -185.85335 530.0
-211.8728 -185.85335 530.0
-207.76299 -185.50267 529.0
-204.05295 -185.50267 529.0
-199.96416 -185.15201 528.0
-195.88943 -184.80135 527.0
-192.19339 -184.80135 527.0
-188.49736 -184.80135 527.0
-185.50267 -185.50267 529.0
-182.13628 -185.85335 530.0
-179.42914 -186.90533 533.0
-176.6799 -187.95734 536.0
-174.53381 -189.71068 541.0
-172.002 -191.11334 545.0
-168.79692 -191.81467 547.0
-165.2622 -192.16534 548.0
-162.00801 -192.86667 550.0
-158.4382 -193.21735 551.0
-155.41547 -194.26935 554.0
-151.53009 -194.26935 554.0
-147.64471 -194.26935 554.0
-144.27829 -194.97067 556.0
-140.88383 -195.67201 558.0
-137.95227 -197.07468 562.0
-134.48769 -197.77602 564.0
-130.76361 -198.12668 565.0
-127.47434 -199.17867 568.0
-277.16693 -185.9936 520.0
-272.99402 -185.63593 519.0
-268.31613 -184.92056 517.0
-264.69022 -184.92056 517.0
-261.06433 -184.92056 517.0
-257.43845 -184.92056 517.0
-253.81255 -184.92056 517.0
-249.21881 -184.2052 515.0
-244.65314 -183.48985 513.0
-241.05528 -183.48985 513.0
-237.92032 -183.84753 514.0
-234.31548 -183.84753 514.0
-237.89227 -189.5704 530.0
-235.0589 -190.28577 532.0
-231.76262 -190.64345 533.0
-227.5967 -190.28577 532.0
-223.024 -189.5704 530.0
-219.30695 -189.5704 530.0
-215.18312 -189.21274 529.0
-211.47304 -189.21274 529.0
-207.76299 -189.21274 529.0
-203.6672 -188.85504 528.0
-199.58545 -188.49736 527.0
-195.88943 -188.49736 527.0
-192.19339 -188.49736 527.0
-188.85506 -188.85504 528.0
-185.50267 -189.21274 529.0
-182.13628 -189.5704 530.0
-179.76578 -191.00113 534.0
-176.6799 -191.71648 536.0
-174.21121 -193.1472 540.0
-171.6864 -194.57793 544.0
-168.48834 -195.29329 546.0
-164.96063 -195.65097 547.0
-161.41887 -196.00865 548.0
-158.15067 -196.724 550.0
-154.57387 -197.08168 551.0
-150.98305 -197.43936 552.0
-147.64471 -198.15472 554.0
-144.0188 -198.5124 555.0
-140.88383 -199.58545 558.0
-137.7068 -200.65848 561.0
-134.48769 -201.73154 564.0
-130.76361 -202.0892 565.0
-282.8197 -188.54646 517.0
-277.5737 -187.45238 514.0
-274.50186 -187.81708 515.0
-271.41602 -188.18176 516.0
-266.75916 -187.45238 514.0
-263.15433 -187.45238 514.0
-260.0544 -187.81708 515.0
-255.9446 -187.45238 514.0
-249.88507 -185.6289 509.0
-246.31529 -185.6289 509.0
-243.22241 -185.9936 510.0
-239.1757 -185.6289 509.0
-236.53168 -186.35829 511.0
-232.94788 -186.35829 511.0
-237.44344 -192.92278 529.0
-233.73338 -192.92278 529.0
-230.0233 -192.92278 529.0
-226.31325 -192.92278 529.0
-222.60321 -192.92278 529.0
-218.89316 -192.92278 529.0
-214.77634 -192.55809 528.0
-211.07327 -192.55809 528.0
-206.9775 -192.19339 527.0
-203.28148 -192.19339 527.0
-199.58545 -192.19339 527.0
-195.88943 -192.19339 527.0
-192.19339 -192.19339 527.0
-188.85506 -192.55809 528.0
-185.50267 -192.92278 529.0
-182.47993 -193.65216 531.0
-179.76578 -194.74625 534.0
-177.00952 -195.84032 537.0
-174.21121 -196.9344 540.0
-171.3708 -198.02849 543.0
-167.87115 -198.39317 544.0
-164.35747 -198.75787 545.0
-160.82976 -199.12256 546.0
-157.57558 -199.85196 548.0
-154.0128 -200.21664 549.0
-150.436 -200.58133 550.0
-147.3782 -201.67542 553.0
-143.7593 -202.0401 554.0
-140.63136 -203.13419 557.0
-137.46133 -204.22827 560.0
-134.72614 -206.05173 565.0
-278.4434 -189.1987 509.0
-275.95364 -189.94211 511.0
-272.3698 -189.94211 511.0
-268.786 -189.94211 511.0
-265.2022 -189.94211 511.0
-257.5226 -186.96844 503.0
-254.49983 -187.34015 504.0
-252.45897 -188.45528 507.0
-248.90321 -188.45528 507.0
-245.34746 -188.45528 507.0
-241.7917 -188.45528 507.0
-238.23592 -188.45528 507.0
-235.60593 -189.1987 509.0
-233.40375 -190.31381 512.0
-236.99457 -196.26112 528.0
-232.8497 -195.8894 527.0
-229.15366 -195.8894 527.0
-225.45763 -195.8894 527.0
-221.76161 -195.8894 527.0
-218.06558 -195.8894 527.0
-214.36957 -195.8894 527.0
-210.67352 -195.8894 527.0
-206.58475 -195.5177 526.0
-202.89574 -195.5177 526.0
-199.20674 -195.5177 526.0
-195.51772 -195.5177 526.0
-191.82869 -195.5177 526.0
-188.85506 -196.26112 528.0
-185.50267 -196.63283 529.0
-182.82358 -197.74794 532.0
-179.76578 -198.49135 534.0
-177.33914 -199.9782 538.0
-174.21121 -200.7216 540.0
-171.0552 -201.46501 542.0
-167.56256 -201.83672 543.0
-164.05591 -202.20842 544.0
-160.5352 -202.58012 545.0
-157.00047 -202.95183 546.0
-153.73227 -203.69525 548.0
-150.16249 -204.06696 549.0
-146.84518 -204.81038 551.0
-144.0188 -206.2972 555.0
-140.63136 -207.04062 557.0
-277.3493 -192.01103 507.0
-273.79352 -192.01103 507.0
-268.63873 -190.87486 504.0
-265.104 -190.87486 504.0
-261.0503 -190.49615 503.0
-257.5226 -190.49615 503.0
-254.49983 -190.87486 504.0
-250.96512 -190.87486 504.0
-247.4304 -190.87486 504.0
-244.37961 -191.2536 505.0
-240.83788 -191.2536 505.0
-238.23592 -192.01103 507.0
-235.14305 -192.38976 508.0
-233.40375 -193.90463 512.0
-229.81291 -193.90463 512.0
-232.40785 -199.20671 526.0
-228.28401 -198.828 525.0
-224.602 -198.828 525.0
-220.92001 -198.828 525.0
-217.238 -198.828 525.0
-213.55602 -198.828 525.0
-210.27376 -199.20671 526.0
-206.192 -198.828 525.0
-202.51001 -198.828 525.0
-199.20674 -199.20671 526.0
-195.51772 -199.20671 526.0
-192.19339 -199.58543 527.0
-189.21272 -200.34286 529.0
-185.85333 -200.7216 530.0
-182.82358 -201.47903 532.0
-179.76578 -202.23647 534.0
-177.00952 -203.37263 537.0
-174.21121 -204.5088 540.0
-170.42401 -204.5088 540.0
-167.25398 -205.26624 542.0
-163.75433 -205.64496 543.0
-160.24063 -206.02367 544.0
-157.00047 -206.78111 546.0
-153.45174 -207.15984 547.0
-150.16249 -207.91727 549.0
-147.1117 -209.05344 552.0
-144.27829 -210.56831 556.0
-272.973 -192.48093 499.0
-271.09338 -193.63812 502.0
-267.5727 -193.63812 502.0
-264.052 -193.63812 502.0
-260.5313 -193.63812 502.0
-257.01062 -193.63812 502.0
-253.48993 -193.63812 502.0
-250.46718 -194.02386 503.0
-246.93947 -194.02386 503.0
-243.41176 -194.02386 503.0
-239.40717 -193.63812 502.0
-236.35634 -194.02386 503.0
-232.82866 -194.02386 503.0
-229.30095 -194.02386 503.0
-235.19916 -202.12425 524.0
-231.08234 -201.73853 523.0
-227.41434 -201.73853 523.0
-223.74638 -201.73853 523.0
-220.4992 -202.12425 524.0
-216.82423 -202.12425 524.0
-213.55602 -202.51 525.0
-209.87401 -202.51 525.0
-206.192 -202.51 525.0
-203.28148 -203.28146 527.0
-199.96416 -203.66719 528.0
-196.63284 -204.05293 529.0
-192.92276 -204.05293 529.0
-189.5704 -204.43866 530.0
-186.55467 -205.21013 532.0
-183.16724 -205.59586 533.0
-179.76578 -205.98158 534.0
-176.6799 -206.75305 536.0
-173.24336 -207.1388 537.0
-170.42401 -208.29599 540.0
-166.63681 -208.29599 540.0
-163.75433 -209.45319 543.0
-160.24063 -209.83893 544.0
-157.00047 -210.61038 546.0
-153.45174 -210.99612 547.0
-150.16249 -211.7676 549.0
-271.8789 -195.19508 497.0
-268.39325 -195.19508 497.0
-265.97366 -195.98058 499.0
-262.474 -195.98058 499.0
-259.49335 -196.37332 500.0
-257.01062 -197.15881 502.0
-253.48993 -197.15881 502.0
-248.97334 -196.37332 500.0
-245.46667 -196.37332 500.0
-241.47609 -195.98058 499.0
-237.97646 -195.98058 499.0
-234.94667 -196.37332 500.0
-232.36577 -197.15881 502.0
-228.84508 -197.15881 502.0
-226.22209 -197.9443 504.0
-230.19865 -204.621 521.0
-226.5447 -204.621 521.0
-222.89075 -204.621 521.0
-220.07841 -205.4065 523.0
-216.82423 -205.79924 524.0
-213.55602 -206.19199 525.0
-210.27376 -206.58475 526.0
-206.9775 -206.97748 527.0
-204.05295 -207.76297 529.0
-200.3429 -207.76297 529.0
-196.63284 -207.76297 529.0
-193.65216 -208.54848 531.0
-190.28577 -208.94121 532.0
-186.90533 -209.33397 533.0
-183.5109 -209.7267 534.0
-179.76578 -209.7267 534.0
-176.6799 -210.51219 536.0
-173.24336 -210.90495 537.0
-170.42401 -212.08319 540.0
-166.63681 -212.08319 540.0
-163.45276 -212.86868 542.0
-160.24063 -213.65417 544.0
-157.00047 -214.43967 546.0
-270.78482 -197.88121 495.0
-267.85324 -198.28096 496.0
-264.90762 -198.68073 497.0
-261.422 -198.68073 497.0
-257.41742 -198.28096 496.0
-253.93878 -198.28096 496.0
-250.46016 -198.28096 496.0
-246.98155 -198.28096 496.0
-243.50294 -198.28096 496.0
-240.50826 -198.68073 497.0
-237.02263 -198.68073 497.0
-233.53699 -198.68073 497.0
-230.97713 -199.48026 499.0
-227.93333 -199.88002 500.0
-223.97783 -199.48026 499.0
-229.7568 -207.87521 520.0
-226.5447 -208.27496 521.0
-222.89075 -208.27496 521.0
-220.4992 -209.47424 524.0
-217.238 -209.87401 525.0
-213.96278 -210.27376 526.0
-210.67352 -210.67352 527.0
-207.76299 -211.47305 529.0
-204.43867 -211.87282 530.0
-200.7216 -211.87282 530.0
-197.74796 -212.67233 532.0
-194.38155 -213.0721 533.0
-190.64345 -213.0721 533.0
-186.90533 -213.0721 533.0
-183.5109 -213.47185 534.0
-180.1024 -213.87161 535.0
-176.6799 -214.27136 536.0
-173.24336 -214.67113 537.0
-170.42401 -215.8704 540.0
-166.9454 -216.27017 541.0
-163.75433 -217.0697 543.0
-160.24063 -217.46947 544.0
-269.1437 -200.13248 492.0
-266.77316 -200.94603 494.0
-263.3086 -200.94603 494.0
-259.31802 -200.53926 493.0
-256.37943 -200.94603 494.0
-252.91486 -200.94603 494.0
-248.94528 -200.53926 493.0
-245.98566 -200.94603 494.0
-243.01201 -201.35281 495.0
-240.02434 -201.75958 496.0
-236.54572 -201.75958 496.0
-233.0671 -201.75958 496.0
-229.58849 -201.75958 496.0
-227.0216 -202.57314 498.0
-223.52896 -202.57314 498.0
-230.19865 -211.92892 521.0
-226.5447 -211.92892 521.0
-223.74638 -212.74246 523.0
-221.3408 -213.96278 526.0
-218.06558 -214.36955 527.0
-214.77634 -214.77634 528.0
-211.47304 -215.18309 529.0
-208.15575 -215.58989 530.0
-204.8244 -215.99663 531.0
-201.47905 -216.40341 532.0
-198.11967 -216.8102 533.0
-194.38155 -216.8102 533.0
-191.00111 -217.21696 534.0
-187.25601 -217.21696 534.0
-183.5109 -217.21696 534.0
-180.1024 -217.62375 535.0
-176.6799 -218.03052 536.0
-173.56598 -218.84407 538.0
-170.42401 -219.6576 540.0
-167.25398 -220.47116 542.0
-268.04962 -202.75548 490.0
-263.53302 -201.92789 488.0
-260.11053 -201.92789 488.0
-257.21402 -202.34169 489.0
-254.82248 -203.16927 491.0
-251.37892 -203.16927 491.0
-248.44032 -203.58305 492.0
-245.98566 -204.41061 494.0
-242.52107 -204.41061 494.0
-239.5404 -204.8244 495.0
-236.0688 -204.8244 495.0
-232.1273 -204.41061 494.0
-229.12561 -204.8244 495.0
-226.10988 -205.23819 496.0
-233.40375 -215.16907 520.0
-230.19865 -215.58284 521.0
-226.97952 -215.99663 522.0
-224.1742 -216.82422 524.0
-221.3408 -217.6518 526.0
-218.06558 -218.06558 527.0
-214.77634 -218.47937 528.0
-211.47304 -218.89316 529.0
-208.15575 -219.30695 530.0
-205.21014 -220.13452 532.0
-201.85776 -220.54831 533.0
-198.49138 -220.9621 534.0
-194.74623 -220.9621 534.0
-191.00111 -220.9621 534.0
-187.25601 -220.9621 534.0
-183.85454 -221.37585 535.0
-180.43906 -221.78964 536.0
-177.00952 -222.20343 537.0
-174.21121 -223.4448 540.0
-170.42401 -223.4448 540.0

