ply
format ascii 1.0
comment made by @arthurmuchir
element vertex 19
property float x
property float y
property float z
end_header
-404.03815 -300.1426 823.0
-393.427 -296.4957 813.0
-387.72516 -296.4957 813.0
-393.427 -302.1975 813.0
-386.77133 -301.4541 811.0
-381.0835 -301.4541 811.0
-377.24722 -302.94095 815.0
-399.1288 -307.89935 813.0
-393.427 -307.89935 813.0
-398.21707 -316.2312 835.0
-393.30072 -316.98865 837.0
-377.24722 -308.6568 815.0
-370.6196 -307.89935 813.0
-367.6109 -310.17166 819.0
-399.1709 -322.85876 837.0
-367.8844 -311.28677 807.0
-368.5086 -316.68707 821.0
-397.2633 -327.15796 833.0
-402.03235 -342.90994 843.0

